<?xml version="1.0" encoding="UTF-8"?>
<svg width="1318px" height="1318px" viewBox="0 0 1318 1318" version="1.1" xmlns="http://www.w3.org/2000/svg" xmlns:xlink="http://www.w3.org/1999/xlink">
    <!-- Generator: Sketch 62 (91390) - https://sketch.com -->
    <title>Desktop HD</title>
    <desc>Created with Sketch.</desc>
    <defs>
        <linearGradient x1="50%" y1="-24.5989237%" x2="50%" y2="100%" id="linearGradient-1">
            <stop stop-color="#FFFFFF" offset="0%"></stop>
            <stop stop-color="#6E6E6E" offset="100%"></stop>
        </linearGradient>
        <linearGradient x1="54.5849655%" y1="45.7136759%" x2="43.9535929%" y2="64.0454056%" id="linearGradient-2">
            <stop stop-color="#EEEEEE" offset="0%"></stop>
            <stop stop-color="#545454" offset="100%"></stop>
        </linearGradient>
        <linearGradient x1="50%" y1="-24.5989237%" x2="50%" y2="100%" id="linearGradient-3">
            <stop stop-color="#FFFFFF" offset="0%"></stop>
            <stop stop-color="#6E6E6E" offset="100%"></stop>
        </linearGradient>
        <linearGradient x1="50%" y1="-24.5989237%" x2="50%" y2="100%" id="linearGradient-4">
            <stop stop-color="#FFFFFF" offset="0%"></stop>
            <stop stop-color="#6E6E6E" offset="100%"></stop>
        </linearGradient>
        <path d="M394.5,771.589815 C480.307299,771.589815 559.566683,743.55486 623.618242,696.14486 C635.662422,687.22994 650.672745,688.261901 676,688 C680.237684,687.956179 688.237684,686.289513 700,683 C698,666.333333 699,654 703,646 C698.948095,638.940253 697.948095,634.60692 700,633 C704.490302,629.483486 716.808896,629.318191 736,625 C738.185439,624.508254 741.518772,622.508254 746,619 C742.539774,610.858096 740.539774,605.19143 740,602 C738.596092,593.699358 740.763899,588.043022 740,585 C736.220596,569.944595 733.971365,568.985427 736.235629,564.661142 C764.189322,511.275256 780,450.528926 780,386.089815 C780,173.184044 607.405771,0.589814831 394.5,0.589814831 C330.661991,0.589814831 270.448191,16.1068974 217.424578,43.5750841 C209.776238,47.5372063 195.338435,50.1410774 188,54.5898148 C182.539395,57.9001665 174.246997,72.0130235 169,75.5898148 C74.4902303,140.015561 17.6112701,237.701977 9.90125137,357.716884 C9.30222095,367.04145 0,393.000803 0,402.589815 C0,417.713877 9.8709402,416.134521 11.5654023,430.804327 C33.7243693,622.645596 196.718292,771.589815 394.5,771.589815 Z" id="path-5"></path>
        <radialGradient cx="45.561851%" cy="47.5388048%" fx="45.561851%" fy="47.5388048%" r="165.421287%" gradientTransform="translate(0.455619,0.475388),scale(1.000000,0.747503),rotate(-68.116611),scale(1.000000,0.540063),translate(-0.455619,-0.475388)" id="radialGradient-7">
            <stop stop-color="#C16442" offset="0%"></stop>
            <stop stop-color="#BEB577" offset="33.8694804%"></stop>
            <stop stop-color="#3B9148" offset="44.1459138%"></stop>
            <stop stop-color="#0C6719" offset="59.3887562%"></stop>
            <stop stop-color="#000000" offset="100%"></stop>
        </radialGradient>
        <linearGradient x1="128.561958%" y1="130.958748%" x2="12.8600903%" y2="39.2719393%" id="linearGradient-8">
            <stop stop-color="#FFFFFF" offset="0%"></stop>
            <stop stop-color="#49B25E" offset="100%"></stop>
        </linearGradient>
        <linearGradient x1="48.5372065%" y1="53.2240103%" x2="65.9931807%" y2="71.692348%" id="linearGradient-9">
            <stop stop-color="#4C963E" offset="0%"></stop>
            <stop stop-color="#FFFFFF" offset="100%"></stop>
        </linearGradient>
        <linearGradient x1="50%" y1="0%" x2="50%" y2="100%" id="linearGradient-10">
            <stop stop-color="#FAF3E4" offset="0%"></stop>
            <stop stop-color="#CABFA7" offset="100%"></stop>
        </linearGradient>
        <linearGradient x1="50%" y1="0%" x2="50%" y2="100%" id="linearGradient-11">
            <stop stop-color="#FAF3E4" offset="0%"></stop>
            <stop stop-color="#A39983" offset="100%"></stop>
        </linearGradient>
        <linearGradient x1="46.6817225%" y1="112.914237%" x2="-3.59750306%" y2="112.914237%" id="linearGradient-12">
            <stop stop-color="#DDD1D1" offset="0%"></stop>
            <stop stop-color="#E13131" offset="100%"></stop>
        </linearGradient>
        <linearGradient x1="50%" y1="0%" x2="50%" y2="100%" id="linearGradient-13">
            <stop stop-color="#FAF3E4" offset="0%"></stop>
            <stop stop-color="#B7AF9D" offset="100%"></stop>
        </linearGradient>
        <linearGradient x1="50%" y1="0%" x2="50%" y2="100%" id="linearGradient-14">
            <stop stop-color="#FAF3E4" offset="0%"></stop>
            <stop stop-color="#ADA595" offset="100%"></stop>
        </linearGradient>
        <linearGradient x1="69.2872537%" y1="100%" x2="0%" y2="100%" id="linearGradient-15">
            <stop stop-color="#D5BFBF" offset="0%"></stop>
            <stop stop-color="#D52828" offset="100%"></stop>
        </linearGradient>
        <linearGradient x1="50%" y1="0%" x2="50%" y2="100%" id="linearGradient-16">
            <stop stop-color="#D0974D" offset="0%"></stop>
            <stop stop-color="#000000" offset="100%"></stop>
        </linearGradient>
        <linearGradient x1="43.5430022%" y1="3.12413012%" x2="49.3593256%" y2="52.7147358%" id="linearGradient-17">
            <stop stop-color="#2A3F56" offset="0%"></stop>
            <stop stop-color="#3564B1" offset="100%"></stop>
        </linearGradient>
        <linearGradient x1="50%" y1="0%" x2="50%" y2="100%" id="linearGradient-18">
            <stop stop-color="#FAF3E4" offset="0%"></stop>
            <stop stop-color="#B8AD95" offset="100%"></stop>
        </linearGradient>
        <linearGradient x1="-19.844505%" y1="96.4920703%" x2="128.395578%" y2="96.4923469%" id="linearGradient-19">
            <stop stop-color="#BFB502" offset="0%"></stop>
            <stop stop-color="#FFF588" offset="48.0779699%"></stop>
            <stop stop-color="#CBB200" offset="100%"></stop>
        </linearGradient>
        <linearGradient x1="61.2307604%" y1="-30.0313301%" x2="32.7346158%" y2="130.183812%" id="linearGradient-20">
            <stop stop-color="#F17575" offset="0%"></stop>
            <stop stop-color="#5E2929" offset="100%"></stop>
        </linearGradient>
    </defs>
    <g id="Desktop-HD" stroke="none" stroke-width="1" fill="none" fill-rule="evenodd">
        <g id="image" transform="translate(266.000000, 132.000000)">
            <g id="plane" transform="translate(744.096562, 829.334714) scale(-1, -1) rotate(293.000000) translate(-744.096562, -829.334714) translate(544.596562, 772.334714)">
                <path d="M198.726806,52.6839192 L198.726806,60.5235436 C198.726806,62.4428669 200.15067,65.0640392 203.100545,68.3626563 C160.569241,68.3248872 120.404692,66.1933558 87.2161564,63.4276445 C64.0119773,61.4939629 44.2182548,59.2503135 29.4106822,57.1954683 C20.4779615,55.9558757 13.3614274,54.7852979 8.40771422,53.7930511 C6.63116283,53.4372014 5.1344452,53.1047571 3.93385644,52.800435 C61.9883115,52.5812899 127.082732,52.683444 198.726806,52.6839192 Z" id="Oval" stroke="#AEADAD" fill="url(#linearGradient-1)"></path>
                <path d="M136.95133,75.6861119 C136.819539,75.9544456 136.59138,76.1489145 136.291183,76.2884022 C135.912467,76.4643745 135.428654,76.5540526 134.857913,76.5783539 C133.530503,76.6348731 131.766265,76.3313443 129.713641,75.7579767 C125.121521,74.4752416 119.121901,71.83827 113.309437,68.6713077 C107.735416,65.6342623 102.333068,62.1092956 98.5114725,58.8155931 C95.6390825,56.3399785 93.6199412,54.0155319 93.2526993,52.1410158 C100.473022,53.2503037 105.385193,53.1797623 108.009028,52.0030763 C112.210105,50.1190597 116.624323,45.6991422 121.222669,38.7034819 C124.806387,40.3141764 128.450936,46.4098286 131.372945,53.1600429 C135.415729,62.4993915 138.133433,73.279298 136.95133,75.6861119 Z" id="Oval" stroke="#979797" fill="#B3B3B3"></path>
                <ellipse id="Oval-Copy-4" fill="#E7E7E7" opacity="0.7" cx="101.519676" cy="43.2907018" rx="32" ry="25.5"></ellipse>
                <path d="M296.679666,107.203401 C296.679666,108.2394 296.410077,109.473284 295.558408,110.507575 C294.896307,111.31165 293.884748,111.987966 292.3984,112.373476 C289.885088,113.025346 286.075339,112.84921 280.382066,111.119439 C265.559241,106.615863 239.157297,94.1344135 217.355663,83.8304462 C211.861724,81.2338805 206.659601,78.7752396 202.007579,76.6165204 C192.097484,72.0178503 185.971198,69.6682469 181.525909,67.9633691 C178.338252,66.7408244 176.021523,65.8536362 173.788647,64.69822 C163.834893,59.5475849 144.369464,42.6458595 130.218533,27.4459083 C124.028489,20.7969921 118.855284,14.4743874 115.950206,9.6025264 C114.668076,7.45237402 113.829378,5.59490806 113.564857,4.12633126 C113.450579,3.49188054 113.444303,2.93705461 113.574495,2.47331498 C113.685905,2.07647518 113.901769,1.75373421 114.235073,1.51604618 C117.308463,-0.675671789 161.595832,14.8160871 175.252027,20.4050357 C186.422708,24.9767605 205.448097,42.729959 218.212122,54.6234726 C221.184402,57.3930416 223.818151,59.8471134 225.936343,61.7477692 C226.124248,61.9163769 226.319158,62.0914303 226.520848,62.2725731 C235.6124,70.4379225 258.400549,90.8288075 274.572002,91.3808876 C281.144381,91.6052632 285.986375,85.4044726 289.841227,80.3506489 C291.53452,78.1306923 293.025764,76.1562654 294.408982,75.1749134 C294.880154,74.8406309 295.332428,74.625075 295.778637,74.5947206 C296.15497,74.5691197 296.518999,74.6866125 296.878359,74.9579734 C298.245443,75.990288 298.645283,79.3190239 298.697484,83.3312137 C298.78532,90.0822457 297.670849,98.9219006 297.064084,103.741721 C296.835057,105.560986 296.679666,106.819797 296.679666,107.203401 Z" id="Oval" stroke="#C8C8C8" fill="url(#linearGradient-2)"></path>
                <path d="M286.241132,91.568564 L321.038589,91.568564 C320.610372,92.1014428 319.648392,92.8784076 318.242577,93.7208301 C316.723155,94.6313313 314.63467,95.5964458 311.90996,96.4240281 C307.88761,97.6457458 302.488917,98.564519 295.498308,98.5684577 C292.061896,97.9099181 289.672652,96.3726726 288.368093,93.9113333 C288.016555,93.2480791 287.312142,92.4638368 286.241132,91.568564 Z" id="Oval-Copy-3" stroke="#AEADAD" fill="url(#linearGradient-3)"></path>
                <path d="M396.978928,53.1943621 C396.851511,53.2508834 396.718821,53.3071454 396.576902,53.3648685 C395.484178,53.8093144 393.869892,54.3250064 391.748255,54.8945675 C387.892223,55.9297332 382.37505,57.1374443 375.27635,58.4042364 C364.024495,60.4121758 348.805586,62.5671043 329.934922,64.4159588 C302.491144,67.1047648 267.326832,69.145862 225.410875,69.145862 C222.870641,69.5707 217.771992,66.7456396 210.033991,60.9275294 C208.834914,60.0259578 207.987703,58.9273847 207.497858,57.6277819 C207.043767,56.4230382 206.896056,55.049419 207.052867,53.5084704 C279.27075,53.5080327 342.579438,53.4033296 396.978928,53.1943621 Z" id="Oval" stroke="#AEADAD" fill="url(#linearGradient-4)"></path>
                <path d="M262.479208,52.1351427 C265.774781,51.4820775 268.076481,49.6960289 269.393789,46.7886387 C270.648769,44.0188128 270.998021,40.1962218 270.404611,35.3127273 C270.96086,34.8751827 271.529612,34.7338064 272.109346,34.8774445 C272.881899,35.0688567 273.644611,35.706309 274.407244,36.6420531 C276.302947,38.9680657 278.124572,43.1251922 279.669531,47.8633187 C281.690629,54.0616824 283.227346,61.2557889 283.790462,66.7256375 C284.056211,69.3069972 284.106798,71.4991423 283.880042,73.0072433 C283.783888,73.6467399 283.643279,74.1546222 283.432802,74.4945813 C283.316657,74.6821768 283.181533,74.8215686 282.987658,74.8215686 C278.007935,74.8215686 267.884779,69.758064 259.479898,63.7605035 C252.733523,58.9464213 246.987879,53.5144216 246.133651,49.5589828 C251.014779,52.465556 256.462645,53.3274112 262.479208,52.1351427 Z" id="Oval-Copy-2" stroke="#979797" fill="#B3B3B3"></path>
                <ellipse id="Oval" fill="#E7E7E7" opacity="0.7" cx="260.138714" cy="43.3152579" rx="32" ry="25.5"></ellipse>
            </g>
            <g id="world" transform="translate(0.000000, 142.000000)">
                <mask id="mask-6" fill="white">
                    <use xlink:href="#path-5"></use>
                </mask>
                <use id="Oval" fill="#3564B1" xlink:href="#path-5"></use>
                <path d="M575.104404,590.587534 C574.445534,580.026864 573.717171,568.674501 575.476413,563.151759 C576.247969,560.729634 577.736625,559.224698 579.635143,558.249533 C582.337872,556.861289 585.842958,556.519128 589.325282,556.165287 C594.602526,555.629064 599.781159,555.026483 602.409069,551.287511 C607.290171,544.342715 610.298854,534.760577 613.083523,525.862746 C615.364608,518.574013 617.491151,511.749097 620.418439,507.273694 C625.864959,498.946749 634.312107,499.271681 639.868371,499.451964 C640.636635,499.476892 641.352002,499.5 642,499.5 C642.124689,499.5 642.581642,499.453365 643.30188,499.376207 C647.472548,498.929413 660.914909,497.47773 668.877793,499.484836 C673.962947,500.766587 678.11332,503.398568 682.546934,506.199975 C685.957205,508.354776 689.531415,510.61117 693.801434,512.458881 C700.960681,515.55681 709.561061,517.884857 717.881753,520.135191 C723.125173,521.553275 728.25681,522.94079 732.841403,524.47418 C735.457342,525.349123 737.634478,525.238016 740.377427,523.301817 C742.912598,521.512284 745.96356,518.093344 750.396972,512.303996 C750.685275,511.927516 750.822213,511.50874 750.820951,511.05025 C750.819779,510.624773 750.694466,510.158659 750.43989,509.657868 C749.966538,508.726706 749.025472,507.647316 747.703281,506.451367 C744.484942,503.540312 738.971883,499.873405 732.786357,495.763158 C723.233467,489.415317 712.064404,482.001282 705.369371,474.663006 C704.523123,473.735452 704.048775,472.789783 703.870464,471.839532 C703.670833,470.775665 703.841675,469.711531 704.244906,468.673022 C705.470529,465.516465 708.790369,462.596451 711.084415,460.55877 C712.17156,459.593116 713.039219,458.811667 713.408536,458.288268 C713.466834,458.205648 713.76792,457.258506 714.232363,455.656834 C716.589449,447.528227 724.038516,421.716153 731.354697,414.352406 C734.084935,411.604418 739.30991,411.540365 744.650975,411.403892 C750.126598,411.26398 755.742728,411.078495 759.300757,408.399431 C770.784756,399.752407 782.110725,390.043318 791.931555,381.624132 C806.281015,369.322648 817.40943,359.538753 820.868407,360.482373 C822.31014,360.875682 823.313218,361.787959 823.941214,363.132371 C824.646168,364.641537 824.889569,366.670397 824.769314,369.11387 C824.493669,374.714727 822.294908,382.442629 818.988543,391.190802 C807.933217,420.441632 784.477971,461.019231 778.162796,471.945601 C777.014889,473.931682 776.499201,475.02682 776.504303,475.065457 C776.862283,477.776412 781.831016,486.597065 788.432652,498.238032 C798.125545,515.329953 811.306352,538.566741 818.178526,557.389182 C822.710217,569.801188 824.5793,580.31841 820.59797,585.702726 C798.022563,616.23351 739.877774,631.276784 696.038491,642.662204 C678.72741,647.158033 663.631711,651.081032 653.790122,655.142709 C649.832272,656.776135 646.716919,658.437082 644.630074,660.160625 C642.566464,661.864979 641.5,663.643596 641.5,665.5 C641.5,682.804041 638.90195,696.944497 634.061851,706.711127 C631.680286,711.516785 628.757778,715.25723 625.329376,717.775787 C622.011344,720.213265 618.220692,721.5 614,721.5 C609.118261,721.5 603.408062,717.329245 597.85534,710.158751 C592.377285,703.084678 587.068788,693.06707 582.880852,681.040178 C576.038958,661.391661 572.191082,636.384436 575.496105,610.062291 C576.042887,605.707557 575.589213,598.358287 575.104404,590.587534 Z" id="Oval" stroke="#979797" fill="#B7B69C" mask="url(#mask-6)"></path>
                <path d="M76.5,469.589815 C135.309498,469.589815 121.231969,401.722957 129,335.589815 C132.356876,307.01105 106.456396,288.953766 114,260.589815 C124.332106,221.741098 152.769419,203.172697 182.581984,189.269731 C189.543916,186.023062 176.101127,177.526493 183,174.589815 C190.81263,171.264173 217.268755,192.636494 226,189.589815 C256.429854,178.971626 281,142.199656 281,112.589815 C281,96.9906972 275.479642,79.1376828 266.208738,62.0214304 C264.969313,59.7331622 244.784463,90.1168297 234.393192,81.5170761 C234.142262,81.3094078 233.290908,96.6220315 226,100.589815 C225.184408,101.033668 218.430738,101.704447 217,102.589815 C215.878932,103.283553 220.135503,104.209727 219,104.589815 C213.795178,106.332028 207.967625,106.690852 204,108.589815 C201.613375,109.732088 205.660249,112.103526 203,112.589815 C201.147471,112.928454 190.877923,111.725279 188,111.589815 C185.050991,111.451005 182.050991,111.117672 179,110.589815 C196.673671,108.356689 206.673671,106.690023 209,105.589815 C211.346684,104.479981 199.575183,102.303568 200,101.589815 C200.210027,101.23694 206.047597,102.955163 206,102.589815 C205.979073,102.429183 219.802484,100.100125 218,99.5898148 C212.107862,97.9216635 184.262298,96.9177934 181,96.5898148 C175.384163,96.0252208 185.059952,99.9036651 177,98.5898148 C175.471236,98.3406115 175.471236,97.3406115 177,95.5898148 C202.266187,97.5313 215.266187,97.8646333 216,96.5898148 C216.654829,95.4522113 218,94.5898148 206,89.5898148 C194,84.5898148 186.036338,86.6034227 182,85.5898148 C179.486438,84.9586075 185.459201,83.5646909 186,83.5898148 C195.628459,84.0371249 209.18122,88.6981777 216,92.5898148 C218.591458,94.0688204 221.880603,91.760932 221.163449,94.4568866 C219,102.589815 225.401485,95.986841 226,95.5898148 C232.700354,91.1451245 230.849502,75.9000926 230.71835,75.5182684 C229.993002,73.4065494 229.410135,70.7888712 229,67.5898148 C228.898818,66.8005984 226.717077,54.7800612 219,51.5898148 C217.573033,50.9999054 197.348526,49.5806185 189,51.5898148 C179.162868,53.9572662 180.979185,59.8570569 179,59.5898148 C168.11268,58.11974 186.356074,48.6370454 186,46.5898148 C185.420879,43.2601859 225.937572,49.7257612 226,48.5898148 C227.436841,22.4449528 258.043615,48.5323912 256.54237,46.3820824 C237.956476,19.7605653 210.90537,-2.457224 183,-7.41018517 C147.880072,-13.6436677 100.975169,31.586911 76.5,31.5898148 C-7.72342434,31.5898148 -76,129.639455 -76,250.589815 C-76,371.540175 -7.72342434,469.589815 76.5,469.589815 Z" id="Oval" fill="url(#radialGradient-7)" mask="url(#mask-6)"></path>
                <path d="M313,192 C318.216544,190.18555 308.835975,184.832029 311,182 C312.902924,179.50967 325.39694,192.477188 327,190 C331.611692,182.873609 324,160.876562 324,158.5 C324,156.64958 315.728783,156.620396 311,152 C305.143477,146.277712 302.111242,136 296,136 C289.854851,136 291.591236,145.537378 286,155 C281.541181,162.546117 269,170.162295 269,172 C269,175.857772 266.466414,195.841477 286,192 C287.439859,191.716837 311.421015,192.549212 313,192 Z" id="Oval" fill="url(#linearGradient-8)" mask="url(#mask-6)"></path>
                <path d="M395,525.589815 C402.245839,525.589815 428.397865,540.537525 435,535.589815 C452.768118,522.274199 449.282023,478.336462 465,469.589815 C476.547014,463.164201 495.027906,439.972412 510,450.589815 C535.559472,468.715216 557.487966,526.990742 565,512.589815 C569.639791,503.695115 541,400.522606 541,386.089815 C541,353.859062 514.960217,324.964415 510,292.589815 C503.103417,247.576842 511.901029,203.589815 465,203.589815 C384.366427,203.589815 249,208.546092 249,285.589815 C249,289.87482 201.651487,398.90989 201.998085,403.589815 C206.798141,468.020574 291.659321,561.670974 348,577.589815 C361.145965,581.304156 380.593621,525.589815 395,525.589815 Z" id="Oval" fill="#FFFFFF" mask="url(#mask-6)"></path>
                <path d="M718.5,680 C752.465512,680 780,647.98836 780,608.5 C780,572.382735 819.421395,482.406808 792,477 C791.476209,476.896722 797.39069,407.81237 780,403 C765.800504,399.0707 728.180555,458.623014 724,463 C715.439802,471.962413 774.596543,506.080064 767,517 C760.647905,526.131059 736.829582,533 736,533 C723.74701,533 655.588381,509.819918 646,517 C629.009213,529.723235 594,582.756987 594,608 C594,627.698889 586.201878,706.943435 613,720 C639.92135,733.116603 701.478287,680 718.5,680 Z" id="Oval" fill="url(#linearGradient-9)" mask="url(#mask-6)"></path>
                <path d="M647.744794,675.719293 C652.749798,675.719293 646.507251,664.474539 652.744794,660.719293 C657.144916,658.070246 674.549719,663.272516 676.744794,660.719293 C681.395623,655.309635 676.744794,638.086818 676.744794,630.219293 C676.744794,623.936632 702.840837,604.571575 699.744794,599.719293 C699.318773,599.05161 695.87098,585.062168 700,581 C702.011558,579.02101 708.011558,579.02101 718,581 C712.041255,562.733808 707.374588,551.733808 704,548 C687.201779,529.413635 674.441012,533.843663 672,534 C659.752224,534.784423 647.693561,548 642,548 C625.983742,548 603,595.155315 603,612 C603,624.217433 598.136469,685.131438 608,690 C611.735731,691.843928 643.345113,675.719293 647.744794,675.719293 Z" id="Oval" fill="#4D963F" mask="url(#mask-6)"></path>
            </g>
            <g id="ship" transform="translate(248.000000, 0.000000)">
                <g id="Group-2-Copy" transform="translate(44.000000, 32.000000)">
                    <rect id="Rectangle-Copy" fill="#665949" x="135" y="9" width="6" height="159"></rect>
                    <path d="M167.158388,68.5 L107.146123,68.5 C99.4063936,61.6758574 95.5,54.6343923 95.5,47.3492063 C95.5,40.0508749 100.355974,32.7829286 109.939312,25.5 L176.336111,25.5 C164.851454,33.2237039 159.211864,40.5286505 159.211864,47.3492063 C159.211864,54.1768585 161.850856,61.2299041 167.158388,68.5 Z" id="Rectangle" stroke="#D6CCBC" fill="url(#linearGradient-10)"></path>
                    <path d="M172.912121,127.5 L98.8857432,127.5 C89.3184617,118.929768 84.5,110.083625 84.5,100.936508 C84.5,91.7764046 90.4821003,82.6453931 102.3229,73.5 L184.3546,73.5 C170.067602,83.2020829 163.025424,92.3692005 163.025424,100.936508 C163.025424,109.510363 166.311401,118.367542 172.912121,127.5 Z" id="Rectangle-Copy-2" stroke="#D6CCBC" fill="url(#linearGradient-11)"></path>
                    <path d="M1.13709677,18 C14.0149095,18.6178832 24.2487805,18.6178832 31.8387097,18 C56.9383406,15.9566817 81.7772145,0.103562907 99.354736,0.103562907 C124.905212,0.103562907 138.786967,2.26224531 141,6.57961011 L141,15.8311061 C136.775118,10.8969749 122.893363,8.42990931 99.354736,8.42990931 C83.541308,8.42990931 57.1627924,23.780853 32.3601808,26.0077517 C24.2824416,26.7330103 13.4957146,26.7304264 0,26 L6.82258065,21 L1.13709677,18 Z" id="Rectangle" fill="url(#linearGradient-12)"></path>
                </g>
                <g id="Group-2">
                    <rect id="Rectangle-Copy" fill="#665949" x="150" y="11" width="7" height="159"></rect>
                    <path d="M194.139592,80.5 L121.595166,80.5 C112.222834,72.2472668 107.5,63.7296452 107.5,54.9206349 C107.5,46.0984724 113.36455,37.3067621 124.964653,28.5 L205.331598,28.5 C191.351368,37.8423777 184.466102,46.6715824 184.466102,54.9206349 C184.466102,63.1768837 187.680559,71.7061737 194.139592,80.5 Z" id="Rectangle" stroke="#D6CCBC" fill="url(#linearGradient-13)"></path>
                    <path d="M194.007008,147.5 L108.189369,147.5 C97.0870913,137.659935 91.5,127.501915 91.5,117 C91.5,106.485001 98.4319314,95.9999032 112.168988,85.5 L207.338526,85.5 C190.709655,96.6410185 182.5,107.163349 182.5,117 C182.5,126.843633 186.325696,137.013104 194.007008,147.5 Z" id="Rectangle-Copy-2" stroke="#D6CCBC" fill="url(#linearGradient-14)"></path>
                    <path d="M0,7 C16.2830785,17.0012072 28.6164118,21.6678739 37,21 C64.7242335,18.7913644 91.5844432,0 111,0 C139.222222,0 154.555556,2.33333333 157,7 L157,17 C152.333333,11.6666667 137,9 111,9 C93.5330033,9 64.3961556,25.5929312 37,28 C28.0775928,28.7839366 15.7442594,25.1172699 0,17 L8,17 L0,7 Z" id="Rectangle" fill="url(#linearGradient-15)"></path>
                </g>
                <path d="M101,153 C123.275157,156.104637 141.941823,160.437971 157,166 C160.635622,167.342887 163.982544,188.217435 168,190 C171.84641,191.706671 180.555122,193.13823 194.126135,194.294678 C196.708712,188.098226 202.666667,188 212,194 L186,225 L123,255 L101,153 Z" id="Rectangle" fill="url(#linearGradient-16)"></path>
                <path d="M91,174 C89.0037361,164.744595 92.3370695,157.744595 101,153 L123,255 C103.662931,210.255405 92.9962639,183.255405 91,174 Z" id="Rectangle" fill="#644725"></path>
                <path d="M106,224 C105.574584,206.668281 106.574584,196.334948 109,193 C110.942803,190.328645 112.845512,185.455386 115,184 C115.970651,183.344312 116.00094,187.420724 117,187 C118.255507,186.471281 119.705212,179.257581 121,179 C121.704448,178.859859 125.289752,184.036046 126,184 C127.837179,183.906761 130.256103,180.669809 132,181 C133.77778,181.336607 139.378911,186.188601 141,187 C149.585338,191.297198 151.910634,196.86595 154,200 C147.401282,194.091247 143.067949,191.424581 141,192 C130.549417,194.907937 132.456018,198.752386 144,207 C144.546737,207.390617 144.270756,210.465049 145,211 C145.491527,211.360569 148.506829,210.342439 149,211 C151,213.666667 154.666667,216.333333 160,219 C159.681107,213.128133 160.014441,209.128133 161,207 C161.418725,206.095841 162.424787,206.86282 163,206 C163.460592,205.309112 163.47416,202.495002 164,202 C164.907401,201.145813 166.931991,203.304003 168,203 C168.610458,202.826237 169.360372,200.044781 170,200 C171.206533,199.915529 175.741899,202.626668 177,203 C178.413467,203.419435 177.774247,201.322095 179,202 C184.691693,205.147801 190.243515,212.991963 191,213 C184.00269,210.848648 180.00269,210.181981 179,211 C175.279323,214.035419 178.22159,215.051973 185,219 C185.844138,219.491661 185.937289,222.191386 187,223 C188.344423,224.022968 190.692037,223.190309 192,224 C193.175587,224.727744 194.631165,226.018834 197,226 C198.004386,225.992014 199.148966,223.384154 201,223 C202.064927,222.77899 203.797877,224.285589 206,224 C207.858832,223.758932 211.525499,222.758932 217,221 L207,251 L116,251 L106,224 Z" id="Rectangle" fill="#FFFFFF"></path>
                <path d="M105,226 C105.907917,212.001614 107.574584,203.334948 110,200 C126,178 150,194 154,200 C148.067949,198.757914 144.067949,198.424581 142,199 C127.677482,202.985327 134.010816,211.985327 161,226 C160.393954,221.242402 161.393954,216.909068 164,213 C172,201 189.646285,212.985618 191,213 C185.336024,212.181981 182.00269,212.181981 181,213 C176.229798,216.891646 182.356025,224.410873 193,231 C196.385436,233.095746 205.385436,228.762413 220,218 L208,258 L117,258 L105,226 Z" id="Rectangle" fill="url(#linearGradient-17)"></path>
                <polygon id="Rectangle" fill="#665949" points="44 123 101 153 102 159 46 127"></polygon>
                <path d="M147.540346,23.2836848 C121.569252,55.9763831 104.906116,81.153123 97.5385691,98.8074344 C90.1555044,116.498929 89.6341968,132.519289 95.9362018,146.871066 L46.6570894,120.782124 C54.8720435,103.556984 65.7684085,88.4163261 79.3465544,75.3604165 C92.6927384,62.5275473 115.426085,45.1669953 147.540346,23.2836848 Z" id="Rectangle" stroke="#D6CCBC" fill="url(#linearGradient-18)"></path>
                <path d="M159.579451,66.5 L141.402983,66.5 L136.881615,45.7017081 L147.259601,57.0231478 L150.930187,42.3408031 L153.704269,57.1359026 L163.186994,45.7566327 L159.579451,66.5 Z" id="Rectangle" stroke="#D2C358" fill="url(#linearGradient-19)"></path>
                <path d="M145.579451,128.5 L127.402983,128.5 L122.881615,107.701708 L133.259601,119.023148 L136.930187,104.340803 L139.704269,119.135903 L149.186994,107.756633 L145.579451,128.5 Z" id="Rectangle-Copy-3" stroke="#D2C358" fill="url(#linearGradient-19)"></path>
            </g>
            <g id="rock" transform="translate(38.000000, 312.000000)">
                <path d="M5.93266412,158 C14.2927066,154.17977 27.6042182,140.020663 34.8767871,118.907216 C38.792548,107.539128 37.1948797,91.2027597 39.8671531,78.185567 C41.9362431,68.1066049 52.8682789,40.1591432 54.8382512,30.9484536 C59.702186,8.20691889 54.8382512,7.60107471 54.8382512,0 C44.192137,3.25773196 35.2094782,8.68728522 27.8902746,16.2886598 C16.9114694,27.6907216 3.75971191,65.4794121 0.942298087,87.9587629 C-1.87511574,110.438114 2.16826166,158 5.93266412,158 Z" id="Oval-Copy" fill="#000000" opacity="0.198564597"></path>
                <path d="M5.93266412,97 C14.2927066,94.6546691 27.6042182,85.9620527 34.8767871,73 C38.792548,66.0208568 37.1948797,55.9915676 39.8671531,48 C41.9362431,41.8122827 52.8682789,24.6546638 54.8382512,19 C59.702186,5.03842489 54.8382512,4.66648258 54.8382512,0 C44.192137,2 35.2094782,5.33333333 27.8902746,10 C16.9114694,17 3.75971191,40.1993859 0.942298087,54 C-1.87511574,67.8006141 2.16826166,97 5.93266412,97 Z" id="Oval" fill="url(#linearGradient-20)"></path>
                <path d="M28.9934552,50.6347281 C28.924112,48.4573428 29.8637077,41.8797114 28.9934552,40.2089375 C27.5591416,37.4552383 25.7560072,51.1311943 23.016916,51.1311943 C18.6159141,51.1311943 16.044287,34.4509324 16.044287,40.2089375 C16.044287,41.9498942 13.341371,47.9383251 12.0599275,53.1170591 C11.229158,56.4744716 6.32029495,51.3537563 7.07947822,53.1170591 C7.89450366,55.0100628 8.5709275,82.2308397 13.0560174,83.8979645 C18.0081573,85.7386937 32.9214232,62.205991 34.9699943,51.1311943 C35.4887738,48.3266168 29.1102954,54.3035277 28.9934552,50.6347281 Z" id="Oval" fill="#613636" opacity="0.366094612"></path>
            </g>
            <g id="natives" transform="translate(116.000000, 230.000000) rotate(-45.000000) translate(-116.000000, -230.000000) translate(96.000000, 181.000000)" fill="#000000">
                <path d="M8.98098459,98 C9.15524091,98 12.3174564,76.9378896 13.3453575,65.2133012 C13.3924488,64.676162 13.9311472,63.9383949 14.9614527,63 C16.409734,62.8289207 17.0742304,63.162254 16.954942,64 C16.6312328,66.2733651 15.3022399,69.2733651 12.9679633,73 L13,76 C13.6666667,74.6666667 14.6406901,72.9827232 15.9220702,70.9481697 C17.9636262,67.7066219 21.2981508,65.3905653 25.9256441,64 C26.2366267,63.3551822 25.5721302,60.6885155 23.9321548,56 C24.0712032,54.3339869 14.836656,51.6141314 14.9614527,50 C15.4965594,43.0788776 15.0039764,43.0762249 14.9614527,40 C14.9090628,36.2100472 11.6680482,30.7529459 11.7868472,30.6963807 C12.6713951,30.2752103 13.4054574,31.1060059 13.964708,30 C14.5673539,28.8081728 14.9614527,25.6360694 14.9614527,24 C14.9614527,20.1340068 15.9581973,17 10.4761016,17 C4.99400588,17 5.99075056,20.1340068 5.99075056,24 C5.99075056,27.2009796 7.98423991,28 7.98423991,30 C7.98423991,32 2.70908333,41.1999343 3.00051652,45 C3.0725201,45.9388715 0.859903704,68.532265 1.00702717,70 C1.10497505,70.9771489 5.86598009,47.8392555 5.99075056,49 C6.44652541,53.2400915 4.61866366,60.7501539 4.99400588,67 C5.19895339,70.4125934 5.65046646,72.7233877 6,76 C6.32447507,79.0417081 5.65309705,83.2573142 6,86 C6.95251084,93.5307459 8.87862601,98 8.98098459,98 Z" id="Oval"></path>
                <path d="M1.5,0 C2.5,3.77777778 3,5.77777778 3,6 C3,6.22222222 2.66666667,6.55555556 2,7 L2,98 L1,98 L1,7 C0.333333333,6.55555556 0,6.22222222 0,6 C0,5.77777778 0.5,3.77777778 1.5,0 Z" id="Rectangle"></path>
                <path d="M32,89 C32.1785429,89 32.960004,81.6842265 33.9140376,73.6242911 C34.1610946,71.537086 34.4197245,69.3999771 34.6824537,67.3270871 C35.121822,63.8605443 35.572655,60.5736004 36,58 C36.1342137,57.1917249 38.9086366,70.8961255 39,70 C39.1132864,68.8888458 39.4852585,59.9577854 39,56 C38.9154097,55.3100786 38.248743,52.9767452 37,49 C34.2101308,45.4505309 32.8399473,43.6624183 32.8894496,43.6356621 C33.6128657,43.2446523 33.4889845,42.4176771 34,42 C34.7642304,41.3753584 36,40.9979992 36,39 C36,34.8578644 36.4852814,31 34,31 C32.8524638,31 28.8358321,29.6006174 28,32 C27.0256251,34.7970906 27.831842,36.485555 28,37 C28.2187755,37.6692988 28.5805558,41.4595433 29,42 C29.7179843,42.9251275 29.6230833,43.4491348 30.4004249,43.7744912 C30.4394001,43.7908042 26.4984181,48.3607513 25,52 C24.6302294,52.898072 23.7808503,57.1683898 24,60 C24.4957225,66.4051771 26.8570727,66.4138945 27,67 C27.0849756,67.3484614 27.2711227,64.3392776 27.5584413,57.9724486 C30.3537654,78.6574829 31.834285,89 32,89 Z" id="Oval"></path>
            </g>
            <g id="Group-4" transform="translate(608.736544, 733.500000) rotate(135.000000) translate(-608.736544, -733.500000) translate(558.236544, 705.500000)" fill="#2D2D2D">
                <g id="Group-3" transform="translate(52.506097, 8.292893)">
                    <path d="M12.95424,1.26776695 L3.01306353,17.267767 L1.75286678,17.267767 L11.6940432,1.26776695 L12.95424,1.26776695 Z" id="Rectangle" stroke="#575757"></path>
                    <path d="M14.5408655,17.267767 L2.2808036,1.26776695 L3.38478858,1.26776695 L15.2733335,17.267767 L14.5408655,17.267767 Z" id="Rectangle-Copy-4" stroke="#515151"></path>
                </g>
                <g id="Group-3-Copy-4" transform="translate(22.721825, 20.227922)">
                    <path d="M12.95424,1.26776695 L3.01306353,17.267767 L1.75286678,17.267767 L11.6940432,1.26776695 L12.95424,1.26776695 Z" id="Rectangle" stroke="#575757"></path>
                    <path d="M14.5408655,17.267767 L2.2808036,1.26776695 L3.38478858,1.26776695 L15.2733335,17.267767 L14.5408655,17.267767 Z" id="Rectangle-Copy-4" stroke="#515151"></path>
                </g>
                <g id="Group-3-Copy-3" transform="translate(42.000000, 35.000000)">
                    <path d="M14.9737528,0.899494937 L3.39562785,19.8994949 L1.75416922,19.8994949 L13.3322942,0.899494937 L14.9737528,0.899494937 Z" id="Rectangle" stroke="#575757"></path>
                    <path d="M17.7142236,20.2530483 L2.86422365,1.25304833 L4.43251103,1.25304833 L18.832511,20.2530483 L17.7142236,20.2530483 Z" id="Rectangle-Copy-4" stroke="#515151"></path>
                </g>
                <g id="Group-3-Copy-5" transform="translate(70.012193, 20.142136)">
                    <path d="M14.9737528,0.899494937 L3.39562785,19.8994949 L1.75416922,19.8994949 L13.3322942,0.899494937 L14.9737528,0.899494937 Z" id="Rectangle" stroke="#575757"></path>
                    <path d="M17.7142236,20.2530483 L2.86422365,1.25304833 L4.43251103,1.25304833 L18.832511,20.2530483 L17.7142236,20.2530483 Z" id="Rectangle-Copy-4" stroke="#515151"></path>
                </g>
                <g id="Group-3-Copy" transform="translate(0.362175, 35.137825)">
                    <path d="M15.0497191,1.41421356 L3.50366648,19.4142136 L1.87921308,19.4142136 L13.4252657,1.41421356 L15.0497191,1.41421356 Z" id="Rectangle" stroke="#575757"></path>
                    <path d="M17.8007416,19.4142136 L3.81459203,1.41421356 L5.22779473,1.41421356 L18.7901216,19.4142136 L17.8007416,19.4142136 Z" id="Rectangle-Copy-4" stroke="#515151"></path>
                </g>
                <g id="Group-3-Copy-2" transform="translate(83.886562, 0.989592)">
                    <path d="M13.5570224,0.621320344 L2.81396689,17.6213203 L1.37190974,17.6213203 L12.1149653,0.621320344 L13.5570224,0.621320344 Z" id="Rectangle" stroke="#575757"></path>
                    <path d="M15.0190914,17.6213203 L1.89628443,0.621320344 L3.15470277,0.621320344 L15.879849,17.6213203 L15.0190914,17.6213203 Z" id="Rectangle-Copy-4" stroke="#515151"></path>
                </g>
            </g>
        </g>
    </g>
</svg>