<?xml version="1.0" encoding="UTF-8"?>
<svg width="1318px" height="1318px" viewBox="0 0 1318 1318" version="1.1" xmlns="http://www.w3.org/2000/svg" xmlns:xlink="http://www.w3.org/1999/xlink">
    <!-- Generator: Sketch 62 (91390) - https://sketch.com -->
    <title>Desktop HD</title>
    <desc>Created with Sketch.</desc>
    <defs>
        <linearGradient x1="50%" y1="0%" x2="50%" y2="100%" id="linearGradient-1">
            <stop stop-color="#81A162" offset="0%"></stop>
            <stop stop-color="#33673E" offset="100%"></stop>
        </linearGradient>
        <linearGradient x1="50%" y1="0%" x2="50%" y2="100%" id="linearGradient-2">
            <stop stop-color="#92AD78" offset="0%"></stop>
            <stop stop-color="#318A44" offset="100%"></stop>
        </linearGradient>
        <linearGradient x1="54.5849655%" y1="46.6968975%" x2="45.0963697%" y2="59.5766369%" id="linearGradient-3">
            <stop stop-color="#EEEEEE" offset="0%"></stop>
            <stop stop-color="#545454" offset="100%"></stop>
        </linearGradient>
        <ellipse id="path-4" cx="32" cy="25.5" rx="32" ry="25.5"></ellipse>
        <ellipse id="path-6" cx="32" cy="25.5" rx="32" ry="25.5"></ellipse>
        <linearGradient x1="53.271131%" y1="16.4901498%" x2="-2.84217094e-12%" y2="80.0848575%" id="linearGradient-8">
            <stop stop-color="#FFFAA4" offset="0%"></stop>
            <stop stop-color="#8B8531" offset="100%"></stop>
        </linearGradient>
        <radialGradient cx="50%" cy="50%" fx="50%" fy="50%" r="65.5046479%" gradientTransform="translate(0.500000,0.500000),scale(0.979942,1.000000),rotate(91.134961),translate(-0.500000,-0.500000)" id="radialGradient-9">
            <stop stop-color="#091E60" offset="0%"></stop>
            <stop stop-color="#3EB6E1" offset="100%"></stop>
        </radialGradient>
        <path d="M394.5,771.589815 C480.307299,771.589815 559.566683,743.55486 623.618242,696.14486 C635.662422,687.22994 650.672745,688.261901 676,688 C680.237684,687.956179 688.237684,686.289513 700,683 C698,666.333333 699,654 703,646 C698.948095,638.940253 697.948095,634.60692 700,633 C704.490302,629.483486 716.808896,629.318191 736,625 C738.185439,624.508254 741.518772,622.508254 746,619 C742.539774,610.858096 740.539774,605.19143 740,602 C738.596092,593.699358 740.763899,588.043022 740,585 C736.220596,569.944595 733.971365,568.985427 736.235629,564.661142 C746.570984,544.92271 755.246374,524.178096 762.076425,502.612674 C765.464215,491.915958 772.221566,487.192727 778.121279,476.545083 C780.710292,471.872503 778.141601,465.785994 780.043048,457.826097 C781.296385,452.579338 786.781185,448.252552 786.781185,444.112303 C786.770717,427.65806 778.902364,418.462217 779.555745,404.761594 C779.850794,398.574758 780,392.349711 780,386.089815 C780,173.184044 607.405771,0.589814831 394.5,0.589814831 C330.661991,0.589814831 270.448191,16.1068974 217.424578,43.5750841 C209.776238,47.5372063 195.338435,50.1410774 188,54.5898148 C182.539395,57.9001665 174.246997,72.0130235 169,75.5898148 C74.4902303,140.015561 17.6112701,237.701977 9.90125137,357.716884 C9.30222095,367.04145 0,393.000803 0,402.589815 C0,417.713877 9.8709402,416.134521 11.5654023,430.804327 C33.7243693,622.645596 196.718292,771.589815 394.5,771.589815 Z" id="path-10"></path>
        <radialGradient cx="45.561851%" cy="47.5388048%" fx="45.561851%" fy="47.5388048%" r="165.421287%" gradientTransform="translate(0.455619,0.475388),scale(1.000000,0.747503),rotate(-68.116611),scale(1.000000,0.540063),translate(-0.455619,-0.475388)" id="radialGradient-12">
            <stop stop-color="#C16442" offset="0%"></stop>
            <stop stop-color="#BEB577" offset="33.8694804%"></stop>
            <stop stop-color="#3B9148" offset="44.1459138%"></stop>
            <stop stop-color="#0C6719" offset="59.3887562%"></stop>
            <stop stop-color="#000000" offset="100%"></stop>
        </radialGradient>
        <linearGradient x1="128.561958%" y1="130.958748%" x2="12.8600903%" y2="39.2719393%" id="linearGradient-13">
            <stop stop-color="#FFFFFF" offset="0%"></stop>
            <stop stop-color="#49B25E" offset="100%"></stop>
        </linearGradient>
        <linearGradient x1="48.1314588%" y1="53.2240103%" x2="70.4293477%" y2="71.692348%" id="linearGradient-14">
            <stop stop-color="#4C963E" offset="0%"></stop>
            <stop stop-color="#FFFFFF" offset="100%"></stop>
        </linearGradient>
        <filter x="-34.1%" y="-24.8%" width="168.2%" height="149.5%" filterUnits="objectBoundingBox" id="filter-15">
            <feGaussianBlur stdDeviation="6" in="SourceGraphic"></feGaussianBlur>
        </filter>
        <filter x="-1.5%" y="-5.3%" width="103.0%" height="110.6%" filterUnits="objectBoundingBox" id="filter-16">
            <feGaussianBlur stdDeviation="2" in="SourceGraphic"></feGaussianBlur>
        </filter>
        <linearGradient x1="50%" y1="0%" x2="50%" y2="100%" id="linearGradient-17">
            <stop stop-color="#FAF3E4" offset="0%"></stop>
            <stop stop-color="#CABFA7" offset="100%"></stop>
        </linearGradient>
        <linearGradient x1="50%" y1="0%" x2="50%" y2="100%" id="linearGradient-18">
            <stop stop-color="#FAF3E4" offset="0%"></stop>
            <stop stop-color="#A39983" offset="100%"></stop>
        </linearGradient>
        <linearGradient x1="46.6817225%" y1="112.914237%" x2="-3.59750306%" y2="112.914237%" id="linearGradient-19">
            <stop stop-color="#DDD1D1" offset="0%"></stop>
            <stop stop-color="#E13131" offset="100%"></stop>
        </linearGradient>
        <linearGradient x1="50%" y1="0%" x2="50%" y2="100%" id="linearGradient-20">
            <stop stop-color="#FAF3E4" offset="0%"></stop>
            <stop stop-color="#B7AF9D" offset="100%"></stop>
        </linearGradient>
        <linearGradient x1="50%" y1="0%" x2="50%" y2="100%" id="linearGradient-21">
            <stop stop-color="#FAF3E4" offset="0%"></stop>
            <stop stop-color="#ADA595" offset="100%"></stop>
        </linearGradient>
        <linearGradient x1="69.2872537%" y1="100%" x2="0%" y2="100%" id="linearGradient-22">
            <stop stop-color="#D5BFBF" offset="0%"></stop>
            <stop stop-color="#D52828" offset="100%"></stop>
        </linearGradient>
        <linearGradient x1="50%" y1="0%" x2="50%" y2="100%" id="linearGradient-23">
            <stop stop-color="#D0974D" offset="0%"></stop>
            <stop stop-color="#000000" offset="100%"></stop>
        </linearGradient>
        <linearGradient x1="50%" y1="0%" x2="50%" y2="100%" id="linearGradient-24">
            <stop stop-color="#FAF3E4" offset="0%"></stop>
            <stop stop-color="#B8AD95" offset="100%"></stop>
        </linearGradient>
        <linearGradient x1="-19.844505%" y1="96.4920703%" x2="128.395578%" y2="96.4923469%" id="linearGradient-25">
            <stop stop-color="#BFB502" offset="0%"></stop>
            <stop stop-color="#FFF588" offset="48.0779699%"></stop>
            <stop stop-color="#CBB200" offset="100%"></stop>
        </linearGradient>
        <filter x="-10.5%" y="-3.8%" width="121.1%" height="107.6%" filterUnits="objectBoundingBox" id="filter-26">
            <feGaussianBlur stdDeviation="2" in="SourceGraphic"></feGaussianBlur>
        </filter>
        <linearGradient x1="61.2307604%" y1="-30.0313301%" x2="32.7346158%" y2="130.183812%" id="linearGradient-27">
            <stop stop-color="#F17575" offset="0%"></stop>
            <stop stop-color="#5E2929" offset="100%"></stop>
        </linearGradient>
        <linearGradient x1="50%" y1="0.402172192%" x2="50%" y2="100%" id="linearGradient-28">
            <stop stop-color="#707070" offset="0%"></stop>
            <stop stop-color="#2D2D2D" offset="100%"></stop>
        </linearGradient>
        <filter x="-29.8%" y="-28.1%" width="159.5%" height="156.3%" filterUnits="objectBoundingBox" id="filter-29">
            <feGaussianBlur stdDeviation="1" in="SourceGraphic"></feGaussianBlur>
        </filter>
        <filter x="-150.0%" y="-150.0%" width="400.0%" height="400.0%" filterUnits="objectBoundingBox" id="filter-30">
            <feGaussianBlur stdDeviation="1" in="SourceGraphic"></feGaussianBlur>
        </filter>
        <filter x="-29.8%" y="-28.1%" width="159.5%" height="156.3%" filterUnits="objectBoundingBox" id="filter-31">
            <feGaussianBlur stdDeviation="1" in="SourceGraphic"></feGaussianBlur>
        </filter>
        <filter x="-150.0%" y="-150.0%" width="400.0%" height="400.0%" filterUnits="objectBoundingBox" id="filter-32">
            <feGaussianBlur stdDeviation="1" in="SourceGraphic"></feGaussianBlur>
        </filter>
        <filter x="-29.8%" y="-28.1%" width="159.5%" height="156.3%" filterUnits="objectBoundingBox" id="filter-33">
            <feGaussianBlur stdDeviation="1" in="SourceGraphic"></feGaussianBlur>
        </filter>
        <filter x="-150.0%" y="-150.0%" width="400.0%" height="400.0%" filterUnits="objectBoundingBox" id="filter-34">
            <feGaussianBlur stdDeviation="1" in="SourceGraphic"></feGaussianBlur>
        </filter>
        <filter x="-29.8%" y="-28.1%" width="159.5%" height="156.3%" filterUnits="objectBoundingBox" id="filter-35">
            <feGaussianBlur stdDeviation="1" in="SourceGraphic"></feGaussianBlur>
        </filter>
        <filter x="-150.0%" y="-150.0%" width="400.0%" height="400.0%" filterUnits="objectBoundingBox" id="filter-36">
            <feGaussianBlur stdDeviation="1" in="SourceGraphic"></feGaussianBlur>
        </filter>
        <filter x="-29.8%" y="-28.1%" width="159.5%" height="156.3%" filterUnits="objectBoundingBox" id="filter-37">
            <feGaussianBlur stdDeviation="1" in="SourceGraphic"></feGaussianBlur>
        </filter>
        <filter x="-150.0%" y="-150.0%" width="400.0%" height="400.0%" filterUnits="objectBoundingBox" id="filter-38">
            <feGaussianBlur stdDeviation="1" in="SourceGraphic"></feGaussianBlur>
        </filter>
        <filter x="-29.8%" y="-28.1%" width="159.5%" height="156.3%" filterUnits="objectBoundingBox" id="filter-39">
            <feGaussianBlur stdDeviation="1" in="SourceGraphic"></feGaussianBlur>
        </filter>
        <filter x="-150.0%" y="-150.0%" width="400.0%" height="400.0%" filterUnits="objectBoundingBox" id="filter-40">
            <feGaussianBlur stdDeviation="1" in="SourceGraphic"></feGaussianBlur>
        </filter>
        <filter x="-29.8%" y="-28.1%" width="159.5%" height="156.3%" filterUnits="objectBoundingBox" id="filter-41">
            <feGaussianBlur stdDeviation="1" in="SourceGraphic"></feGaussianBlur>
        </filter>
        <filter x="-150.0%" y="-150.0%" width="400.0%" height="400.0%" filterUnits="objectBoundingBox" id="filter-42">
            <feGaussianBlur stdDeviation="1" in="SourceGraphic"></feGaussianBlur>
        </filter>
        <filter x="-29.8%" y="-28.1%" width="159.5%" height="156.3%" filterUnits="objectBoundingBox" id="filter-43">
            <feGaussianBlur stdDeviation="1" in="SourceGraphic"></feGaussianBlur>
        </filter>
        <filter x="-150.0%" y="-150.0%" width="400.0%" height="400.0%" filterUnits="objectBoundingBox" id="filter-44">
            <feGaussianBlur stdDeviation="1" in="SourceGraphic"></feGaussianBlur>
        </filter>
        <filter x="-29.8%" y="-28.1%" width="159.5%" height="156.3%" filterUnits="objectBoundingBox" id="filter-45">
            <feGaussianBlur stdDeviation="1" in="SourceGraphic"></feGaussianBlur>
        </filter>
        <filter x="-150.0%" y="-150.0%" width="400.0%" height="400.0%" filterUnits="objectBoundingBox" id="filter-46">
            <feGaussianBlur stdDeviation="1" in="SourceGraphic"></feGaussianBlur>
        </filter>
        <filter x="-1.5%" y="-3.4%" width="103.0%" height="106.8%" filterUnits="objectBoundingBox" id="filter-47">
            <feGaussianBlur stdDeviation="2" in="SourceGraphic"></feGaussianBlur>
        </filter>
        <linearGradient x1="39.9886883%" y1="51.483829%" x2="38.9579014%" y2="46.9960426%" id="linearGradient-48">
            <stop stop-color="#D8B0B0" offset="0%"></stop>
            <stop stop-color="#D8D8D8" offset="100%"></stop>
        </linearGradient>
        <linearGradient x1="39.3799565%" y1="49.9058084%" x2="38.9579014%" y2="48.465313%" id="linearGradient-49">
            <stop stop-color="#CDAFAF" offset="0%"></stop>
            <stop stop-color="#B7B7B7" offset="100%"></stop>
        </linearGradient>
        <linearGradient x1="38.1622942%" y1="51.066499%" x2="38.9579014%" y2="48.1324625%" id="linearGradient-50">
            <stop stop-color="#BC7A7A" offset="0%"></stop>
            <stop stop-color="#929292" offset="100%"></stop>
        </linearGradient>
        <path d="M22.6251863,51.866183 L50.7434015,18.4690877 C39.8298782,17.3346975 31.2298486,15.6234464 24.9433128,13.3353345 C18.656777,11.0472226 10.3423394,6.60211109 1.81188398e-13,5.75539616e-13 L8.52979702,46.7358809 L22.6251863,51.866183 Z" id="path-51"></path>
        <linearGradient x1="50%" y1="99.1140005%" x2="50%" y2="0%" id="linearGradient-53">
            <stop stop-color="#777777" offset="0%"></stop>
            <stop stop-color="#D26161" offset="100%"></stop>
        </linearGradient>
    </defs>
    <g id="Desktop-HD" stroke="none" stroke-width="1" fill="none" fill-rule="evenodd">
        <g id="image" transform="translate(264.235245, 130.974899)">
            <g id="forest" transform="translate(585.762249, 824.304566)">
                <g id="tree" transform="translate(43.110516, 0.000000)">
                    <rect id="Rectangle" fill="#463A34" transform="translate(7.431733, 6.717832) rotate(-35.000000) translate(-7.431733, -6.717832) " x="5.9317334" y="0.217831906" width="3" height="13"></rect>
                    <path d="M20.559415,47.8026296 C22.9041118,47.8026296 30.9734879,46.2020218 32.2184041,44.7294589 C32.7216529,44.1341854 27.9575091,42.8816396 28.1003892,41.6562882 C28.1567826,41.1726547 30.8973224,40.3711482 30.8457325,39.6075077 C30.7961576,38.8736939 28.4275132,38.0029085 28.1003892,36.5343369 C27.9953865,36.0629435 29.6468597,35.1925341 29.4730609,34.4855564 C29.3652364,34.0469492 26.9161207,33.1380426 26.7277176,32.436776 C26.6155738,32.0193583 28.2797955,32.0960913 28.1003892,31.4123857 C27.961159,30.8817883 26.9982567,30.3796777 26.7277176,29.3636052 C26.6571809,29.0986879 28.1930303,28.7064854 28.1003892,28.339215 C27.9371543,27.6920789 25.8118938,27.8368896 25.355046,26.2904345 C25.1984278,25.760273 26.7277176,25.2523896 26.7277176,24.241654 C26.7277176,23.5864171 24.3567791,21.5677041 23.9823744,20.144093 C23.835708,19.5864185 25.7000855,19.0746578 25.355046,18.0953125 C25.182349,17.6051366 22.8337546,16.9289385 22.6097028,16.0465321 C22.4599101,15.4565879 24.4571311,15.2209476 23.9823744,13.9977516 C23.8475086,13.650274 22.8183281,12.4918583 22.6097028,11.9489711 C22.4274516,11.4747146 23.1110499,11.0187989 22.6097028,9.90019059 C22.3119227,9.23578187 21.3968083,7.86992821 19.8643596,5.80262961 C19.0454889,6.84115555 18.1303744,8.54847262 17.1190164,10.9245808 C16.8472554,11.5630624 16.000034,13.2226256 15.7463448,13.9977516 C15.5310534,14.6555562 15.9647678,16.3477577 15.7463448,17.0709223 C15.4764203,17.9646003 14.61768,19.1704257 14.3736732,20.144093 C14.1604786,20.9948092 13.2029951,23.3498608 13.0010016,24.241654 C12.8197544,25.0418528 14.528479,25.4755358 14.3736732,26.2904345 C14.2717207,26.8271128 11.5827979,28.2206606 11.62833,29.3636052 C11.6649817,30.2836368 13.0673391,30.9786621 13.0010016,31.4123857 C12.878734,32.2117867 11.7107822,33.7007651 11.62833,34.4855564 C11.4723969,35.9697476 13.0473935,35.1439129 13.0010016,36.5343369 C12.9792822,37.1852919 11.6156149,38.9851494 11.62833,39.6075077 C11.662171,41.2639151 12.6840969,41.3083227 13.0010016,42.6806784 C13.1734753,43.4275757 10.2556584,43.7050686 10.2556584,44.7294589 C10.2556584,45.7538491 17.4369775,47.8026296 20.559415,47.8026296 Z" id="Oval" fill="url(#linearGradient-1)" transform="translate(21.255658, 26.802630) scale(1, -1) rotate(34.000000) translate(-21.255658, -26.802630) "></path>
                </g>
                <g id="tree" transform="translate(18.860851, 14.898111)">
                    <rect id="Rectangle" fill="#463A34" transform="translate(7.431733, 6.717832) rotate(-35.000000) translate(-7.431733, -6.717832) " x="5.9317334" y="0.217831906" width="3" height="13"></rect>
                    <path d="M20.559415,47.8026296 C22.9041118,47.8026296 30.9734879,46.2020218 32.2184041,44.7294589 C32.7216529,44.1341854 27.9575091,42.8816396 28.1003892,41.6562882 C28.1567826,41.1726547 30.8973224,40.3711482 30.8457325,39.6075077 C30.7961576,38.8736939 28.4275132,38.0029085 28.1003892,36.5343369 C27.9953865,36.0629435 29.6468597,35.1925341 29.4730609,34.4855564 C29.3652364,34.0469492 26.9161207,33.1380426 26.7277176,32.436776 C26.6155738,32.0193583 28.2797955,32.0960913 28.1003892,31.4123857 C27.961159,30.8817883 26.9982567,30.3796777 26.7277176,29.3636052 C26.6571809,29.0986879 28.1930303,28.7064854 28.1003892,28.339215 C27.9371543,27.6920789 25.8118938,27.8368896 25.355046,26.2904345 C25.1984278,25.760273 26.7277176,25.2523896 26.7277176,24.241654 C26.7277176,23.5864171 24.3567791,21.5677041 23.9823744,20.144093 C23.835708,19.5864185 25.7000855,19.0746578 25.355046,18.0953125 C25.182349,17.6051366 22.8337546,16.9289385 22.6097028,16.0465321 C22.4599101,15.4565879 24.4571311,15.2209476 23.9823744,13.9977516 C23.8475086,13.650274 22.8183281,12.4918583 22.6097028,11.9489711 C22.4274516,11.4747146 23.1110499,11.0187989 22.6097028,9.90019059 C22.3119227,9.23578187 21.3968083,7.86992821 19.8643596,5.80262961 C19.0454889,6.84115555 18.1303744,8.54847262 17.1190164,10.9245808 C16.8472554,11.5630624 16.000034,13.2226256 15.7463448,13.9977516 C15.5310534,14.6555562 15.9647678,16.3477577 15.7463448,17.0709223 C15.4764203,17.9646003 14.61768,19.1704257 14.3736732,20.144093 C14.1604786,20.9948092 13.2029951,23.3498608 13.0010016,24.241654 C12.8197544,25.0418528 14.528479,25.4755358 14.3736732,26.2904345 C14.2717207,26.8271128 11.5827979,28.2206606 11.62833,29.3636052 C11.6649817,30.2836368 13.0673391,30.9786621 13.0010016,31.4123857 C12.878734,32.2117867 11.7107822,33.7007651 11.62833,34.4855564 C11.4723969,35.9697476 13.0473935,35.1439129 13.0010016,36.5343369 C12.9792822,37.1852919 11.6156149,38.9851494 11.62833,39.6075077 C11.662171,41.2639151 12.6840969,41.3083227 13.0010016,42.6806784 C13.1734753,43.4275757 10.2556584,43.7050686 10.2556584,44.7294589 C10.2556584,45.7538491 17.4369775,47.8026296 20.559415,47.8026296 Z" id="Oval" fill="url(#linearGradient-1)" transform="translate(21.255658, 26.802630) scale(1, -1) rotate(34.000000) translate(-21.255658, -26.802630) "></path>
                </g>
                <g id="tree" transform="translate(0.000000, 26.485532)">
                    <rect id="Rectangle" fill="#463A34" transform="translate(7.431733, 6.717832) rotate(-35.000000) translate(-7.431733, -6.717832) " x="5.9317334" y="0.217831906" width="3" height="13"></rect>
                    <path d="M20.559415,47.8026296 C22.9041118,47.8026296 30.9734879,46.2020218 32.2184041,44.7294589 C32.7216529,44.1341854 27.9575091,42.8816396 28.1003892,41.6562882 C28.1567826,41.1726547 30.8973224,40.3711482 30.8457325,39.6075077 C30.7961576,38.8736939 28.4275132,38.0029085 28.1003892,36.5343369 C27.9953865,36.0629435 29.6468597,35.1925341 29.4730609,34.4855564 C29.3652364,34.0469492 26.9161207,33.1380426 26.7277176,32.436776 C26.6155738,32.0193583 28.2797955,32.0960913 28.1003892,31.4123857 C27.961159,30.8817883 26.9982567,30.3796777 26.7277176,29.3636052 C26.6571809,29.0986879 28.1930303,28.7064854 28.1003892,28.339215 C27.9371543,27.6920789 25.8118938,27.8368896 25.355046,26.2904345 C25.1984278,25.760273 26.7277176,25.2523896 26.7277176,24.241654 C26.7277176,23.5864171 24.3567791,21.5677041 23.9823744,20.144093 C23.835708,19.5864185 25.7000855,19.0746578 25.355046,18.0953125 C25.182349,17.6051366 22.8337546,16.9289385 22.6097028,16.0465321 C22.4599101,15.4565879 24.4571311,15.2209476 23.9823744,13.9977516 C23.8475086,13.650274 22.8183281,12.4918583 22.6097028,11.9489711 C22.4274516,11.4747146 23.1110499,11.0187989 22.6097028,9.90019059 C22.3119227,9.23578187 21.3968083,7.86992821 19.8643596,5.80262961 C19.0454889,6.84115555 18.1303744,8.54847262 17.1190164,10.9245808 C16.8472554,11.5630624 16.000034,13.2226256 15.7463448,13.9977516 C15.5310534,14.6555562 15.9647678,16.3477577 15.7463448,17.0709223 C15.4764203,17.9646003 14.61768,19.1704257 14.3736732,20.144093 C14.1604786,20.9948092 13.2029951,23.3498608 13.0010016,24.241654 C12.8197544,25.0418528 14.528479,25.4755358 14.3736732,26.2904345 C14.2717207,26.8271128 11.5827979,28.2206606 11.62833,29.3636052 C11.6649817,30.2836368 13.0673391,30.9786621 13.0010016,31.4123857 C12.878734,32.2117867 11.7107822,33.7007651 11.62833,34.4855564 C11.4723969,35.9697476 13.0473935,35.1439129 13.0010016,36.5343369 C12.9792822,37.1852919 11.6156149,38.9851494 11.62833,39.6075077 C11.662171,41.2639151 12.6840969,41.3083227 13.0010016,42.6806784 C13.1734753,43.4275757 10.2556584,43.7050686 10.2556584,44.7294589 C10.2556584,45.7538491 17.4369775,47.8026296 20.559415,47.8026296 Z" id="Oval" fill="url(#linearGradient-1)" transform="translate(21.255658, 26.802630) scale(1, -1) rotate(34.000000) translate(-21.255658, -26.802630) "></path>
                </g>
                <g id="tree" transform="translate(9.492054, 21.396238)">
                    <rect id="Rectangle" fill="#5F4E46" transform="translate(7.431733, 6.717832) rotate(-35.000000) translate(-7.431733, -6.717832) " x="5.9317334" y="0.217831906" width="3" height="13"></rect>
                    <path d="M20.559415,47.8026296 C22.9041118,47.8026296 30.9734879,46.2020218 32.2184041,44.7294589 C32.7216529,44.1341854 27.9575091,42.8816396 28.1003892,41.6562882 C28.1567826,41.1726547 30.8973224,40.3711482 30.8457325,39.6075077 C30.7961576,38.8736939 28.4275132,38.0029085 28.1003892,36.5343369 C27.9953865,36.0629435 29.6468597,35.1925341 29.4730609,34.4855564 C29.3652364,34.0469492 26.9161207,33.1380426 26.7277176,32.436776 C26.6155738,32.0193583 28.2797955,32.0960913 28.1003892,31.4123857 C27.961159,30.8817883 26.9982567,30.3796777 26.7277176,29.3636052 C26.6571809,29.0986879 28.1930303,28.7064854 28.1003892,28.339215 C27.9371543,27.6920789 25.8118938,27.8368896 25.355046,26.2904345 C25.1984278,25.760273 26.7277176,25.2523896 26.7277176,24.241654 C26.7277176,23.5864171 24.3567791,21.5677041 23.9823744,20.144093 C23.835708,19.5864185 25.7000855,19.0746578 25.355046,18.0953125 C25.182349,17.6051366 22.8337546,16.9289385 22.6097028,16.0465321 C22.4599101,15.4565879 24.4571311,15.2209476 23.9823744,13.9977516 C23.8475086,13.650274 22.8183281,12.4918583 22.6097028,11.9489711 C22.4274516,11.4747146 23.1110499,11.0187989 22.6097028,9.90019059 C22.3119227,9.23578187 21.3968083,7.86992821 19.8643596,5.80262961 C19.0454889,6.84115555 18.1303744,8.54847262 17.1190164,10.9245808 C16.8472554,11.5630624 16.000034,13.2226256 15.7463448,13.9977516 C15.5310534,14.6555562 15.9647678,16.3477577 15.7463448,17.0709223 C15.4764203,17.9646003 14.61768,19.1704257 14.3736732,20.144093 C14.1604786,20.9948092 13.2029951,23.3498608 13.0010016,24.241654 C12.8197544,25.0418528 14.528479,25.4755358 14.3736732,26.2904345 C14.2717207,26.8271128 11.5827979,28.2206606 11.62833,29.3636052 C11.6649817,30.2836368 13.0673391,30.9786621 13.0010016,31.4123857 C12.878734,32.2117867 11.7107822,33.7007651 11.62833,34.4855564 C11.4723969,35.9697476 13.0473935,35.1439129 13.0010016,36.5343369 C12.9792822,37.1852919 11.6156149,38.9851494 11.62833,39.6075077 C11.662171,41.2639151 12.6840969,41.3083227 13.0010016,42.6806784 C13.1734753,43.4275757 10.2556584,43.7050686 10.2556584,44.7294589 C10.2556584,45.7538491 17.4369775,47.8026296 20.559415,47.8026296 Z" id="Oval" fill="url(#linearGradient-2)" transform="translate(21.255658, 26.802630) scale(1, -1) rotate(34.000000) translate(-21.255658, -26.802630) "></path>
                </g>
                <g id="tree" transform="translate(31.047312, 8.153472)">
                    <rect id="Rectangle" fill="#5F4E46" transform="translate(7.431733, 6.717832) rotate(-35.000000) translate(-7.431733, -6.717832) " x="5.9317334" y="0.217831906" width="3" height="13"></rect>
                    <path d="M20.559415,47.8026296 C22.9041118,47.8026296 30.9734879,46.2020218 32.2184041,44.7294589 C32.7216529,44.1341854 27.9575091,42.8816396 28.1003892,41.6562882 C28.1567826,41.1726547 30.8973224,40.3711482 30.8457325,39.6075077 C30.7961576,38.8736939 28.4275132,38.0029085 28.1003892,36.5343369 C27.9953865,36.0629435 29.6468597,35.1925341 29.4730609,34.4855564 C29.3652364,34.0469492 26.9161207,33.1380426 26.7277176,32.436776 C26.6155738,32.0193583 28.2797955,32.0960913 28.1003892,31.4123857 C27.961159,30.8817883 26.9982567,30.3796777 26.7277176,29.3636052 C26.6571809,29.0986879 28.1930303,28.7064854 28.1003892,28.339215 C27.9371543,27.6920789 25.8118938,27.8368896 25.355046,26.2904345 C25.1984278,25.760273 26.7277176,25.2523896 26.7277176,24.241654 C26.7277176,23.5864171 24.3567791,21.5677041 23.9823744,20.144093 C23.835708,19.5864185 25.7000855,19.0746578 25.355046,18.0953125 C25.182349,17.6051366 22.8337546,16.9289385 22.6097028,16.0465321 C22.4599101,15.4565879 24.4571311,15.2209476 23.9823744,13.9977516 C23.8475086,13.650274 22.8183281,12.4918583 22.6097028,11.9489711 C22.4274516,11.4747146 23.1110499,11.0187989 22.6097028,9.90019059 C22.3119227,9.23578187 21.3968083,7.86992821 19.8643596,5.80262961 C19.0454889,6.84115555 18.1303744,8.54847262 17.1190164,10.9245808 C16.8472554,11.5630624 16.000034,13.2226256 15.7463448,13.9977516 C15.5310534,14.6555562 15.9647678,16.3477577 15.7463448,17.0709223 C15.4764203,17.9646003 14.61768,19.1704257 14.3736732,20.144093 C14.1604786,20.9948092 13.2029951,23.3498608 13.0010016,24.241654 C12.8197544,25.0418528 14.528479,25.4755358 14.3736732,26.2904345 C14.2717207,26.8271128 11.5827979,28.2206606 11.62833,29.3636052 C11.6649817,30.2836368 13.0673391,30.9786621 13.0010016,31.4123857 C12.878734,32.2117867 11.7107822,33.7007651 11.62833,34.4855564 C11.4723969,35.9697476 13.0473935,35.1439129 13.0010016,36.5343369 C12.9792822,37.1852919 11.6156149,38.9851494 11.62833,39.6075077 C11.662171,41.2639151 12.6840969,41.3083227 13.0010016,42.6806784 C13.1734753,43.4275757 10.2556584,43.7050686 10.2556584,44.7294589 C10.2556584,45.7538491 17.4369775,47.8026296 20.559415,47.8026296 Z" id="Oval" fill="url(#linearGradient-2)" transform="translate(21.255658, 26.802630) scale(1, -1) rotate(34.000000) translate(-21.255658, -26.802630) "></path>
                </g>
            </g>
            <g id="plane" transform="translate(774.128655, 771.921316) scale(-1, -1) rotate(293.000000) translate(-774.128655, -771.921316) translate(570.628655, 700.421316)">
                <path d="M6.23617399,97.3011896 C10.4761134,100.290954 12.889577,102.972764 13.4765648,105.346619 L15.9148345,115.207297 C85.864981,88.7654538 149.324257,64.9154586 206.292663,43.6573118 C205.412181,40.0965296 111.161394,57.6384244 6.23617399,97.3011896 Z" id="Oval" fill="#919191" transform="translate(106.264419, 79.207297) rotate(-523.000000) translate(-106.264419, -79.207297) "></path>
                <path d="M134.738148,97.8037026 C134.606357,98.0720364 134.378198,98.2665052 134.078001,98.405993 C133.699285,98.5819653 133.215472,98.6716433 132.644731,98.6959446 C131.317321,98.7524638 129.553083,98.4489351 127.500459,97.8755674 C122.908339,96.5928323 116.908719,93.9558607 111.096255,90.7888985 C105.522234,87.7518531 100.119886,84.2268864 96.2982904,80.9331839 C93.4393101,78.4691266 91.4256303,76.1548292 91.0445365,74.2848868 C98.4165681,75.7037927 103.403499,75.7811375 106.028159,74.6040813 C110.230963,72.7192902 114.574141,68.1427628 119.022379,60.8268862 C122.601945,62.4463869 126.241258,68.5355136 129.159763,75.2776337 C133.202547,84.6169822 135.920251,95.3968887 134.738148,97.8037026 Z" id="Oval" stroke="#979797" fill="#B3B3B3"></path>
                <path d="M295.769963,118.216896 C295.769963,119.252895 295.500374,120.486779 294.648705,121.52107 C293.986604,122.325145 292.975045,123.001461 291.488697,123.386971 C288.975385,124.038841 285.165636,123.862705 279.472363,122.132934 C277.454872,121.519966 274.853618,121.439488 271.971066,121.359136 C268.882662,121.273045 265.46349,121.181194 262.112277,120.362428 C242.630706,115.6027 195.259534,89.9630105 159.151654,63.6076629 C144.81966,53.1466587 132.261973,42.5727362 123.934623,33.1427621 C116.872985,25.1460927 112.819544,17.9915399 113.494749,12.4537049 C113.832715,12.3070049 114.059834,12.3033368 114.338036,12.3215408 C115.198015,12.3778132 116.453147,12.5964556 118.021598,12.943982 C121.556043,13.7271197 126.652678,15.1633804 132.402672,16.9243148 C147.220445,21.4622545 166.369533,28.1555779 174.342324,31.4185307 C185.513005,35.9902555 204.538394,53.743454 217.302419,65.6369676 C220.274699,68.4065366 222.908449,70.8606084 225.02664,72.7612642 C233.683709,80.5292634 258.573349,101.791443 275.102859,102.355747 C280.592722,102.543167 289.205874,99.758211 297.336413,97.1134209 C306.250297,94.2138157 314.678686,91.3048801 317.297999,93.2827802 C317.995487,93.8094689 320.248856,94.5499361 324.084275,95.4639299 C305.014303,109.603424 295.769963,117.194234 295.769963,118.216896 Z" id="Oval" stroke="#C8C8C8" fill="url(#linearGradient-3)"></path>
                <path d="M301.514445,114.680539 C324.592808,114.680539 333.548343,105.474758 333.548343,103.680539 C333.548343,101.88632 311.626706,103.680539 288.548343,103.680539 C290.551831,105.351587 291.823018,106.761843 292.361903,107.911308 C294.034266,111.478531 297.085113,113.734942 301.514445,114.680539 Z" id="Oval-Copy-3" fill="#919191"></path>
                <path d="M358.627271,29.2699233 C253.406205,81.750971 201.08843,109.181147 201.673945,111.560452 C263.092619,87.2440221 328.743728,61.8138459 398.627271,35.2699233 C390.748564,31.1920128 384.748564,28.8586794 380.627271,28.2699233 C371.293938,26.93659 363.960605,27.2699233 358.627271,29.2699233 Z" id="Oval" fill="#919191" transform="translate(300.148178, 69.515188) rotate(-523.000000) translate(-300.148178, -69.515188) "></path>
                <path d="M262.020256,68.5149049 C265.315829,67.8618397 267.617529,66.0757911 268.934837,63.1684009 C270.189817,60.398575 270.539069,56.575984 269.945659,51.6924895 C270.501909,51.2549449 271.07066,51.1135686 271.650394,51.2572067 C272.422947,51.4486189 273.185659,52.0860712 273.948292,53.0218153 C275.843995,55.3478279 277.66562,59.5049544 279.210579,64.2430808 C281.231677,70.4414446 282.768394,77.6355511 283.33151,83.1053997 C283.597259,85.6867594 283.647847,87.8789044 283.42109,89.3870054 C283.324936,90.0265021 283.184327,90.5343844 282.97385,90.8743435 C282.857705,91.061939 282.722581,91.2013308 282.528706,91.2013308 C277.548983,91.2013308 267.425828,86.1378262 259.020946,80.1402656 C252.274572,75.3261835 246.528927,69.8941838 245.674699,65.938745 C250.555827,68.8453182 256.003693,69.7071734 262.020256,68.5149049 Z" id="Oval-Copy-2" stroke="#979797" fill="#B3B3B3"></path>
                <g id="prop_l" transform="translate(67.970427, 41.156969)">
                    <mask id="mask-5" fill="white">
                        <use xlink:href="#path-4"></use>
                    </mask>
                    <use id="Oval-Copy-4" fill="#E7E7E7" opacity="0.7" xlink:href="#path-4"></use>
                    <polygon id="Rectangle" fill="#FFFFFF" opacity="0.463795381" mask="url(#mask-5)" points="33.875565 -12.1442297 69.8435843 -3.2390861 -0.642653999 49.4552229 27.9916859 68.6665367"></polygon>
                    <circle id="Oval" stroke="#979797" fill="#D8D8D8" mask="url(#mask-5)" cx="31.6249599" cy="24.2897487" r="1"></circle>
                    <path d="M11.0006216,24.5264239 C11.0006216,20.0838645 13.2061938,16.1229019 16.6467128,13.3620744 C20.2615087,10.4613994 25.2294489,8.86788689 30.6600589,9.28406595 C36.663536,9.74414713 42.1678128,11.4755293 46.0243655,14.5145693 C49.0641104,16.9099485 51.0006216,20.1612159 51.0006216,24.2357503 C51.0006216,28.5732578 48.575194,32.5546294 45.2700607,35.5679864 C41.5488893,38.9606536 36.6013236,41.2185357 31.9861218,41.2185357 C27.1478089,41.2185357 21.4735973,38.8744749 17.1858418,35.3235067 C13.7110071,32.4457709 11.0006216,28.7074877 11.0006216,24.5264239 Z" id="Oval" stroke="#FFFFFF" stroke-width="8" opacity="0.340448357" mask="url(#mask-5)"></path>
                </g>
                <g id="prop_r" transform="translate(227.679763, 34.195020)">
                    <mask id="mask-7" fill="white">
                        <use xlink:href="#path-6"></use>
                    </mask>
                    <use id="Oval" fill="#E7E7E7" opacity="0.7" xlink:href="#path-6"></use>
                    <polygon id="Rectangle" fill="#FFFFFF" opacity="0.463795381" mask="url(#mask-7)" points="33.6923864 -13.9232867 69.6604058 -5.01814313 -0.825832593 47.6761659 27.8085073 66.8874797"></polygon>
                    <circle id="Oval" stroke="#979797" fill="#D8D8D8" mask="url(#mask-7)" cx="31.436362" cy="23.9150713" r="1"></circle>
                    <path d="M11.7158987,24.1602672 C11.7158987,19.7177078 13.9214709,15.7567451 17.3619899,12.9959177 C20.9767857,10.0952426 25.9447259,8.50173012 31.375336,8.91790919 C37.378813,9.37799037 42.8830898,11.1093725 46.7396426,14.1484125 C49.7793875,16.5437917 51.7158987,19.7950592 51.7158987,23.8695935 C51.7158987,28.207101 49.2904711,32.1884726 45.9853378,35.2018296 C42.2641664,38.5944969 37.3166007,40.8523789 32.7013989,40.8523789 C27.863086,40.8523789 22.1888744,38.5083181 17.9011188,34.9573499 C14.4262842,32.0796141 11.7158987,28.3413309 11.7158987,24.1602672 Z" id="Oval" stroke="#FFFFFF" stroke-width="8" opacity="0.340448357" mask="url(#mask-7)"></path>
                </g>
                <path d="M125.382049,34.1170507 C129.251769,34.8103412 133.432292,29.1171768 137.923617,17.0375575 C120.515217,12.4124033 111.297334,10.6399055 110.269968,11.720064 C108.72892,13.3403018 119.57747,33.077115 125.382049,34.1170507 Z" id="Oval" fill="url(#linearGradient-8)"></path>
                <g id="mouth" opacity="0.389837287" transform="translate(116.513827, 16.337896)" stroke="#000000" stroke-linecap="round" stroke-width="2">
                    <path d="M0.248676461,2.63455364 C2.02357428,1.97847142 3.79847209,1.32238919 5.57336991,0.666306964" id="Path-2"></path>
                    <path d="M5.57336991,0.666306964 C6.02076138,2.9377154 6.46815285,5.20912384 6.91554432,7.48053227" id="Path-3"></path>
                    <path d="M6.91554432,7.48053227 C8.64017676,7.07144753 10.3648092,6.66236278 12.0894416,6.25327804" id="Path-4"></path>
                    <path d="M12.0894416,6.25327804 C12.3111742,8.23145751 12.5329067,10.209637 12.7546392,12.1878165" id="Path-5"></path>
                    <path d="M12.7546392,12.1878165 C14.5277171,11.522605 16.300795,10.8573935 18.0738729,10.192182" id="Path-6"></path>
                    <path d="M18.445556,10.268897 C18.8458588,12.4408184 19.2461616,14.6127397 19.6464644,16.7846611" id="Path-7"></path>
                    <path d="M19.600757,16.8776522 C22.3968573,16.0734312 26.3510312,16.4002227 29.1471315,15.5960016 L19.600757,16.8776522 Z" id="Path-8"></path>
                    <path d="M29.1471315,15.5960016 C29.6161715,18.6539002 30.0852115,21.7117988 30.5542516,24.7696974" id="Path-9"></path>
                    <path d="M4.78356053,9.79731901 C10.4744265,13.2343264 20.7946307,26.6538819 28.5242584,32.1541415 C29.3560894,32.746057 33.810716,29.5766421 41.8881381,22.6458967 C36.284302,13.6127898 15.1302116,1.994524 13.1746085,0.273296912" id="Path"></path>
                </g>
                <path d="M147.513755,22.1800751 L156.464968,24.7976011 L165.735644,28.6776229 C168.43174,33.8042189 168.484533,35.9117429 165.894024,35.0001949 C163.303514,34.0886468 157.176758,29.8152736 147.513755,22.1800751 Z" id="Rectangle" fill="#ABABAB"></path>
                <path d="M184.21585,68.9251423 C183.831267,69.4802971 183.260974,69.8325247 182.64514,69.9541424 C182.029308,70.0757597 181.367935,69.9667686 180.801188,69.5994864 L174.332694,65.4075561 C173.753349,65.0321177 173.381031,64.4573956 173.24741,63.8316978 C173.113788,63.2059976 173.218865,62.5293214 173.59431,61.9499782 C173.706169,61.7773719 173.8389,61.6192293 173.989495,61.4791358 C176.272805,59.3550552 177.893806,57.4655068 178.860852,55.8167221 C179.7933,54.2269266 180.609178,52.0239957 181.299668,49.2040146 C181.463858,48.533469 181.884296,47.9929536 182.431323,47.6611217 C182.978349,47.3292904 183.651964,47.2061418 184.322509,47.3703289 C184.567056,47.4302076 184.801154,47.5266835 185.016882,47.6564915 L190.103377,50.717147 C190.57426,51.0004891 190.924998,51.4209866 191.124701,51.9039379 C191.324404,52.3868886 191.373072,52.9322928 191.239816,53.4654488 C190.337293,57.0764275 189.450266,59.8324315 188.574088,61.7316863 C187.739958,63.5397936 186.285907,65.9369115 184.21585,68.9251423 Z" id="Rectangle" stroke="#B5B5B5"></path>
            </g>
            <g id="world" transform="translate(-0.000000, 142.000000)">
                <mask id="mask-11" fill="white">
                    <use xlink:href="#path-10"></use>
                </mask>
                <use id="Oval" fill="url(#radialGradient-9)" xlink:href="#path-10"></use>
                <path d="M528.563332,763.250847 C528.715923,762.55048 529.376992,761.728791 530.364535,760.666147 C532.955729,757.8779 537.761927,753.560744 543.52897,748.378626 C554.9905,738.079586 570.231995,724.379652 579.509415,712.463856 C582.843131,708.182076 585.408576,704.126014 586.771002,700.536722 C588.036942,697.201617 588.261876,694.260197 587.188845,691.881152 C577.808713,671.084229 571.547308,641.511638 575.496105,610.062291 C576.042887,605.707557 575.589213,598.358287 575.104404,590.587534 C574.445534,580.026864 573.717171,568.674501 575.476413,563.151759 C576.247969,560.729634 577.736625,559.224698 579.635143,558.249533 C582.337872,556.861289 585.842958,556.519128 589.325282,556.165287 C594.602526,555.629064 599.781159,555.026483 602.409069,551.287511 C607.290171,544.342715 610.298854,534.760577 613.083523,525.862746 C615.364608,518.574013 617.491151,511.749097 620.418439,507.273694 C625.864959,498.946749 634.312107,499.271681 639.868371,499.451964 C640.636635,499.476892 641.352002,499.5 642,499.5 C642.124689,499.5 642.581642,499.453365 643.30188,499.376207 C647.472548,498.929413 660.914909,497.47773 668.877793,499.484836 C673.962947,500.766587 678.11332,503.398568 682.546934,506.199975 C685.957205,508.354776 689.531415,510.61117 693.801434,512.458881 C700.960681,515.55681 709.561061,517.884857 717.881753,520.135191 C723.125173,521.553275 728.25681,522.94079 732.841403,524.47418 C735.457342,525.349123 737.634478,525.238016 740.377427,523.301817 C742.912598,521.512284 745.96356,518.093344 750.396972,512.303996 C750.685275,511.927516 750.822213,511.50874 750.820951,511.05025 C750.819779,510.624773 750.694466,510.158659 750.43989,509.657868 C749.966538,508.726706 749.025472,507.647316 747.703281,506.451367 C744.484942,503.540312 738.971883,499.873405 732.786357,495.763158 C723.233467,489.415317 712.064404,482.001282 705.369371,474.663006 C704.523123,473.735452 704.048775,472.789783 703.870464,471.839532 C703.670833,470.775665 703.841675,469.711531 704.244906,468.673022 C705.470529,465.516465 708.790369,462.596451 711.084415,460.55877 C712.17156,459.593116 713.039219,458.811667 713.408536,458.288268 C713.466834,458.205648 713.76792,457.258506 714.232363,455.656834 C716.589449,447.528227 724.038516,421.716153 731.354697,414.352406 C734.084935,411.604418 739.30991,411.540365 744.650975,411.403892 C750.126598,411.26398 755.742728,411.078495 759.300757,408.399431 C768.275638,401.641679 774.792615,398.64899 779.700876,397.78455 C786.769628,396.539605 790.411806,399.781915 793.248198,402.284863 C794.675316,403.54421 795.922277,404.613555 797.249478,404.975619 C798.73754,405.381567 799.901929,406.085623 800.777343,407.049562 C801.709699,408.076203 802.313146,409.392885 802.648139,410.937 C803.422486,414.506262 802.773731,419.259366 801.282642,424.560307 C796.262876,442.405972 781.642124,466.380188 777.614155,472.988167 C776.814839,474.299463 776.498835,475.024044 776.504303,475.065457 C776.862283,477.776412 781.831016,486.597065 788.432652,498.238032 C798.125545,515.329953 811.306352,538.566741 818.178526,557.389182 C822.710217,569.801188 824.5793,580.31841 820.59797,585.702726 C798.022563,616.23351 739.877774,631.276784 696.038491,642.662204 C678.72741,647.158033 663.631711,651.081032 653.790122,655.142709 C649.832272,656.776135 646.716919,658.437082 644.630074,660.160625 C642.566464,661.864979 641.5,663.643596 641.5,665.5 C641.5,679.649648 625.229382,698.698308 604.995315,716.223631 C576.082767,741.265643 538.908554,763.250847 528.563332,763.250847 Z" id="Oval" stroke="#979797" fill="#B7B69C" mask="url(#mask-11)"></path>
                <path d="M76.5,469.589815 C135.309498,469.589815 121.231969,401.722957 129,335.589815 C132.356876,307.01105 106.456396,288.953766 114,260.589815 C124.332106,221.741098 152.769419,203.172697 182.581984,189.269731 C189.543916,186.023062 176.101127,177.526493 183,174.589815 C190.81263,171.264173 217.268755,192.636494 226,189.589815 C256.429854,178.971626 281,142.199656 281,112.589815 C281,96.9906972 275.479642,79.1376828 266.208738,62.0214304 C264.969313,59.7331622 244.784463,90.1168297 234.393192,81.5170761 C234.142262,81.3094078 233.290908,96.6220315 226,100.589815 C225.184408,101.033668 218.430738,101.704447 217,102.589815 C215.878932,103.283553 220.135503,104.209727 219,104.589815 C213.795178,106.332028 207.967625,106.690852 204,108.589815 C201.613375,109.732088 205.660249,112.103526 203,112.589815 C201.147471,112.928454 190.877923,111.725279 188,111.589815 C185.050991,111.451005 182.050991,111.117672 179,110.589815 C196.673671,108.356689 206.673671,106.690023 209,105.589815 C211.346684,104.479981 199.575183,102.303568 200,101.589815 C200.210027,101.23694 206.047597,102.955163 206,102.589815 C205.979073,102.429183 219.802484,100.100125 218,99.5898148 C212.107862,97.9216635 184.262298,96.9177934 181,96.5898148 C175.384163,96.0252208 185.059952,99.9036651 177,98.5898148 C175.471236,98.3406115 175.471236,97.3406115 177,95.5898148 C202.266187,97.5313 215.266187,97.8646333 216,96.5898148 C216.654829,95.4522113 218,94.5898148 206,89.5898148 C194,84.5898148 186.036338,86.6034227 182,85.5898148 C179.486438,84.9586075 185.459201,83.5646909 186,83.5898148 C195.628459,84.0371249 209.18122,88.6981777 216,92.5898148 C218.591458,94.0688204 221.880603,91.760932 221.163449,94.4568866 C219,102.589815 225.401485,95.986841 226,95.5898148 C232.700354,91.1451245 230.849502,75.9000926 230.71835,75.5182684 C229.993002,73.4065494 229.410135,70.7888712 229,67.5898148 C228.898818,66.8005984 226.717077,54.7800612 219,51.5898148 C217.573033,50.9999054 197.348526,49.5806185 189,51.5898148 C179.162868,53.9572662 180.979185,59.8570569 179,59.5898148 C168.11268,58.11974 186.356074,48.6370454 186,46.5898148 C185.420879,43.2601859 225.937572,49.7257612 226,48.5898148 C227.436841,22.4449528 258.043615,48.5323912 256.54237,46.3820824 C237.956476,19.7605653 210.90537,-2.457224 183,-7.41018517 C147.880072,-13.6436677 100.975169,31.586911 76.5,31.5898148 C-7.72342434,31.5898148 -76,129.639455 -76,250.589815 C-76,371.540175 -7.72342434,469.589815 76.5,469.589815 Z" id="Oval" fill="url(#radialGradient-12)" mask="url(#mask-11)"></path>
                <path d="M313,192 C318.216544,190.18555 308.835975,184.832029 311,182 C312.902924,179.50967 325.39694,192.477188 327,190 C331.611692,182.873609 324,160.876562 324,158.5 C324,156.64958 315.728783,156.620396 311,152 C305.143477,146.277712 302.111242,136 296,136 C289.854851,136 291.591236,145.537378 286,155 C281.541181,162.546117 269,170.162295 269,172 C269,175.857772 266.466414,195.841477 286,192 C287.439859,191.716837 311.421015,192.549212 313,192 Z" id="Oval" fill="url(#linearGradient-13)" mask="url(#mask-11)"></path>
                <path d="M395,525.589815 C402.245839,525.589815 428.397865,540.537525 435,535.589815 C437.275556,533.884489 460.634449,560.597201 462.297774,558.025604 C464.358017,554.840349 492.328836,550.065376 488.845573,545.055855 C486.327987,541.43514 464.456815,548.024959 454.663833,543.787523 C447.233556,540.572432 450.930736,529.603772 449.997317,522.901556 C449.496491,519.305485 443.365661,519.158705 443.102917,517.116467 C440.485447,496.771564 457.691449,473.656834 465,469.589815 C476.547014,463.164201 494.4347,436.815524 509.406794,447.432926 C517.875471,453.438456 536.001927,463.914624 545.410883,477.643944 C548.638515,482.353627 544.008224,490.060246 546.889965,494.549929 C550.511362,500.191978 556.926008,501.570334 558.627145,507.009407 C561.089487,514.882291 543.269469,532.190019 546.11466,534.366997 C548.94174,536.530116 563.060531,516.355595 565,512.589815 C574.441036,494.258578 541,400.522606 541,386.089815 C541,382.105968 537.385937,369.94896 543.607055,367.781547 C545.386991,367.161425 553.984065,365.101095 557.695375,366.548979 C562.600383,368.462557 562.748093,373.994809 564.589775,372.334067 C569.7266,367.701922 568.528911,359.287575 569.265552,352.760179 C569.805014,347.979999 573.171096,344.809147 571.863206,341.885797 C564.075585,324.479182 512.819675,310.993415 510,292.589815 C503.103417,247.576842 511.901029,203.589815 465,203.589815 C441.574755,203.589815 417.450833,177.200704 389.447875,179.683309 C372.021183,181.228273 367.649021,199.025765 356.17268,213.116247 C354.127642,215.627114 353.467234,224.161463 350.237831,226.41202 C346.471064,229.037064 340.051412,225.289689 336.792298,226.878544 C324.251533,232.99231 309.032284,250.014885 296.622703,254.526393 C290.374532,256.797918 280.661476,244.34929 275.270212,245.747377 C257.385938,250.385207 249,266.983434 249,285.589815 C249,289.87482 201.651487,398.90989 201.998085,403.589815 C206.798141,468.020574 291.659321,561.670974 348,577.589815 C349.621914,578.04808 355.254556,584.851395 358.237709,585.584683 C365.305293,587.321962 371.65473,582.303716 376.455773,574.763307 C380.179328,568.915176 363.747362,574.237704 365.73115,565.764281 C368.86058,552.397439 389.84798,525.589815 395,525.589815 Z" id="Oval" fill="#FFFFFF" mask="url(#mask-11)"></path>
                <path d="M718.5,680 C752.465512,680 780,647.98836 780,608.5 C780,572.382735 819.421395,482.406808 792,477 C791.476209,476.896722 797.39069,407.81237 780,403 C765.800504,399.0707 728.180555,458.623014 724,463 C715.439802,471.962413 774.596543,506.080064 767,517 C760.647905,526.131059 736.829582,533 736,533 C723.74701,533 655.588381,509.819918 646,517 C629.009213,529.723235 594,582.756987 594,608 C594,621.572437 599.423812,671.142684 592.542573,699.949148 C588.905857,715.173284 534.220551,749.238586 542.5549,753.299242 C569.476249,766.415845 701.478287,680 718.5,680 Z" id="Oval" fill="url(#linearGradient-14)" mask="url(#mask-11)"></path>
                <path d="M773.535662,488.917156 C785.133641,488.917156 798,456.313708 798,453 C798,449.686292 792.266572,424.410402 780.668593,424.410402 C778.358465,424.410402 774.406809,421.649377 772.735131,422.975066 C769.431132,425.595235 768.942756,434.000891 764.995176,439.977804 C763.309429,442.530145 759.661513,449.159225 755.353362,451.468471 C752.751026,452.86337 749.394682,449.873133 747.543158,451.441968 C745.036578,453.565843 745.614028,457.204404 745.341778,458.732642 C744.525732,463.313385 747.301933,475.513589 751.540383,480.904184 C753.499035,483.395259 757.912658,484.146531 760.60966,487.208803 C762.895817,489.804588 763.432878,494.909059 765.575697,495.292025 C768.709792,495.852152 770.797516,488.917156 773.535662,488.917156 Z" id="Oval" fill="#EBC657" opacity="0.861661305" filter="url(#filter-15)" mask="url(#mask-11)"></path>
                <path d="M286.414379,693.410709 C320.869775,705.951447 358.006054,705.278911 397.823217,691.393099 C416.227038,687.1223 411.900535,679.517241 384.843707,668.577921 C378.887854,666.169916 326.745147,676.164575 304.192524,667.956091 C289.493724,662.606165 275.26506,662.007261 266.007147,652.993573 C249.070557,636.503772 249.891567,603.176059 237.315417,603.176059 C185.676793,603.176059 197.067565,628.965795 205.777,645.970081 C214.486435,662.974367 234.731285,674.599601 286.414379,693.410709 Z" id="Oval" fill="#FFFFDB" mask="url(#mask-11)"></path>
                <path d="M302.727722,709.990058 C313.051338,709.990058 348.571695,715.432051 364.156665,707.872276 C386.924315,696.82841 392.189714,690.970906 391.076084,683.616454 C389.20015,671.227715 327.170084,683.768483 301.798383,674.53394 C297.791355,673.075501 266.584283,664.037632 261.3916,659.827073 C241.015335,643.304696 240.486756,617.393835 226.802611,617.439982 C221.89336,617.457492 216.19866,640.554449 216.19866,646.571205 C216.19866,656.204443 219.166348,665.181254 230.288474,675.110905 C250.410922,693.075897 286.366073,709.990058 302.727722,709.990058 Z" id="Oval" fill="#33942F" mask="url(#mask-11)"></path>
                <path d="M647.744794,675.719293 C652.749798,675.719293 646.507251,664.474539 652.744794,660.719293 C657.144916,658.070246 674.549719,663.272516 676.744794,660.719293 C681.395623,655.309635 676.744794,638.086818 676.744794,630.219293 C676.744794,623.936632 702.840837,604.571575 699.744794,599.719293 C699.318773,599.05161 695.87098,585.062168 700,581 C702.011558,579.02101 708.011558,579.02101 718,581 C712.041255,562.733808 707.374588,551.733808 704,548 C687.201779,529.413635 674.441012,533.843663 672,534 C659.752224,534.784423 647.693561,548 642,548 C625.983742,548 603,595.155315 603,612 C603,624.217433 598.136469,685.131438 608,690 C611.735731,691.843928 643.345113,675.719293 647.744794,675.719293 Z" id="Oval" fill="#4D963F" mask="url(#mask-11)"></path>
                <path d="M500.433053,767.841728 C508.143785,767.841728 526.00175,776.409878 560.635073,775.299781 C580.991554,774.647298 623.094692,770.196058 686.944486,761.94606 C640.509955,745.820697 592.676542,729.655128 543.444247,713.449353 C472.992142,690.258662 385.842577,673.026332 281.995549,661.752364 C303.623741,686.213947 319.263397,702.86931 328.914519,711.718455 C339.993721,721.877011 378.439637,725.364258 390.063828,732.639492 C403.403581,740.988445 424.008462,766.281252 436.837495,771.406237 C464.192908,782.334269 482.039953,767.841728 500.433053,767.841728 Z" id="Oval" fill="#000000" opacity="0.2" filter="url(#filter-16)" mask="url(#mask-11)"></path>
            </g>
            <g id="ship" transform="translate(248.000000, -0.000000)">
                <g id="Group-2-Copy" transform="translate(44.000000, 32.000000)">
                    <rect id="Rectangle-Copy" fill="#665949" x="135" y="9" width="6" height="159"></rect>
                    <path d="M167.158388,68.5 L107.146123,68.5 C99.4063936,61.6758574 95.5,54.6343923 95.5,47.3492063 C95.5,40.0508749 100.355974,32.7829286 109.939312,25.5 L176.336111,25.5 C164.851454,33.2237039 159.211864,40.5286505 159.211864,47.3492063 C159.211864,54.1768585 161.850856,61.2299041 167.158388,68.5 Z" id="Rectangle" stroke="#D6CCBC" fill="url(#linearGradient-17)"></path>
                    <path d="M172.912121,127.5 L98.8857432,127.5 C89.3184617,118.929768 84.5,110.083625 84.5,100.936508 C84.5,91.7764046 90.4821003,82.6453931 102.3229,73.5 L184.3546,73.5 C170.067602,83.2020829 163.025424,92.3692005 163.025424,100.936508 C163.025424,109.510363 166.311401,118.367542 172.912121,127.5 Z" id="Rectangle-Copy-2" stroke="#D6CCBC" fill="url(#linearGradient-18)"></path>
                    <path d="M1.13709677,18 C14.0149095,18.6178832 24.2487805,18.6178832 31.8387097,18 C56.9383406,15.9566817 81.7772145,0.103562907 99.354736,0.103562907 C124.905212,0.103562907 138.786967,2.26224531 141,6.57961011 L141,15.8311061 C136.775118,10.8969749 122.893363,8.42990931 99.354736,8.42990931 C83.541308,8.42990931 57.1627924,23.780853 32.3601808,26.0077517 C24.2824416,26.7330103 13.4957146,26.7304264 0,26 L6.82258065,21 L1.13709677,18 Z" id="Rectangle" fill="url(#linearGradient-19)"></path>
                </g>
                <g id="Group-2">
                    <rect id="Rectangle-Copy" fill="#665949" x="150" y="11" width="7" height="159"></rect>
                    <path d="M194.139592,80.5 L121.595166,80.5 C112.222834,72.2472668 107.5,63.7296452 107.5,54.9206349 C107.5,46.0984724 113.36455,37.3067621 124.964653,28.5 L205.331598,28.5 C191.351368,37.8423777 184.466102,46.6715824 184.466102,54.9206349 C184.466102,63.1768837 187.680559,71.7061737 194.139592,80.5 Z" id="Rectangle" stroke="#D6CCBC" fill="url(#linearGradient-20)"></path>
                    <path d="M194.007008,147.5 L108.189369,147.5 C97.0870913,137.659935 91.5,127.501915 91.5,117 C91.5,106.485001 98.4319314,95.9999032 112.168988,85.5 L207.338526,85.5 C190.709655,96.6410185 182.5,107.163349 182.5,117 C182.5,126.843633 186.325696,137.013104 194.007008,147.5 Z" id="Rectangle-Copy-2" stroke="#D6CCBC" fill="url(#linearGradient-21)"></path>
                    <path d="M0,7 C16.2830785,17.0012072 28.6164118,21.6678739 37,21 C64.7242335,18.7913644 91.5844432,0 111,0 C139.222222,0 154.555556,2.33333333 157,7 L157,17 C152.333333,11.6666667 137,9 111,9 C93.5330033,9 64.3961556,25.5929312 37,28 C28.0775928,28.7839366 15.7442594,25.1172699 0,17 L8,17 L0,7 Z" id="Rectangle" fill="url(#linearGradient-22)"></path>
                </g>
                <path d="M101,153 C123.275157,156.104637 141.941823,160.437971 157,166 C160.635622,167.342887 163.982544,188.217435 168,190 C171.84641,191.706671 180.555122,193.13823 194.126135,194.294678 C196.708712,188.098226 202.666667,188 212,194 L186,225 L123,255 L101,153 Z" id="Rectangle" fill="url(#linearGradient-23)"></path>
                <path d="M91,174 C89.0037361,164.744595 92.3370695,157.744595 101,153 L123,255 C103.662931,210.255405 92.9962639,183.255405 91,174 Z" id="Rectangle" fill="#644725"></path>
                <path d="M106,224 C105.574584,206.668281 106.574584,196.334948 109,193 C110.942803,190.328645 112.845512,185.455386 115,184 C115.970651,183.344312 116.00094,187.420724 117,187 C118.255507,186.471281 119.705212,179.257581 121,179 C121.704448,178.859859 125.289752,184.036046 126,184 C127.837179,183.906761 130.256103,180.669809 132,181 C133.77778,181.336607 139.378911,186.188601 141,187 C149.585338,191.297198 151.910634,196.86595 154,200 C147.401282,194.091247 143.067949,191.424581 141,192 C130.549417,194.907937 132.456018,198.752386 144,207 C144.546737,207.390617 144.270756,210.465049 145,211 C145.491527,211.360569 148.506829,210.342439 149,211 C151,213.666667 154.666667,216.333333 160,219 C159.681107,213.128133 160.014441,209.128133 161,207 C161.418725,206.095841 162.424787,206.86282 163,206 C163.460592,205.309112 163.47416,202.495002 164,202 C164.907401,201.145813 166.931991,203.304003 168,203 C168.610458,202.826237 169.360372,200.044781 170,200 C171.206533,199.915529 175.741899,202.626668 177,203 C178.413467,203.419435 177.774247,201.322095 179,202 C184.691693,205.147801 190.243515,212.991963 191,213 C184.00269,210.848648 180.00269,210.181981 179,211 C175.279323,214.035419 178.22159,215.051973 185,219 C185.844138,219.491661 185.937289,222.191386 187,223 C188.344423,224.022968 190.692037,223.190309 192,224 C193.175587,224.727744 194.631165,226.018834 197,226 C198.004386,225.992014 199.148966,223.384154 201,223 C202.064927,222.77899 203.797877,224.285589 206,224 C207.858832,223.758932 211.525499,222.758932 217,221 L207,251 L116,251 L106,224 Z" id="Rectangle" fill="#FFFFFF"></path>
                <path d="M105,226 C105.907917,212.001614 107.574584,203.334948 110,200 C126,178 150,194 154,200 C148.067949,198.757914 144.067949,198.424581 142,199 C127.677482,202.985327 134.010816,211.985327 161,226 C160.393954,221.242402 161.393954,216.909068 164,213 C172,201 189.646285,212.985618 191,213 C185.336024,212.181981 182.00269,212.181981 181,213 C176.229798,216.891646 182.356025,224.410873 193,231 C196.385436,233.095746 205.385436,228.762413 220,218 L208,258 L117,258 L105,226 Z" id="Rectangle" fill="#2872A4"></path>
                <polygon id="Rectangle" fill="#665949" points="44 123 101 153 102 159 46 127"></polygon>
                <path d="M147.540346,23.2836848 C121.569252,55.9763831 104.906116,81.153123 97.5385691,98.8074344 C90.1555044,116.498929 89.6341968,132.519289 95.9362018,146.871066 L46.6570894,120.782124 C54.8720435,103.556984 65.7684085,88.4163261 79.3465544,75.3604165 C92.6927384,62.5275473 115.426085,45.1669953 147.540346,23.2836848 Z" id="Rectangle" stroke="#D6CCBC" fill="url(#linearGradient-24)"></path>
                <path d="M159.579451,66.5 L141.402983,66.5 L136.881615,45.7017081 L147.259601,57.0231478 L150.930187,42.3408031 L153.704269,57.1359026 L163.186994,45.7566327 L159.579451,66.5 Z" id="Rectangle" stroke="#D2C358" fill="url(#linearGradient-25)"></path>
                <path d="M145.579451,128.5 L127.402983,128.5 L122.881615,107.701708 L133.259601,119.023148 L136.930187,104.340803 L139.704269,119.135903 L149.186994,107.756633 L145.579451,128.5 Z" id="Rectangle-Copy-3" stroke="#D2C358" fill="url(#linearGradient-25)"></path>
            </g>
            <g id="rock" transform="translate(38.000000, 312.000000)">
                <path d="M5.93266412,158 C14.2927066,154.17977 27.6042182,140.020663 34.8767871,118.907216 C38.792548,107.539128 37.1948797,91.2027597 39.8671531,78.185567 C41.9362431,68.1066049 52.8682789,40.1591432 54.8382512,30.9484536 C59.702186,8.20691889 54.8382512,7.60107471 54.8382512,0 C44.192137,3.25773196 35.2094782,8.68728522 27.8902746,16.2886598 C16.9114694,27.6907216 3.75971191,65.4794121 0.942298087,87.9587629 C-1.87511574,110.438114 2.16826166,158 5.93266412,158 Z" id="Oval-Copy" fill="#000000" opacity="0.198564597" filter="url(#filter-26)"></path>
                <path d="M5.93266412,97 C14.2927066,94.6546691 27.6042182,85.9620527 34.8767871,73 C38.792548,66.0208568 37.1948797,55.9915676 39.8671531,48 C41.9362431,41.8122827 52.8682789,24.6546638 54.8382512,19 C59.702186,5.03842489 54.8382512,4.66648258 54.8382512,0 C44.192137,2 35.2094782,5.33333333 27.8902746,10 C16.9114694,17 3.75971191,40.1993859 0.942298087,54 C-1.87511574,67.8006141 2.16826166,97 5.93266412,97 Z" id="Oval" fill="url(#linearGradient-27)"></path>
                <path d="M28.9934552,50.6347281 C28.924112,48.4573428 29.8637077,41.8797114 28.9934552,40.2089375 C27.5591416,37.4552383 25.7560072,51.1311943 23.016916,51.1311943 C18.6159141,51.1311943 16.044287,34.4509324 16.044287,40.2089375 C16.044287,41.9498942 13.341371,47.9383251 12.0599275,53.1170591 C11.229158,56.4744716 6.32029495,51.3537563 7.07947822,53.1170591 C7.89450366,55.0100628 8.5709275,82.2308397 13.0560174,83.8979645 C18.0081573,85.7386937 32.9214232,62.205991 34.9699943,51.1311943 C35.4887738,48.3266168 29.1102954,54.3035277 28.9934552,50.6347281 Z" id="Oval" fill="#613636" opacity="0.366094612"></path>
            </g>
            <g id="natives" transform="translate(116.000000, 230.000000) rotate(-45.000000) translate(-116.000000, -230.000000) translate(96.000000, 181.000000)" fill="#000000">
                <path d="M8.98098459,98 C9.15524091,98 12.3174564,76.9378896 13.3453575,65.2133012 C13.3924488,64.676162 13.9311472,63.9383949 14.9614527,63 C16.409734,62.8289207 17.0742304,63.162254 16.954942,64 C16.6312328,66.2733651 15.3022399,69.2733651 12.9679633,73 L13,76 C13.6666667,74.6666667 14.6406901,72.9827232 15.9220702,70.9481697 C17.9636262,67.7066219 21.2981508,65.3905653 25.9256441,64 C26.2366267,63.3551822 25.5721302,60.6885155 23.9321548,56 C24.0712032,54.3339869 14.836656,51.6141314 14.9614527,50 C15.4965594,43.0788776 15.0039764,43.0762249 14.9614527,40 C14.9090628,36.2100472 11.6680482,30.7529459 11.7868472,30.6963807 C12.6713951,30.2752103 13.4054574,31.1060059 13.964708,30 C14.5673539,28.8081728 14.9614527,25.6360694 14.9614527,24 C14.9614527,20.1340068 15.9581973,17 10.4761016,17 C4.99400588,17 5.99075056,20.1340068 5.99075056,24 C5.99075056,27.2009796 7.98423991,28 7.98423991,30 C7.98423991,32 2.70908333,41.1999343 3.00051652,45 C3.0725201,45.9388715 0.859903704,68.532265 1.00702717,70 C1.10497505,70.9771489 5.86598009,47.8392555 5.99075056,49 C6.44652541,53.2400915 4.61866366,60.7501539 4.99400588,67 C5.19895339,70.4125934 5.65046646,72.7233877 6,76 C6.32447507,79.0417081 5.65309705,83.2573142 6,86 C6.95251084,93.5307459 8.87862601,98 8.98098459,98 Z" id="Oval"></path>
                <path d="M1.5,0 C2.5,3.77777778 3,5.77777778 3,6 C3,6.22222222 2.66666667,6.55555556 2,7 L2,98 L1,98 L1,7 C0.333333333,6.55555556 0,6.22222222 0,6 C0,5.77777778 0.5,3.77777778 1.5,0 Z" id="Rectangle"></path>
                <path d="M32,89 C32.1785429,89 32.960004,81.6842265 33.9140376,73.6242911 C34.1610946,71.537086 34.4197245,69.3999771 34.6824537,67.3270871 C35.121822,63.8605443 35.572655,60.5736004 36,58 C36.1342137,57.1917249 38.9086366,70.8961255 39,70 C39.1132864,68.8888458 39.4852585,59.9577854 39,56 C38.9154097,55.3100786 38.248743,52.9767452 37,49 C34.2101308,45.4505309 32.8399473,43.6624183 32.8894496,43.6356621 C33.6128657,43.2446523 33.4889845,42.4176771 34,42 C34.7642304,41.3753584 36,40.9979992 36,39 C36,34.8578644 36.4852814,31 34,31 C32.8524638,31 28.8358321,29.6006174 28,32 C27.0256251,34.7970906 27.831842,36.485555 28,37 C28.2187755,37.6692988 28.5805558,41.4595433 29,42 C29.7179843,42.9251275 29.6230833,43.4491348 30.4004249,43.7744912 C30.4394001,43.7908042 26.4984181,48.3607513 25,52 C24.6302294,52.898072 23.7808503,57.1683898 24,60 C24.4957225,66.4051771 26.8570727,66.4138945 27,67 C27.0849756,67.3484614 27.2711227,64.3392776 27.5584413,57.9724486 C30.3537654,78.6574829 31.834285,89 32,89 Z" id="Oval"></path>
            </g>
            <g id="breakers" transform="translate(611.564971, 751.177670) rotate(135.000000) translate(-611.564971, -751.177670) translate(550.564971, 703.677670)">
                <g id="breaker" transform="translate(0.362175, 67.137825)">
                    <polygon id="Rectangle-Copy-4" fill="#4B4B4B" points="5.47710375 2.91421356 19.7928932 21.9142136 17.5560511 21.9142136 2.79289322 2.91421356"></polygon>
                    <polygon id="Rectangle" fill="#303030" points="5.20641257 3.50663363 9.19119136 3.15801066 15.6538125 19.6575418 13.6614231 19.8318533"></polygon>
                    <polygon id="Rectangle" fill="#464646" points="13.1519661 2.91421356 15.9644661 2.91421356 3.77696609 21.9142136 0.964466094 21.9142136"></polygon>
                    <polygon id="Rectangle-Copy-4" fill="url(#linearGradient-28)" points="11.0092693 0.991309777 10.1995787 26.1576445 7.21099465 26.4191117 9.01687988 1.16562126"></polygon>
                </g>
                <g id="breaker-copy" transform="translate(39.444733, 53.807703)">
                    <polygon id="Rectangle-Copy-4" fill="#4B4B4B" points="5.47710375 2.91421356 19.7928932 21.9142136 17.5560511 21.9142136 2.79289322 2.91421356"></polygon>
                    <polygon id="Rectangle" fill="#303030" points="5.20641257 3.50663363 9.19119136 3.15801066 15.6538125 19.6575418 13.6614231 19.8318533"></polygon>
                    <polygon id="Rectangle" fill="#464646" points="13.1519661 2.91421356 15.9644661 2.91421356 3.77696609 21.9142136 0.964466094 21.9142136"></polygon>
                    <polygon id="Rectangle-Copy-4" fill="url(#linearGradient-28)" points="11.0092693 0.991309777 10.1995787 26.1576445 7.21099465 26.4191117 9.01687988 1.16562126"></polygon>
                </g>
                <g id="breaker-copy-4" transform="translate(16.221113, 40.782209)">
                    <polygon id="Rectangle-Copy-4" fill="#4B4B4B" points="5.47710375 2.91421356 19.7928932 21.9142136 17.5560511 21.9142136 2.79289322 2.91421356"></polygon>
                    <polygon id="Rectangle" fill="#303030" points="5.20641257 3.50663363 9.19119136 3.15801066 15.6538125 19.6575418 13.6614231 19.8318533"></polygon>
                    <polygon id="Rectangle" fill="#464646" points="13.1519661 2.91421356 15.9644661 2.91421356 3.77696609 21.9142136 0.964466094 21.9142136"></polygon>
                    <polygon id="Rectangle-Copy-4" fill="url(#linearGradient-28)" points="11.0092693 0.991309777 10.1995787 26.1576445 7.21099465 26.4191117 9.01687988 1.16562126"></polygon>
                </g>
                <g id="breaker-copy-2" transform="translate(81.272717, 27.060372)">
                    <polygon id="Rectangle-Copy-4" fill="#4B4B4B" points="5.47710375 2.91421356 19.7928932 21.9142136 17.5560511 21.9142136 2.79289322 2.91421356"></polygon>
                    <polygon id="Rectangle" fill="#303030" points="5.20641257 3.50663363 9.19119136 3.15801066 15.6538125 19.6575418 13.6614231 19.8318533"></polygon>
                    <polygon id="Rectangle" fill="#464646" points="13.1519661 2.91421356 15.9644661 2.91421356 3.77696609 21.9142136 0.964466094 21.9142136"></polygon>
                    <polygon id="Rectangle-Copy-4" fill="url(#linearGradient-28)" points="11.0092693 0.991309777 10.1995787 26.1576445 7.21099465 26.4191117 9.01687988 1.16562126"></polygon>
                </g>
                <g id="breaker-copy-3" transform="translate(52.121604, 26.599305)">
                    <polygon id="Rectangle-Copy-4" fill="#4B4B4B" points="5.47710375 2.91421356 19.7928932 21.9142136 17.5560511 21.9142136 2.79289322 2.91421356"></polygon>
                    <polygon id="Rectangle" fill="#303030" points="5.20641257 3.50663363 9.19119136 3.15801066 15.6538125 19.6575418 13.6614231 19.8318533"></polygon>
                    <polygon id="Rectangle" fill="#464646" points="13.1519661 2.91421356 15.9644661 2.91421356 3.77696609 21.9142136 0.964466094 21.9142136"></polygon>
                    <polygon id="Rectangle-Copy-4" fill="url(#linearGradient-28)" points="11.0092693 0.991309777 10.1995787 26.1576445 7.21099465 26.4191117 9.01687988 1.16562126"></polygon>
                </g>
                <g id="breaker-copy-5" transform="translate(101.010107, 0.238078)">
                    <polygon id="Rectangle-Copy-4" fill="#4B4B4B" points="5.47710375 2.91421356 19.7928932 21.9142136 17.5560511 21.9142136 2.79289322 2.91421356"></polygon>
                    <polygon id="Rectangle" fill="#303030" points="5.20641257 3.50663363 9.19119136 3.15801066 15.6538125 19.6575418 13.6614231 19.8318533"></polygon>
                    <polygon id="Rectangle" fill="#464646" points="13.1519661 2.91421356 15.9644661 2.91421356 3.77696609 21.9142136 0.964466094 21.9142136"></polygon>
                    <polygon id="Rectangle-Copy-4" fill="url(#linearGradient-28)" points="11.0092693 0.991309777 10.1995787 26.1576445 7.21099465 26.4191117 9.01687988 1.16562126"></polygon>
                </g>
            </g>
            <g id="poppies" transform="translate(654.086630, 682.103806)" fill="#000000" opacity="0.353482594">
                <g id="poppy" transform="translate(20.774564, 0.330305)">
                    <path d="M4.73998372,10.646641 C7.55764783,10.4001273 6.11716029,8.68295544 7.31113416,7.58246319 C8.34839315,6.62641591 9.48601066,8.10199397 10.0055414,5.92711747 C10.5250722,3.75224097 8.10179045,4.63602524 6.94136366,3.35596703 C5.72224942,2.01117113 7.3376376,-0.227741518 4.5199735,0.0187721488 C1.70230939,0.265285816 3.69150422,2.49348868 2.7148675,3.72573753 C1.81893312,4.85616207 -0.226053435,2.56341915 0.0204602314,5.38108325 C0.266973898,8.19874736 2.77614368,6.07704624 3.72742561,7.18618925 C4.76015526,8.39029586 1.92231962,10.8931546 4.73998372,10.646641 Z" id="Oval" filter="url(#filter-29)"></path>
                    <circle id="Oval" filter="url(#filter-30)" cx="5.24950479" cy="5.51426914" r="1"></circle>
                </g>
                <g id="poppy-copy" transform="translate(14.687362, 9.492054)">
                    <path d="M4.73998372,10.646641 C7.55764783,10.4001273 6.11716029,8.68295544 7.31113416,7.58246319 C8.34839315,6.62641591 9.48601066,8.10199397 10.0055414,5.92711747 C10.5250722,3.75224097 8.10179045,4.63602524 6.94136366,3.35596703 C5.72224942,2.01117113 7.3376376,-0.227741518 4.5199735,0.0187721488 C1.70230939,0.265285816 3.69150422,2.49348868 2.7148675,3.72573753 C1.81893312,4.85616207 -0.226053435,2.56341915 0.0204602314,5.38108325 C0.266973898,8.19874736 2.77614368,6.07704624 3.72742561,7.18618925 C4.76015526,8.39029586 1.92231962,10.8931546 4.73998372,10.646641 Z" id="Oval" filter="url(#filter-31)"></path>
                    <circle id="Oval" filter="url(#filter-32)" cx="5.24950479" cy="5.51426914" r="1"></circle>
                </g>
                <g id="poppy-copy-2" transform="translate(9.598068, 0.000000)">
                    <path d="M4.73998372,10.646641 C7.55764783,10.4001273 6.11716029,8.68295544 7.31113416,7.58246319 C8.34839315,6.62641591 9.48601066,8.10199397 10.0055414,5.92711747 C10.5250722,3.75224097 8.10179045,4.63602524 6.94136366,3.35596703 C5.72224942,2.01117113 7.3376376,-0.227741518 4.5199735,0.0187721488 C1.70230939,0.265285816 3.69150422,2.49348868 2.7148675,3.72573753 C1.81893312,4.85616207 -0.226053435,2.56341915 0.0204602314,5.38108325 C0.266973898,8.19874736 2.77614368,6.07704624 3.72742561,7.18618925 C4.76015526,8.39029586 1.92231962,10.8931546 4.73998372,10.646641 Z" id="Oval" filter="url(#filter-33)"></path>
                    <circle id="Oval" filter="url(#filter-34)" cx="5.24950479" cy="5.51426914" r="1"></circle>
                </g>
                <g id="poppy-copy-3" transform="translate(26.970576, 11.966451)">
                    <path d="M4.73998372,10.646641 C7.55764783,10.4001273 6.11716029,8.68295544 7.31113416,7.58246319 C8.34839315,6.62641591 9.48601066,8.10199397 10.0055414,5.92711747 C10.5250722,3.75224097 8.10179045,4.63602524 6.94136366,3.35596703 C5.72224942,2.01117113 7.3376376,-0.227741518 4.5199735,0.0187721488 C1.70230939,0.265285816 3.69150422,2.49348868 2.7148675,3.72573753 C1.81893312,4.85616207 -0.226053435,2.56341915 0.0204602314,5.38108325 C0.266973898,8.19874736 2.77614368,6.07704624 3.72742561,7.18618925 C4.76015526,8.39029586 1.92231962,10.8931546 4.73998372,10.646641 Z" id="Oval" filter="url(#filter-35)"></path>
                    <circle id="Oval" filter="url(#filter-36)" cx="5.24950479" cy="5.51426914" r="1"></circle>
                </g>
                <g id="poppy-copy-4" transform="translate(17.725036, 19.873409)">
                    <path d="M4.73998372,10.646641 C7.55764783,10.4001273 6.11716029,8.68295544 7.31113416,7.58246319 C8.34839315,6.62641591 9.48601066,8.10199397 10.0055414,5.92711747 C10.5250722,3.75224097 8.10179045,4.63602524 6.94136366,3.35596703 C5.72224942,2.01117113 7.3376376,-0.227741518 4.5199735,0.0187721488 C1.70230939,0.265285816 3.69150422,2.49348868 2.7148675,3.72573753 C1.81893312,4.85616207 -0.226053435,2.56341915 0.0204602314,5.38108325 C0.266973898,8.19874736 2.77614368,6.07704624 3.72742561,7.18618925 C4.76015526,8.39029586 1.92231962,10.8931546 4.73998372,10.646641 Z" id="Oval" filter="url(#filter-37)"></path>
                    <circle id="Oval" filter="url(#filter-38)" cx="5.24950479" cy="5.51426914" r="1"></circle>
                </g>
                <g id="poppy-copy-5" transform="translate(4.032989, 17.522269)">
                    <path d="M4.73998372,10.646641 C7.55764783,10.4001273 6.11716029,8.68295544 7.31113416,7.58246319 C8.34839315,6.62641591 9.48601066,8.10199397 10.0055414,5.92711747 C10.5250722,3.75224097 8.10179045,4.63602524 6.94136366,3.35596703 C5.72224942,2.01117113 7.3376376,-0.227741518 4.5199735,0.0187721488 C1.70230939,0.265285816 3.69150422,2.49348868 2.7148675,3.72573753 C1.81893312,4.85616207 -0.226053435,2.56341915 0.0204602314,5.38108325 C0.266973898,8.19874736 2.77614368,6.07704624 3.72742561,7.18618925 C4.76015526,8.39029586 1.92231962,10.8931546 4.73998372,10.646641 Z" id="Oval" filter="url(#filter-39)"></path>
                    <circle id="Oval" filter="url(#filter-40)" cx="5.24950479" cy="5.51426914" r="1"></circle>
                </g>
                <g id="poppy-copy-6" transform="translate(9.245540, 28.423155)">
                    <path d="M4.73998372,10.646641 C7.55764783,10.4001273 6.11716029,8.68295544 7.31113416,7.58246319 C8.34839315,6.62641591 9.48601066,8.10199397 10.0055414,5.92711747 C10.5250722,3.75224097 8.10179045,4.63602524 6.94136366,3.35596703 C5.72224942,2.01117113 7.3376376,-0.227741518 4.5199735,0.0187721488 C1.70230939,0.265285816 3.69150422,2.49348868 2.7148675,3.72573753 C1.81893312,4.85616207 -0.226053435,2.56341915 0.0204602314,5.38108325 C0.266973898,8.19874736 2.77614368,6.07704624 3.72742561,7.18618925 C4.76015526,8.39029586 1.92231962,10.8931546 4.73998372,10.646641 Z" id="Oval" filter="url(#filter-41)"></path>
                    <circle id="Oval" filter="url(#filter-42)" cx="5.24950479" cy="5.51426914" r="1"></circle>
                </g>
                <g id="poppy-copy-8" transform="translate(0.000000, 36.330113)">
                    <path d="M4.73998372,10.646641 C7.55764783,10.4001273 6.11716029,8.68295544 7.31113416,7.58246319 C8.34839315,6.62641591 9.48601066,8.10199397 10.0055414,5.92711747 C10.5250722,3.75224097 8.10179045,4.63602524 6.94136366,3.35596703 C5.72224942,2.01117113 7.3376376,-0.227741518 4.5199735,0.0187721488 C1.70230939,0.265285816 3.69150422,2.49348868 2.7148675,3.72573753 C1.81893312,4.85616207 -0.226053435,2.56341915 0.0204602314,5.38108325 C0.266973898,8.19874736 2.77614368,6.07704624 3.72742561,7.18618925 C4.76015526,8.39029586 1.92231962,10.8931546 4.73998372,10.646641 Z" id="Oval" filter="url(#filter-43)"></path>
                    <circle id="Oval" filter="url(#filter-44)" cx="5.24950479" cy="5.51426914" r="1"></circle>
                </g>
                <g id="poppy-copy-7" transform="translate(18.957604, 33.961730)">
                    <path d="M4.73998372,10.646641 C7.55764783,10.4001273 6.11716029,8.68295544 7.31113416,7.58246319 C8.34839315,6.62641591 9.48601066,8.10199397 10.0055414,5.92711747 C10.5250722,3.75224097 8.10179045,4.63602524 6.94136366,3.35596703 C5.72224942,2.01117113 7.3376376,-0.227741518 4.5199735,0.0187721488 C1.70230939,0.265285816 3.69150422,2.49348868 2.7148675,3.72573753 C1.81893312,4.85616207 -0.226053435,2.56341915 0.0204602314,5.38108325 C0.266973898,8.19874736 2.77614368,6.07704624 3.72742561,7.18618925 C4.76015526,8.39029586 1.92231962,10.8931546 4.73998372,10.646641 Z" id="Oval" filter="url(#filter-45)"></path>
                    <circle id="Oval" filter="url(#filter-46)" cx="5.24950479" cy="5.51426914" r="1"></circle>
                </g>
            </g>
            <g id="poppies" transform="translate(654.975931, 684.155425)">
                <g id="poppy" transform="translate(20.774564, 0.330305)">
                    <path d="M4.73998372,10.646641 C7.55764783,10.4001273 6.11716029,8.68295544 7.31113416,7.58246319 C8.34839315,6.62641591 9.48601066,8.10199397 10.0055414,5.92711747 C10.5250722,3.75224097 8.10179045,4.63602524 6.94136366,3.35596703 C5.72224942,2.01117113 7.3376376,-0.227741518 4.5199735,0.0187721488 C1.70230939,0.265285816 3.69150422,2.49348868 2.7148675,3.72573753 C1.81893312,4.85616207 -0.226053435,2.56341915 0.0204602314,5.38108325 C0.266973898,8.19874736 2.77614368,6.07704624 3.72742561,7.18618925 C4.76015526,8.39029586 1.92231962,10.8931546 4.73998372,10.646641 Z" id="Oval" fill="#CF5555"></path>
                    <circle id="Oval" fill="#444444" cx="5.24950479" cy="5.51426914" r="1"></circle>
                </g>
                <g id="poppy-copy" transform="translate(14.687362, 9.492054)">
                    <path d="M4.73998372,10.646641 C7.55764783,10.4001273 6.11716029,8.68295544 7.31113416,7.58246319 C8.34839315,6.62641591 9.48601066,8.10199397 10.0055414,5.92711747 C10.5250722,3.75224097 8.10179045,4.63602524 6.94136366,3.35596703 C5.72224942,2.01117113 7.3376376,-0.227741518 4.5199735,0.0187721488 C1.70230939,0.265285816 3.69150422,2.49348868 2.7148675,3.72573753 C1.81893312,4.85616207 -0.226053435,2.56341915 0.0204602314,5.38108325 C0.266973898,8.19874736 2.77614368,6.07704624 3.72742561,7.18618925 C4.76015526,8.39029586 1.92231962,10.8931546 4.73998372,10.646641 Z" id="Oval" fill="#CF5555"></path>
                    <circle id="Oval" fill="#444444" cx="5.24950479" cy="5.51426914" r="1"></circle>
                </g>
                <g id="poppy-copy-2" transform="translate(9.598068, 0.000000)">
                    <path d="M4.73998372,10.646641 C7.55764783,10.4001273 6.11716029,8.68295544 7.31113416,7.58246319 C8.34839315,6.62641591 9.48601066,8.10199397 10.0055414,5.92711747 C10.5250722,3.75224097 8.10179045,4.63602524 6.94136366,3.35596703 C5.72224942,2.01117113 7.3376376,-0.227741518 4.5199735,0.0187721488 C1.70230939,0.265285816 3.69150422,2.49348868 2.7148675,3.72573753 C1.81893312,4.85616207 -0.226053435,2.56341915 0.0204602314,5.38108325 C0.266973898,8.19874736 2.77614368,6.07704624 3.72742561,7.18618925 C4.76015526,8.39029586 1.92231962,10.8931546 4.73998372,10.646641 Z" id="Oval" fill="#CF5555"></path>
                    <circle id="Oval" fill="#444444" cx="5.24950479" cy="5.51426914" r="1"></circle>
                </g>
                <g id="poppy-copy-3" transform="translate(26.970576, 11.966451)">
                    <path d="M4.73998372,10.646641 C7.55764783,10.4001273 6.11716029,8.68295544 7.31113416,7.58246319 C8.34839315,6.62641591 9.48601066,8.10199397 10.0055414,5.92711747 C10.5250722,3.75224097 8.10179045,4.63602524 6.94136366,3.35596703 C5.72224942,2.01117113 7.3376376,-0.227741518 4.5199735,0.0187721488 C1.70230939,0.265285816 3.69150422,2.49348868 2.7148675,3.72573753 C1.81893312,4.85616207 -0.226053435,2.56341915 0.0204602314,5.38108325 C0.266973898,8.19874736 2.77614368,6.07704624 3.72742561,7.18618925 C4.76015526,8.39029586 1.92231962,10.8931546 4.73998372,10.646641 Z" id="Oval" fill="#CF5555"></path>
                    <circle id="Oval" fill="#444444" cx="5.24950479" cy="5.51426914" r="1"></circle>
                </g>
                <g id="poppy-copy-4" transform="translate(17.725036, 19.873409)">
                    <path d="M4.73998372,10.646641 C7.55764783,10.4001273 6.11716029,8.68295544 7.31113416,7.58246319 C8.34839315,6.62641591 9.48601066,8.10199397 10.0055414,5.92711747 C10.5250722,3.75224097 8.10179045,4.63602524 6.94136366,3.35596703 C5.72224942,2.01117113 7.3376376,-0.227741518 4.5199735,0.0187721488 C1.70230939,0.265285816 3.69150422,2.49348868 2.7148675,3.72573753 C1.81893312,4.85616207 -0.226053435,2.56341915 0.0204602314,5.38108325 C0.266973898,8.19874736 2.77614368,6.07704624 3.72742561,7.18618925 C4.76015526,8.39029586 1.92231962,10.8931546 4.73998372,10.646641 Z" id="Oval" fill="#CF5555"></path>
                    <circle id="Oval" fill="#444444" cx="5.24950479" cy="5.51426914" r="1"></circle>
                </g>
                <g id="poppy-copy-5" transform="translate(4.032989, 17.522269)">
                    <path d="M4.73998372,10.646641 C7.55764783,10.4001273 6.11716029,8.68295544 7.31113416,7.58246319 C8.34839315,6.62641591 9.48601066,8.10199397 10.0055414,5.92711747 C10.5250722,3.75224097 8.10179045,4.63602524 6.94136366,3.35596703 C5.72224942,2.01117113 7.3376376,-0.227741518 4.5199735,0.0187721488 C1.70230939,0.265285816 3.69150422,2.49348868 2.7148675,3.72573753 C1.81893312,4.85616207 -0.226053435,2.56341915 0.0204602314,5.38108325 C0.266973898,8.19874736 2.77614368,6.07704624 3.72742561,7.18618925 C4.76015526,8.39029586 1.92231962,10.8931546 4.73998372,10.646641 Z" id="Oval" fill="#CF5555"></path>
                    <circle id="Oval" fill="#444444" cx="5.24950479" cy="5.51426914" r="1"></circle>
                </g>
                <g id="poppy-copy-6" transform="translate(9.245540, 28.423155)">
                    <path d="M4.73998372,10.646641 C7.55764783,10.4001273 6.11716029,8.68295544 7.31113416,7.58246319 C8.34839315,6.62641591 9.48601066,8.10199397 10.0055414,5.92711747 C10.5250722,3.75224097 8.10179045,4.63602524 6.94136366,3.35596703 C5.72224942,2.01117113 7.3376376,-0.227741518 4.5199735,0.0187721488 C1.70230939,0.265285816 3.69150422,2.49348868 2.7148675,3.72573753 C1.81893312,4.85616207 -0.226053435,2.56341915 0.0204602314,5.38108325 C0.266973898,8.19874736 2.77614368,6.07704624 3.72742561,7.18618925 C4.76015526,8.39029586 1.92231962,10.8931546 4.73998372,10.646641 Z" id="Oval" fill="#CF5555"></path>
                    <circle id="Oval" fill="#444444" cx="5.24950479" cy="5.51426914" r="1"></circle>
                </g>
                <g id="poppy-copy-8" transform="translate(0.000000, 36.330113)">
                    <path d="M4.73998372,10.646641 C7.55764783,10.4001273 6.11716029,8.68295544 7.31113416,7.58246319 C8.34839315,6.62641591 9.48601066,8.10199397 10.0055414,5.92711747 C10.5250722,3.75224097 8.10179045,4.63602524 6.94136366,3.35596703 C5.72224942,2.01117113 7.3376376,-0.227741518 4.5199735,0.0187721488 C1.70230939,0.265285816 3.69150422,2.49348868 2.7148675,3.72573753 C1.81893312,4.85616207 -0.226053435,2.56341915 0.0204602314,5.38108325 C0.266973898,8.19874736 2.77614368,6.07704624 3.72742561,7.18618925 C4.76015526,8.39029586 1.92231962,10.8931546 4.73998372,10.646641 Z" id="Oval" fill="#CF5555"></path>
                    <circle id="Oval" fill="#444444" cx="5.24950479" cy="5.51426914" r="1"></circle>
                </g>
                <g id="poppy-copy-7" transform="translate(18.957604, 33.961730)">
                    <path d="M4.73998372,10.646641 C7.55764783,10.4001273 6.11716029,8.68295544 7.31113416,7.58246319 C8.34839315,6.62641591 9.48601066,8.10199397 10.0055414,5.92711747 C10.5250722,3.75224097 8.10179045,4.63602524 6.94136366,3.35596703 C5.72224942,2.01117113 7.3376376,-0.227741518 4.5199735,0.0187721488 C1.70230939,0.265285816 3.69150422,2.49348868 2.7148675,3.72573753 C1.81893312,4.85616207 -0.226053435,2.56341915 0.0204602314,5.38108325 C0.266973898,8.19874736 2.77614368,6.07704624 3.72742561,7.18618925 C4.76015526,8.39029586 1.92231962,10.8931546 4.73998372,10.646641 Z" id="Oval" fill="#CF5555"></path>
                    <circle id="Oval" fill="#444444" cx="5.24950479" cy="5.51426914" r="1"></circle>
                </g>
            </g>
            <g id="plane_shadow" transform="translate(653.925858, 616.764067) scale(1, -1) rotate(-113.000000) translate(-653.925858, -616.764067) translate(450.425858, 528.264067)" fill="#000000" opacity="0.2">
                <path d="M113.498811,1.20784677 C113.90903,-3.08574364 161.11688,21.8458883 174.901058,30.6907632 C188.448459,39.383706 213.545271,78.3874423 225.060688,94.7179821 C226.973749,94.5122 228.883752,94.3071543 230.790787,94.1019245 C228.624937,88.6437418 227.406356,82.4806266 227.406356,75.9572955 C227.406356,53.5897631 241.733244,35.4572955 259.406356,35.4572955 C277.079468,35.4572955 291.406356,53.5897631 291.406356,75.9572955 C291.406356,79.9874914 290.941233,83.8801958 290.075219,87.5541146 C330.363531,82.9869835 369.235772,78.3319437 406.692804,73.5891067 C406.578816,76.8235892 365.605441,89.4845678 283.77268,111.572042 C284.451755,120.338999 284.214035,126.751424 282.594257,126.751424 C278.887622,126.751424 272.355169,122.454074 265.77209,116.406538 C259.521363,118.077428 253.061861,119.79657 246.394362,121.563698 C255.988698,132.002386 266.784391,141.224928 275.334867,141.682599 C286.967126,142.305226 312.736061,121.701777 317.749047,127.636821 C318.488059,128.511762 321.034291,129.732288 325.387742,131.298401 C321.256843,136.093134 317.56825,140.411342 314.321962,144.253027 C325.412713,143.737759 333.123328,143.43554 333.123328,145.059101 C333.123328,147.796641 324.167793,161.842416 301.08943,161.842416 C300.862284,161.768429 300.638764,161.689182 300.41887,161.604676 L300.20246,161.518638 C297.70245,164.790782 296.452446,166.716217 296.452446,167.294943 C296.452446,172.619511 293.756419,180.948593 279.5355,174.17429 C275.374476,172.192137 268.677492,173.884346 262.228705,171.414064 C248.886559,166.303202 213.261766,150.716723 181.142546,127.804055 C165.604393,128.829395 150.533125,129.339897 136.158036,129.450598 C136.470861,132.817475 136.474038,135.348719 136.095025,136.555716 C134.676776,141.072248 125.593592,136.75975 115.981174,129.347706 C48.1063748,128.122519 0.152229275,118.385512 0.29352574,114.293473 C23.5599417,112.077082 47.8498496,109.726343 73.1632492,107.241256 C70.1194499,101.042768 68.3613658,93.7270481 68.3613658,85.8916338 C68.3613658,63.5241014 82.6882538,45.3916338 100.361366,45.3916338 C108.60018,45.3916338 116.111786,49.3322146 121.783727,55.8054218 C113.902625,34.1200812 112.33513,13.3875917 113.498811,1.20784677 Z M131.583123,76.9835593 L131.659117,77.4135465 C132.119241,80.1476479 132.361366,82.9838546 132.361366,85.8916338 C132.361366,90.869921 131.651664,95.6384188 130.353326,100.043906 C130.491404,100.537025 130.628287,101.033017 130.763478,101.531127 C136.612408,100.946269 142.509623,100.354833 148.455503,99.7570085 C147.787993,99.0429728 147.128229,98.3244776 146.477426,97.6019806 C140.603274,91.0807128 135.682052,84.1154878 131.583123,76.9835593 Z" id="Combined-Shape" filter="url(#filter-47)"></path>
            </g>
            <g id="cloud" transform="translate(90.325959, 792.362501)">
                <path d="M67.0545325,92.8286475 C57.0448447,99.0712343 49.9830787,104.902206 45.8692345,110.321563 C36.7645595,111.221021 31.7627086,114.568986 30.863682,120.365458 C29.7726705,127.399753 -8.50099662,166.062972 9.92789504,159.356015 C14.1585039,157.81634 74.6644323,142.857287 183.427827,130.479537 C212.860432,127.129978 275.544856,126.403754 371.481097,128.300866 C318.365395,117.139187 292.207595,111.334602 293.007696,110.887112 C304.01655,104.729939 301.228964,98.2622494 284.644937,91.4840417 C273.999071,81.3686888 265.958161,75.8853824 260.522207,75.0341223 C245.613468,72.6994424 233.748877,72.8084915 224.928432,75.3612696 C219.801701,68.9815089 208.77782,66.4590966 191.856789,67.7940326 C174.935758,69.1289686 162.118644,71.6237322 153.405446,75.2783234 C150.45456,69.8174859 139.708282,69.1816883 121.166613,73.3709305 C109.770418,75.9457484 102.811928,80.7138019 100.291143,87.6750908 C88.1430906,84.8682085 77.0642204,86.5860608 67.0545325,92.8286475 Z" id="Oval" fill="url(#linearGradient-48)" transform="translate(188.200015, 113.790804) rotate(-160.000000) translate(-188.200015, -113.790804) "></path>
                <path d="M47.7604717,109.175535 C37.7507839,115.418122 30.4065472,121.482332 25.7277617,127.368167 C14.6609384,127.1404 8.67801342,129.924752 7.7789868,135.721224 C6.68797532,142.755519 17.6314338,152.057066 36.0603254,145.35011 C38.6347686,144.413175 78.3615777,132.828183 165.682905,130.882647 C231.550745,129.415099 351.136219,137.799332 352.269107,135.781203 C353.404059,133.759397 267.86277,127.639277 269.062922,126.968041 C296.19008,111.796018 272.44472,100.154504 251.60474,96.8910032 C236.696001,94.5563232 219.822308,92.7400551 200.983659,91.442199 C200.927995,86.3500043 192.439648,84.471375 175.518617,85.8063111 C158.597586,87.1412471 147.353474,90.5597689 141.786282,96.0618766 C133.801419,86.792927 120.538152,84.2530733 101.996484,88.4423155 C90.6002885,91.0171335 83.2560518,97.0813443 79.9637737,106.634948 C68.5045935,102.086086 57.7701595,102.932948 47.7604717,109.175535 Z" id="Oval-Copy-5" fill="url(#linearGradient-49)" transform="translate(179.992339, 116.528134) rotate(-160.000000) translate(-179.992339, -116.528134) "></path>
                <path d="M89.2004175,88.6286027 C79.2170513,94.8691129 72.6376985,99.5175596 69.4623591,102.573943 C60.4476048,105.738941 55.4911843,110.21964 54.5930978,116.016038 C54.392364,117.307582 40.2506659,126.447658 12.1680036,143.436266 C95.4521284,125.896188 161.305145,113.950371 209.727052,107.598814 C303.704074,95.2717403 400.105877,108.469128 403.402377,103.710882 C403.97235,102.888171 385.247047,93.4672243 334.281446,85.1152034 C330.519518,84.4987149 322.403238,85.1390254 309.932608,87.0361348 C299.878594,78.6205059 292.016879,73.9668791 286.347462,73.0752543 C271.481091,70.7372318 258.454933,70.3050569 247.268988,71.7787294 C244.418386,66.485125 234.556072,64.5039367 217.682043,65.8351646 C200.808015,67.1663925 187.71054,70.9420843 178.389618,77.16224 C173.165295,71.0507723 161.30768,70.0876571 142.816774,74.2728945 C131.451779,76.845251 120.283587,82.156371 109.312196,90.2062544 C105.88771,82.9139764 99.1837838,82.3880926 89.2004175,88.6286027 Z" id="Oval-Copy-6" fill="url(#linearGradient-50)" transform="translate(207.791484, 104.435088) rotate(-160.000000) translate(-207.791484, -104.435088) "></path>
            </g>
            <g id="volcano" transform="translate(258.482704, 815.666810)">
                <mask id="mask-52" fill="white">
                    <use xlink:href="#path-51"></use>
                </mask>
                <use id="Oval" fill="#6B6158" xlink:href="#path-51"></use>
                <path d="M12,56 C18.0751322,56 30.9131354,54.2562813 30.9131354,49.5618609 C30.9131354,47.34942 41.5740238,38.1470408 37.9228228,36.1505119 C36.7602408,35.5147955 30.2155389,40.5862885 24.763675,43.0669293 C23.262996,43.74975 21.7584233,46.0648217 20.5765166,45.7996394 C19.2595711,45.5041586 24.0837415,31.3839581 22.8877409,30.6781896 C22.1128423,30.2209164 20.1497374,33.6607564 18.6142146,36.5719977 C16.6737707,40.2509405 15.1031907,43.6394796 13.9986682,43.4054984 C13.1490863,43.2255236 11.7372745,38.4582756 9.47294074,35.3732016 C6.75779828,31.6739169 3.15579365,29.4994692 2.38378772,28.5362499 C-3.69134452,28.5362499 1,42.8055796 1,47.5 C1,52.1944204 5.92486775,56 12,56 Z" id="Oval" fill="#DC4949" mask="url(#mask-52)"></path>
            </g>
            <g id="smoke" transform="translate(242.095538, 867.963301)" fill="url(#linearGradient-53)">
                <path d="M31.4577724,32.3803815 C31.5237268,32.3803815 41.4644799,36.2396398 46.1827419,41.7273889 C48.3072463,44.1983722 53.1320735,44.6446903 60.6572235,43.0663432 C64.728743,49.4516852 67.9722754,53.5413767 70.3878206,55.3354177 C74.0917994,58.0863867 78.9592257,56.9650179 84.9900994,51.9713112 C88.652366,57.2399734 91.5380617,60.1431916 93.6471863,60.6809658 C95.8691418,61.2475091 101.53744,59.363713 110.65208,55.0295776 C118.967767,58.2715492 126.489147,59.9685894 133.216221,60.1206981 C135.325497,60.1683918 138.549433,59.2372019 142.888026,57.3271283 L177.339997,46.9778139 C128.891563,39.4133442 104.810026,35.6140668 105.095386,35.5799817 C108.301894,35.1969778 55.9879902,22.1479428 56.1126947,20.8206102 C56.2811196,19.0279246 42.4045116,14.2835988 41.829909,12.4270647 C41.2767829,10.6399209 37.6356615,9.81253764 37.0272324,8.2945407 C36.0918091,5.96071103 34.0605474,4.65499377 34.0605474,4.12674392 C34.0605474,2.27795129 32.0731134,0.779208736 29.6214893,0.779208736 C27.1698652,0.779208736 25.1824311,2.27795129 25.1824311,4.12674392 C25.1824311,4.70314621 24.2201393,7.93803785 25.9649773,10.5792551 C27.2285051,12.4918976 -1.44791767,9.61055061 0.428240704,11.5250153 C3.04734215,14.1975919 12.1272105,27.0326264 20.459416,32.3135655 C24.353131,34.7813962 31.0966885,32.3803815 31.4577724,32.3803815 Z" id="Oval"></path>
            </g>
            <g id="jungle" transform="translate(243.032088, 811.808692)">
                <path d="M70.2913562,34.4602935 C71.416571,34.2125749 67.7025132,29.5893688 68.2426864,28.3937498 C69.3498266,25.9432068 76.6612318,27.2242009 76.5306355,26.0894277 C76.4000391,24.9546546 69.0051161,24.722111 67.7313817,23.950939 C65.6739775,22.7053006 70.4356402,17.9707632 68.84381,17.9707632 C68.0994635,17.9707632 64.1852596,24.2931025 62.6908985,23.1805309 C60.8041042,21.7757878 59.5079402,15.8797337 58.7628435,16.429947 C58.0177467,16.9801602 59.9679116,23.9445492 59.9679116,25.191308 C59.9679116,25.330426 50.0269251,22.2075265 50.0463629,22.8350597 C50.0660879,23.4625929 57.7729036,25.4393521 60.0411051,27.5369739 C61.8068818,29.1699556 58.7416238,34.3680245 59.5263494,34.7988625 C60.311075,35.2297006 62.8269988,28.8729677 63.5024068,29.4373329 C65.1731056,30.8333547 69.1661414,34.708012 70.2913562,34.4602935 Z" id="Oval" fill="#1C4F10"></path>
                <path d="M43.7373088,26.6169722 C44.8625236,26.3692536 41.1484658,21.7460474 41.6886391,20.5504285 C42.7957792,18.0998854 50.1071845,19.3808795 49.9765881,18.2461064 C49.8459918,17.1113332 42.4510687,16.8787897 41.1773344,16.1076177 C39.1199302,14.8619793 43.8815929,10.1274418 42.2897626,10.1274418 C41.5454161,10.1274418 37.6312123,16.4497811 36.1368511,15.3372096 C34.2500568,13.9324665 32.9538929,8.0364124 32.2087961,8.58662565 C31.4636994,9.1368389 33.4138642,16.1012279 33.4138642,17.3479867 C33.4138642,17.4871046 23.4728777,14.3642051 23.4923155,14.9917384 C23.5120405,15.6192716 31.2188562,17.5960308 33.4870578,19.6936526 C35.2528345,21.3266343 32.1875764,26.5247032 32.972302,26.9555412 C33.7570277,27.3863793 36.2729514,21.0296464 36.9483594,21.5940116 C38.6190583,22.9900334 42.612094,26.8646907 43.7373088,26.6169722 Z" id="Oval-Copy-8" fill="#1C4F10"></path>
                <path d="M20.2449933,18.0664686 C21.3702081,17.81875 17.6561503,13.1955439 18.1963235,11.9999249 C19.3034637,9.54938185 26.6148689,10.8303759 26.4842726,9.6956028 C26.3536763,8.56082965 18.9587532,8.32828607 17.6850189,7.55711413 C15.6276147,6.31147574 20.3892774,1.57693826 18.7974471,1.57693826 C18.0531006,1.57693826 14.1388968,7.89927755 12.6445356,6.78670603 C10.7577413,5.38196288 9.46157737,-0.514091181 8.71648062,0.0361220662 C7.97138387,0.586335314 9.9215487,7.55072428 9.9215487,8.79748312 C9.9215487,8.93660104 -0.0194377913,5.81370155 -9.76996262e-13,6.44123479 C0.0197249972,7.06876804 7.72654071,9.04552719 9.99474229,11.143149 C11.760519,12.7761307 8.69526089,17.9741996 9.47998653,18.4050376 C10.2647122,18.8358757 12.7806359,12.4791428 13.4560439,13.043508 C15.1267428,14.4395298 19.1197785,18.3141871 20.2449933,18.0664686 Z" id="Oval-Copy-10" fill="#1C4F10"></path>
                <path d="M57.9190659,28.5861763 C59.0442807,28.3384578 55.3302229,23.7152516 55.8703962,22.5196326 C56.9775363,20.0690896 64.2889416,21.3500837 64.1583452,20.2153105 C64.0277489,19.0805374 56.6328259,18.8479938 55.3590915,18.0768219 C53.3016873,16.8311835 58.06335,12.096646 56.4715198,12.096646 C55.7271733,12.096646 51.8129694,18.4189853 50.3186083,17.3064138 C48.431814,15.9016706 47.13565,10.0056165 46.3905533,10.5558298 C45.6454565,11.106043 47.5956213,18.070432 47.5956213,19.3171908 C47.5956213,19.4563088 37.6546348,16.3334093 37.6740726,16.9609425 C37.6937976,17.5884758 45.4006133,19.5652349 47.6688149,21.6628567 C49.4345916,23.2958384 46.3693335,28.4939073 47.1540592,28.9247454 C47.9387848,29.3555834 50.4547086,22.9988505 51.1301166,23.5632157 C52.8008154,24.9592375 56.7938511,28.8338948 57.9190659,28.5861763 Z" id="Oval-Copy-7" fill="#103706"></path>
                <path d="M31.9496927,18.0699197 C33.0749075,17.8222011 29.3608497,13.198995 29.9010229,12.003376 C31.0081631,9.55283294 38.3195683,10.833827 38.188972,9.69905389 C38.0583757,8.56428074 30.6634526,8.33173717 29.3897183,7.56056522 C27.3323141,6.31492683 32.0939768,1.58038935 30.5021465,1.58038935 C29.7578,1.58038935 25.8435962,7.90272864 24.349235,6.79015712 C22.4624407,5.38541398 21.1662768,-0.510640088 20.42118,0.0395731597 C19.6760833,0.589786407 21.6262481,7.55417537 21.6262481,8.80093421 C21.6262481,8.94005214 11.6852616,5.81715264 11.7046994,6.44468589 C11.7244244,7.07221913 19.4312401,9.04897829 21.6994417,11.1466001 C23.4652184,12.7795818 20.3999603,17.9776507 21.1846859,18.4084887 C21.9694116,18.8393268 24.4853353,12.4825939 25.1607433,13.0469591 C26.8314422,14.4429809 30.8244779,18.3176382 31.9496927,18.0699197 Z" id="Oval-Copy-9" fill="#103706"></path>
            </g>
        </g>
    </g>
</svg>