<?xml version="1.0" encoding="UTF-8"?>
<svg width="1318px" height="1318px" viewBox="0 0 1318 1318" version="1.1" xmlns="http://www.w3.org/2000/svg" xmlns:xlink="http://www.w3.org/1999/xlink">
    <!-- Generator: Sketch 62 (91390) - https://sketch.com -->
    <title>human_objects</title>
    <desc>Created with Sketch.</desc>
    <defs>
        <linearGradient x1="54.5849655%" y1="46.7331013%" x2="45.0963697%" y2="59.4716718%" id="linearGradient-1">
            <stop stop-color="#EEEEEE" offset="0%"></stop>
            <stop stop-color="#545454" offset="100%"></stop>
        </linearGradient>
        <ellipse id="path-2" cx="32" cy="25.5" rx="32" ry="25.5"></ellipse>
        <ellipse id="path-4" cx="32" cy="25.5" rx="32" ry="25.5"></ellipse>
        <linearGradient x1="53.271131%" y1="4.19575319%" x2="-2.84217094e-12%" y2="91.1226618%" id="linearGradient-6">
            <stop stop-color="#FFFAA4" offset="0%"></stop>
            <stop stop-color="#8B8531" offset="100%"></stop>
        </linearGradient>
        <linearGradient x1="50%" y1="0%" x2="50%" y2="100%" id="linearGradient-7">
            <stop stop-color="#FAF3E4" offset="0%"></stop>
            <stop stop-color="#CABFA7" offset="100%"></stop>
        </linearGradient>
        <linearGradient x1="50%" y1="0%" x2="50%" y2="100%" id="linearGradient-8">
            <stop stop-color="#FAF3E4" offset="0%"></stop>
            <stop stop-color="#A39983" offset="100%"></stop>
        </linearGradient>
        <linearGradient x1="46.6817225%" y1="112.914237%" x2="-3.59750306%" y2="112.914237%" id="linearGradient-9">
            <stop stop-color="#DDD1D1" offset="0%"></stop>
            <stop stop-color="#E13131" offset="100%"></stop>
        </linearGradient>
        <linearGradient x1="50%" y1="0%" x2="50%" y2="100%" id="linearGradient-10">
            <stop stop-color="#FAF3E4" offset="0%"></stop>
            <stop stop-color="#B7AF9D" offset="100%"></stop>
        </linearGradient>
        <linearGradient x1="50%" y1="0%" x2="50%" y2="100%" id="linearGradient-11">
            <stop stop-color="#FAF3E4" offset="0%"></stop>
            <stop stop-color="#ADA595" offset="100%"></stop>
        </linearGradient>
        <linearGradient x1="69.2872537%" y1="100%" x2="0%" y2="100%" id="linearGradient-12">
            <stop stop-color="#D5BFBF" offset="0%"></stop>
            <stop stop-color="#D52828" offset="100%"></stop>
        </linearGradient>
        <linearGradient x1="50%" y1="0%" x2="50%" y2="100%" id="linearGradient-13">
            <stop stop-color="#D0974D" offset="0%"></stop>
            <stop stop-color="#000000" offset="100%"></stop>
        </linearGradient>
        <linearGradient x1="50%" y1="0%" x2="50%" y2="100%" id="linearGradient-14">
            <stop stop-color="#D3C9B2" offset="0%"></stop>
            <stop stop-color="#B8AD95" offset="100%"></stop>
        </linearGradient>
        <linearGradient x1="-19.844505%" y1="96.4920703%" x2="128.395578%" y2="96.4923469%" id="linearGradient-15">
            <stop stop-color="#BFB502" offset="0%"></stop>
            <stop stop-color="#FFF588" offset="48.0779699%"></stop>
            <stop stop-color="#CBB200" offset="100%"></stop>
        </linearGradient>
        <linearGradient x1="50%" y1="0.402172192%" x2="50%" y2="100%" id="linearGradient-16">
            <stop stop-color="#707070" offset="0%"></stop>
            <stop stop-color="#2D2D2D" offset="100%"></stop>
        </linearGradient>
    </defs>
    <g id="human_objects" stroke="none" stroke-width="1" fill="none" fill-rule="evenodd">
        <g id="image" transform="translate(208.507323, 127.586722)">
            <g id="plane" transform="translate(831.128655, 771.921316) scale(-1, -1) rotate(293.000000) translate(-831.128655, -771.921316) translate(627.628655, 700.421316)">
                <path d="M6.23617399,97.3011896 C10.4761134,100.290954 12.889577,102.972764 13.4765648,105.346619 L15.9148345,115.207297 C85.864981,88.7654538 149.324257,64.9154586 206.292663,43.6573118 C205.412181,40.0965296 111.161394,57.6384244 6.23617399,97.3011896 Z" id="Oval" fill="#919191" transform="translate(106.264419, 79.207297) rotate(-523.000000) translate(-106.264419, -79.207297) "></path>
                <path d="M134.738148,97.8037026 C134.606357,98.0720364 134.378198,98.2665052 134.078001,98.405993 C133.699285,98.5819653 133.215472,98.6716433 132.644731,98.6959446 C131.317321,98.7524638 129.553083,98.4489351 127.500459,97.8755674 C122.908339,96.5928323 116.908719,93.9558607 111.096255,90.7888985 C105.522234,87.7518531 100.119886,84.2268864 96.2982904,80.9331839 C93.4393101,78.4691266 91.4256303,76.1548292 91.0445365,74.2848868 C98.4165681,75.7037927 103.403499,75.7811375 106.028159,74.6040813 C110.230963,72.7192902 114.574141,68.1427628 119.022379,60.8268862 C122.601945,62.4463869 126.241258,68.5355136 129.159763,75.2776337 C133.202547,84.6169822 135.920251,95.3968887 134.738148,97.8037026 Z" id="Oval" stroke="#979797" fill="#B3B3B3"></path>
                <path d="M296.269963,118.216896 C296.269963,117.189999 305.92989,109.525279 325.249743,95.222737 C320.889599,94.222323 318.339453,93.4426652 317.599305,92.8837633 C312.578612,89.0925287 286.770061,102.253765 275.119919,101.856038 C258.683447,101.294911 233.963202,80.1082737 225.360567,72.3891182 C214.117479,62.3006808 188.337077,36.6057848 174.531708,30.9557848 C160.726339,25.3057848 116.526411,11.6635963 116.115561,14.4062904 C111.858192,42.827038 227.938198,112.527741 261.993608,120.848141 C268.452309,122.426128 275.159589,121.345165 279.32701,122.61134 C293.569791,126.938684 296.269963,121.618166 296.269963,118.216896 Z" id="Oval" fill="url(#linearGradient-1)"></path>
                <path d="M301.514445,114.680539 C324.592808,114.680539 333.548343,105.474758 333.548343,103.680539 C333.548343,101.88632 311.626706,103.680539 288.548343,103.680539 C290.551831,105.351587 291.823018,106.761843 292.361903,107.911308 C294.034266,111.478531 297.085113,113.734942 301.514445,114.680539 Z" id="Oval-Copy-3" fill="#919191"></path>
                <path d="M358.627271,29.2699233 C253.406205,81.750971 201.08843,109.181147 201.673945,111.560452 C263.092619,87.2440221 328.743728,61.8138459 398.627271,35.2699233 C390.748564,31.1920128 384.748564,28.8586794 380.627271,28.2699233 C371.293938,26.93659 363.960605,27.2699233 358.627271,29.2699233 Z" id="Oval" fill="#919191" transform="translate(300.148178, 69.515188) rotate(-523.000000) translate(-300.148178, -69.515188) "></path>
                <path d="M262.020256,68.5149049 C265.315829,67.8618397 267.617529,66.0757911 268.934837,63.1684009 C270.189817,60.398575 270.539069,56.575984 269.945659,51.6924895 C270.501909,51.2549449 271.07066,51.1135686 271.650394,51.2572067 C272.422947,51.4486189 273.185659,52.0860712 273.948292,53.0218153 C275.843995,55.3478279 277.66562,59.5049544 279.210579,64.2430808 C281.231677,70.4414446 282.768394,77.6355511 283.33151,83.1053997 C283.597259,85.6867594 283.647847,87.8789044 283.42109,89.3870054 C283.324936,90.0265021 283.184327,90.5343844 282.97385,90.8743435 C282.857705,91.061939 282.722581,91.2013308 282.528706,91.2013308 C277.548983,91.2013308 267.425828,86.1378262 259.020946,80.1402656 C252.274572,75.3261835 246.528927,69.8941838 245.674699,65.938745 C250.555827,68.8453182 256.003693,69.7071734 262.020256,68.5149049 Z" id="Oval-Copy-2" stroke="#979797" fill="#B3B3B3"></path>
                <g id="prop_l" transform="translate(67.970427, 41.156969)">
                    <mask id="mask-3" fill="white">
                        <use xlink:href="#path-2"></use>
                    </mask>
                    <use id="Oval-Copy-4" fill="#E7E7E7" opacity="0.422347484" xlink:href="#path-2"></use>
                    <polygon id="Rectangle" fill="#FFFFFF" opacity="0.463795381" mask="url(#mask-3)" points="33.875565 -12.1442297 69.8435843 -3.2390861 -0.642653999 49.4552229 27.9916859 68.6665367"></polygon>
                    <circle id="Oval" stroke="#979797" fill="#D8D8D8" mask="url(#mask-3)" cx="31.6249599" cy="24.2897487" r="1"></circle>
                    <path d="M11.0006216,24.5264239 C11.0006216,20.0838645 13.2061938,16.1229019 16.6467128,13.3620744 C20.2615087,10.4613994 25.2294489,8.86788689 30.6600589,9.28406595 C36.663536,9.74414713 42.1678128,11.4755293 46.0243655,14.5145693 C49.0641104,16.9099485 51.0006216,20.1612159 51.0006216,24.2357503 C51.0006216,28.5732578 48.575194,32.5546294 45.2700607,35.5679864 C41.5488893,38.9606536 36.6013236,41.2185357 31.9861218,41.2185357 C27.1478089,41.2185357 21.4735973,38.8744749 17.1858418,35.3235067 C13.7110071,32.4457709 11.0006216,28.7074877 11.0006216,24.5264239 Z" id="Oval" stroke="#FFFFFF" stroke-width="8" opacity="0.340448357" mask="url(#mask-3)"></path>
                </g>
                <g id="prop_r" transform="translate(227.679763, 34.195020)">
                    <mask id="mask-5" fill="white">
                        <use xlink:href="#path-4"></use>
                    </mask>
                    <use id="Oval" fill="#E7E7E7" opacity="0.422347484" xlink:href="#path-4"></use>
                    <polygon id="Rectangle" fill="#FFFFFF" opacity="0.463795381" mask="url(#mask-5)" points="33.6923864 -13.9232867 69.6604058 -5.01814313 -0.825832593 47.6761659 27.8085073 66.8874797"></polygon>
                    <circle id="Oval" stroke="#979797" fill="#D8D8D8" mask="url(#mask-5)" cx="31.436362" cy="23.9150713" r="1"></circle>
                    <path d="M11.7158987,24.1602672 C11.7158987,19.7177078 13.9214709,15.7567451 17.3619899,12.9959177 C20.9767857,10.0952426 25.9447259,8.50173012 31.375336,8.91790919 C37.378813,9.37799037 42.8830898,11.1093725 46.7396426,14.1484125 C49.7793875,16.5437917 51.7158987,19.7950592 51.7158987,23.8695935 C51.7158987,28.207101 49.2904711,32.1884726 45.9853378,35.2018296 C42.2641664,38.5944969 37.3166007,40.8523789 32.7013989,40.8523789 C27.863086,40.8523789 22.1888744,38.5083181 17.9011188,34.9573499 C14.4262842,32.0796141 11.7158987,28.3413309 11.7158987,24.1602672 Z" id="Oval" stroke="#FFFFFF" stroke-width="8" opacity="0.340448357" mask="url(#mask-5)"></path>
                </g>
                <path d="M131.01446,40.9208678 C133.954435,40.4254526 136.522849,37.7250563 138.719701,32.8196787 C140.916553,27.9143012 141.864729,23.6728567 141.564228,20.0953452 C123.828857,14.7820193 114.389664,12.593296 113.246647,13.5291753 C111.959661,14.582934 113.134855,19.5886784 119.301234,27.9285494 C121.13098,30.4032346 125.035389,34.7340074 131.01446,40.9208678 Z" id="Oval" fill="url(#linearGradient-6)"></path>
                <g id="mouth" opacity="0.504969698" transform="translate(116.513827, 16.337896)" stroke="#930000" stroke-linecap="round" stroke-width="2">
                    <path d="M0.248676461,2.63455364 C2.02357428,1.97847142 3.79847209,1.32238919 5.57336991,0.666306964" id="Path-2"></path>
                    <path d="M5.57336991,0.666306964 C6.02076138,2.9377154 6.46815285,5.20912384 6.91554432,7.48053227" id="Path-3"></path>
                    <path d="M6.91554432,7.48053227 C8.64017676,7.07144753 10.3648092,6.66236278 12.0894416,6.25327804" id="Path-4"></path>
                    <path d="M12.0894416,6.25327804 C12.3111742,8.23145751 12.5329067,10.209637 12.7546392,12.1878165" id="Path-5"></path>
                    <path d="M12.7546392,12.1878165 C14.5277171,11.522605 16.300795,10.8573935 18.0738729,10.192182" id="Path-6"></path>
                    <path d="M18.445556,10.268897 C18.8458588,12.4408184 19.2461616,14.6127397 19.6464644,16.7846611" id="Path-7"></path>
                    <path d="M19.600757,16.8776522 C22.3968573,16.0734312 26.3510312,16.4002227 29.1471315,15.5960016 L19.600757,16.8776522 Z" id="Path-8"></path>
                    <path d="M29.1471315,15.5960016 C29.6161715,18.6539002 30.0852115,21.7117988 30.5542516,24.7696974" id="Path-9"></path>
                    <path d="M4.78356053,9.79731901 C10.4744265,13.2343264 20.7946307,26.6538819 28.5242584,32.1541415 C29.3560894,32.746057 33.810716,29.5766421 41.8881381,22.6458967 C36.284302,13.6127898 15.1302116,1.994524 13.1746085,0.273296912" id="Path"></path>
                </g>
                <path d="M147.513755,22.1800751 L156.464968,24.7976011 L165.735644,28.6776229 C168.43174,33.8042189 168.484533,35.9117429 165.894024,35.0001949 C163.303514,34.0886468 157.176758,29.8152736 147.513755,22.1800751 Z" id="Rectangle" fill="#ABABAB"></path>
                <path d="M182.548269,69.4636162 C182.055603,69.56091 181.526505,69.4737174 181.073108,69.1798918 L174.60461,64.9879589 C174.141135,64.6876087 173.843281,64.2278319 173.736384,63.7272747 C173.629487,63.2267141 173.713549,62.6853728 174.013905,62.221898 C176.657945,59.6796704 178.306404,57.7503358 179.292142,56.0696825 C180.243647,54.4473946 181.080587,52.2010874 181.785321,49.322932 C181.916673,48.786495 182.253024,48.3540823 182.690646,48.0886165 C183.128267,47.8231516 183.667158,47.7246326 184.203594,47.8559822 C184.399231,47.9038852 184.58651,47.9810658 184.759092,48.0849121 L189.845586,51.1455671 C190.222292,51.3722409 190.502883,51.7086391 190.662646,52.0950004 C190.822408,52.4813609 190.861343,52.9176843 190.754738,53.3442091 C189.861961,56.9161956 188.986836,59.6433877 188.120072,61.5222363 C187.294524,63.3117423 185.853502,65.6830671 183.804838,68.6404146 C183.497172,69.0845393 183.040937,69.3663219 182.548269,69.4636162 Z" id="Rectangle" stroke="#B5B5B5" stroke-width="2"></path>
            </g>
            <g id="ship" transform="translate(305.000000, -0.000000)">
                <g id="Group-2-Copy" transform="translate(44.000000, 32.000000)">
                    <rect id="Rectangle-Copy" fill="#665949" x="135" y="9" width="6" height="159"></rect>
                    <path d="M167.158388,68.5 L107.146123,68.5 C99.4063936,61.6758574 95.5,54.6343923 95.5,47.3492063 C95.5,40.0508749 100.355974,32.7829286 109.939312,25.5 L176.336111,25.5 C164.851454,33.2237039 159.211864,40.5286505 159.211864,47.3492063 C159.211864,54.1768585 161.850856,61.2299041 167.158388,68.5 Z" id="Rectangle" stroke="#D6CCBC" fill="url(#linearGradient-7)"></path>
                    <path d="M172.912121,127.5 L98.8857432,127.5 C89.3184617,118.929768 84.5,110.083625 84.5,100.936508 C84.5,91.7764046 90.4821003,82.6453931 102.3229,73.5 L184.3546,73.5 C170.067602,83.2020829 163.025424,92.3692005 163.025424,100.936508 C163.025424,109.510363 166.311401,118.367542 172.912121,127.5 Z" id="Rectangle-Copy-2" stroke="#D6CCBC" fill="url(#linearGradient-8)"></path>
                    <path d="M1.13709677,18 C14.0149095,18.6178832 24.2487805,18.6178832 31.8387097,18 C56.9383406,15.9566817 81.7772145,0.103562907 99.354736,0.103562907 C124.905212,0.103562907 138.786967,2.26224531 141,6.57961011 L141,15.8311061 C136.775118,10.8969749 122.893363,8.42990931 99.354736,8.42990931 C83.541308,8.42990931 57.1627924,23.780853 32.3601808,26.0077517 C24.2824416,26.7330103 13.4957146,26.7304264 0,26 L6.82258065,21 L1.13709677,18 Z" id="Rectangle" fill="url(#linearGradient-9)"></path>
                </g>
                <g id="Group-2">
                    <rect id="Rectangle-Copy" fill="#665949" x="150" y="11" width="7" height="159"></rect>
                    <path d="M194.139592,80.5 L121.595166,80.5 C112.222834,72.2472668 107.5,63.7296452 107.5,54.9206349 C107.5,46.0984724 113.36455,37.3067621 124.964653,28.5 L205.331598,28.5 C191.351368,37.8423777 184.466102,46.6715824 184.466102,54.9206349 C184.466102,63.1768837 187.680559,71.7061737 194.139592,80.5 Z" id="Rectangle" stroke="#D6CCBC" fill="url(#linearGradient-10)"></path>
                    <path d="M194.007008,147.5 L108.189369,147.5 C97.0870913,137.659935 91.5,127.501915 91.5,117 C91.5,106.485001 98.4319314,95.9999032 112.168988,85.5 L207.338526,85.5 C190.709655,96.6410185 182.5,107.163349 182.5,117 C182.5,126.843633 186.325696,137.013104 194.007008,147.5 Z" id="Rectangle-Copy-2" stroke="#D6CCBC" fill="url(#linearGradient-11)"></path>
                    <path d="M0,7 C16.2830785,17.0012072 28.6164118,21.6678739 37,21 C64.7242335,18.7913644 91.5844432,0 111,0 C139.222222,0 154.555556,2.33333333 157,7 L157,17 C152.333333,11.6666667 137,9 111,9 C93.5330033,9 64.3961556,25.5929312 37,28 C28.0775928,28.7839366 15.7442594,25.1172699 0,17 L8,17 L0,7 Z" id="Rectangle" fill="url(#linearGradient-12)"></path>
                </g>
                <rect id="Rectangle" fill="#AE7E40" x="159" y="184" width="30" height="13"></rect>
                <path d="M188.492677,184.413278 L198.492677,191.413278 L198.492677,197.413278 C198.937121,197.413278 195.937121,197.413278 189.492677,197.413278 C183.048232,197.413278 182.714899,197.413278 188.492677,197.413278 L188.492677,184.413278 Z" id="Rectangle-Copy-6" fill="#5C4629"></path>
                <path d="M101,153 C123.275157,156.104637 141.941823,160.437971 157,166 C160.635622,167.342887 163.982544,188.217435 168,190 C171.84641,191.706671 180.555122,193.13823 194.126135,194.294678 C196.708712,188.098226 202.666667,188 212,194 C208.867182,200.235864 198.031408,209.706956 179.492677,222.413278 C160.953946,235.119599 142.123054,245.98184 123,255 L101,153 Z" id="Rectangle" fill="url(#linearGradient-13)"></path>
                <path d="M91,174 C89.0037361,164.744595 92.3370695,157.744595 101,153 L123,255 C103.662931,210.255405 92.9962639,183.255405 91,174 Z" id="Rectangle" fill="#644725"></path>
                <polygon id="Rectangle" fill="#665949" points="44 123 101 153 102 159 46 127"></polygon>
                <path d="M145.492677,16.4132775 C142.287265,25.3369227 139.705454,30.7599472 137.747244,32.682351 C128.729736,41.5349743 122.644881,48.4452831 119.492677,53.4132775 C114.416824,61.4130164 117.696822,72.9377233 114.492677,77.4132775 C107.263764,87.5106339 91.5298585,94.1355024 88.4926768,101.413278 C80.9424355,119.505365 83.7782099,135.034273 97,148 L46,121 C49.6701699,105.798634 54.1677288,94.9363928 59.4926768,88.4132775 C63.4332543,83.5860301 89.7126648,69.8315563 92.4926768,67.4132775 C96.3879483,64.0248559 102.316156,53.2487327 109.492677,47.4132775 C114.918681,43.0012229 123.997716,37.0625355 136.729782,29.5972154 C138.954271,28.2929088 141.875236,23.8982628 145.492677,16.4132775 Z" id="Rectangle" fill="url(#linearGradient-14)"></path>
                <path d="M159.579451,66.5 L141.402983,66.5 L136.881615,45.7017081 L147.259601,57.0231478 L150.930187,42.3408031 L153.704269,57.1359026 L163.186994,45.7566327 L159.579451,66.5 Z" id="Rectangle" stroke="#D2C358" fill="url(#linearGradient-15)"></path>
                <path d="M145.579451,128.5 L127.402983,128.5 L122.881615,107.701708 L133.259601,119.023148 L136.930187,104.340803 L139.704269,119.135903 L149.186994,107.756633 L145.579451,128.5 Z" id="Rectangle-Copy-3" stroke="#D2C358" fill="url(#linearGradient-15)"></path>
            </g>
            <g id="natives" transform="translate(156.736544, 246.263456) rotate(-45.000000) translate(-156.736544, -246.263456) translate(113.736544, 197.263456)" fill="#000000">
                <path d="M54.9809846,98 C55.1552409,98 58.3174564,76.9378896 59.3453575,65.2133012 C59.3924488,64.676162 59.9311472,63.9383949 60.9614527,63 C62.409734,62.8289207 63.0742304,63.162254 62.954942,64 C62.6312328,66.2733651 61.3022399,69.2733651 58.9679633,73 L59,76 C59.6666667,74.6666667 60.6406901,72.9827232 61.9220702,70.9481697 C63.9636262,67.7066219 67.2981508,65.3905653 71.9256441,64 C72.2366267,63.3551822 71.5721302,60.6885155 69.9321548,56 C70.0712032,54.3339869 60.836656,51.6141314 60.9614527,50 C61.4965594,43.0788776 61.0039764,43.0762249 60.9614527,40 C60.9090628,36.2100472 57.6680482,30.7529459 57.7868472,30.6963807 C58.6713951,30.2752103 59.4054574,31.1060059 59.964708,30 C60.5673539,28.8081728 60.9614527,25.6360694 60.9614527,24 C60.9614527,20.1340068 61.9581973,17 56.4761016,17 C50.9940059,17 51.9907506,20.1340068 51.9907506,24 C51.9907506,27.2009796 53.9842399,28 53.9842399,30 C53.9842399,32 48.7090833,41.1999343 49.0005165,45 C49.0725201,45.9388715 46.8599037,68.532265 47.0070272,70 C47.104975,70.9771489 51.8659801,47.8392555 51.9907506,49 C52.4465254,53.2400915 50.6186637,60.7501539 50.9940059,67 C51.1989534,70.4125934 51.6504665,72.7233877 52,76 C52.3244751,79.0417081 51.6530971,83.2573142 52,86 C52.9525108,93.5307459 54.878626,98 54.9809846,98 Z" id="Oval"></path>
                <path d="M47.5,2.27373675e-13 C48.5,3.77777778 49,5.77777778 49,6 C49,6.22222222 48.6666667,6.55555556 48,7 L48,98 L47,98 L47,7 C46.3333333,6.55555556 46,6.22222222 46,6 C46,5.77777778 46.5,3.77777778 47.5,2.27373675e-13 Z" id="Rectangle"></path>
                <path d="M0.140909072,10.1384125 C1.66524836,12.9908298 6.33191502,14.3241632 14.1409091,14.1384125 C19.1608609,14.0190042 27.2469375,8.51991916 35.1409091,7.13841252 C38.0647911,6.62671035 42.3511548,7.24723951 48,9 L48,12 C41.8204101,9.72365199 37.5340465,8.7697895 35.1409091,9.13841252 C26.6575168,10.445138 20.8955832,16.0015275 15.1409091,16.1384125 C6.95117262,16.3332198 1.95117262,15.3332198 0.140909072,13.1384125 L0.140909072,10.1384125 Z" id="Rectangle"></path>
                <path d="M28.1409091,24.1384125 C31.245918,24.3241632 35.245918,24.3241632 40.1409091,24.1384125 C43.2876164,24.0190042 47.9911471,20.6933637 52.9394054,19.3118571 C54.7722121,18.8001549 57.459077,19.420684 61,21.1734445 L61,24.1734445 C57.1263849,21.8970965 54.4395201,20.943234 52.9394054,21.3118571 C47.6216745,22.6185826 43.7481699,26.0015275 40.1409091,26.1384125 C35.0072534,26.3332198 31.3405867,25.9998865 29.1409091,25.1384125 L28.1409091,24.1384125 Z" id="Rectangle-Copy-5"></path>
                <path d="M78,89 C78.1785429,89 78.960004,81.6842265 79.9140376,73.6242911 C80.1610946,71.537086 80.4197245,69.3999771 80.6824537,67.3270871 C81.121822,63.8605443 81.572655,60.5736004 82,58 C82.1342137,57.1917249 84.9086366,70.8961255 85,70 C85.1132864,68.8888458 85.4852585,59.9577854 85,56 C84.9154097,55.3100786 84.248743,52.9767452 83,49 C80.2101308,45.4505309 78.8399473,43.6624183 78.8894496,43.6356621 C79.6128657,43.2446523 79.4889845,42.4176771 80,42 C80.7642304,41.3753584 82,40.9979992 82,39 C82,34.8578644 82.4852814,31 80,31 C78.8524638,31 74.8358321,29.6006174 74,32 C73.0256251,34.7970906 73.831842,36.485555 74,37 C74.2187755,37.6692988 74.5805558,41.4595433 75,42 C75.7179843,42.9251275 75.6230833,43.4491348 76.4004249,43.7744912 C76.4394001,43.7908042 72.4984181,48.3607513 71,52 C70.6302294,52.898072 69.7808503,57.1683898 70,60 C70.4957225,66.4051771 72.8570727,66.4138945 73,67 C73.0849756,67.3484614 73.2711227,64.3392776 73.5584413,57.9724486 C76.3537654,78.6574829 77.834285,89 78,89 Z" id="Oval"></path>
            </g>
            <g id="breakers" transform="translate(668.564971, 751.177670) rotate(135.000000) translate(-668.564971, -751.177670) translate(607.564971, 703.677670)">
                <g id="breaker" transform="translate(0.362175, 67.137825)">
                    <polygon id="Rectangle-Copy-4" fill="#4B4B4B" points="5.47710375 2.91421356 19.7928932 21.9142136 17.5560511 21.9142136 2.79289322 2.91421356"></polygon>
                    <polygon id="Rectangle" fill="#303030" points="5.20641257 3.50663363 9.19119136 3.15801066 15.6538125 19.6575418 13.6614231 19.8318533"></polygon>
                    <polygon id="Rectangle" fill="#464646" points="13.1519661 2.91421356 15.9644661 2.91421356 3.77696609 21.9142136 0.964466094 21.9142136"></polygon>
                    <polygon id="Rectangle-Copy-4" fill="url(#linearGradient-16)" points="11.0092693 0.991309777 10.1995787 26.1576445 7.21099465 26.4191117 9.01687988 1.16562126"></polygon>
                </g>
                <g id="breaker-copy" transform="translate(39.444733, 53.807703)">
                    <polygon id="Rectangle-Copy-4" fill="#4B4B4B" points="5.47710375 2.91421356 19.7928932 21.9142136 17.5560511 21.9142136 2.79289322 2.91421356"></polygon>
                    <polygon id="Rectangle" fill="#303030" points="5.20641257 3.50663363 9.19119136 3.15801066 15.6538125 19.6575418 13.6614231 19.8318533"></polygon>
                    <polygon id="Rectangle" fill="#464646" points="13.1519661 2.91421356 15.9644661 2.91421356 3.77696609 21.9142136 0.964466094 21.9142136"></polygon>
                    <polygon id="Rectangle-Copy-4" fill="url(#linearGradient-16)" points="11.0092693 0.991309777 10.1995787 26.1576445 7.21099465 26.4191117 9.01687988 1.16562126"></polygon>
                </g>
                <g id="breaker-copy-4" transform="translate(16.221113, 40.782209)">
                    <polygon id="Rectangle-Copy-4" fill="#4B4B4B" points="5.47710375 2.91421356 19.7928932 21.9142136 17.5560511 21.9142136 2.79289322 2.91421356"></polygon>
                    <polygon id="Rectangle" fill="#303030" points="5.20641257 3.50663363 9.19119136 3.15801066 15.6538125 19.6575418 13.6614231 19.8318533"></polygon>
                    <polygon id="Rectangle" fill="#464646" points="13.1519661 2.91421356 15.9644661 2.91421356 3.77696609 21.9142136 0.964466094 21.9142136"></polygon>
                    <polygon id="Rectangle-Copy-4" fill="url(#linearGradient-16)" points="11.0092693 0.991309777 10.1995787 26.1576445 7.21099465 26.4191117 9.01687988 1.16562126"></polygon>
                </g>
                <g id="breaker-copy-2" transform="translate(81.272717, 27.060372)">
                    <polygon id="Rectangle-Copy-4" fill="#4B4B4B" points="5.47710375 2.91421356 19.7928932 21.9142136 17.5560511 21.9142136 2.79289322 2.91421356"></polygon>
                    <polygon id="Rectangle" fill="#303030" points="5.20641257 3.50663363 9.19119136 3.15801066 15.6538125 19.6575418 13.6614231 19.8318533"></polygon>
                    <polygon id="Rectangle" fill="#464646" points="13.1519661 2.91421356 15.9644661 2.91421356 3.77696609 21.9142136 0.964466094 21.9142136"></polygon>
                    <polygon id="Rectangle-Copy-4" fill="url(#linearGradient-16)" points="11.0092693 0.991309777 10.1995787 26.1576445 7.21099465 26.4191117 9.01687988 1.16562126"></polygon>
                </g>
                <g id="breaker-copy-3" transform="translate(52.121604, 26.599305)">
                    <polygon id="Rectangle-Copy-4" fill="#4B4B4B" points="5.47710375 2.91421356 19.7928932 21.9142136 17.5560511 21.9142136 2.79289322 2.91421356"></polygon>
                    <polygon id="Rectangle" fill="#303030" points="5.20641257 3.50663363 9.19119136 3.15801066 15.6538125 19.6575418 13.6614231 19.8318533"></polygon>
                    <polygon id="Rectangle" fill="#464646" points="13.1519661 2.91421356 15.9644661 2.91421356 3.77696609 21.9142136 0.964466094 21.9142136"></polygon>
                    <polygon id="Rectangle-Copy-4" fill="url(#linearGradient-16)" points="11.0092693 0.991309777 10.1995787 26.1576445 7.21099465 26.4191117 9.01687988 1.16562126"></polygon>
                </g>
                <g id="breaker-copy-5" transform="translate(101.010107, 0.238078)">
                    <polygon id="Rectangle-Copy-4" fill="#4B4B4B" points="5.47710375 2.91421356 19.7928932 21.9142136 17.5560511 21.9142136 2.79289322 2.91421356"></polygon>
                    <polygon id="Rectangle" fill="#303030" points="5.20641257 3.50663363 9.19119136 3.15801066 15.6538125 19.6575418 13.6614231 19.8318533"></polygon>
                    <polygon id="Rectangle" fill="#464646" points="13.1519661 2.91421356 15.9644661 2.91421356 3.77696609 21.9142136 0.964466094 21.9142136"></polygon>
                    <polygon id="Rectangle-Copy-4" fill="url(#linearGradient-16)" points="11.0092693 0.991309777 10.1995787 26.1576445 7.21099465 26.4191117 9.01687988 1.16562126"></polygon>
                </g>
            </g>
        </g>
        <circle id="Oval" stroke="#7C623E" fill="#F0BF81" cx="631.5" cy="295.5" r="3"></circle>
        <circle id="Oval-Copy-11" stroke="#7C623E" fill="#F0BF81" cx="609.5" cy="298.5" r="3"></circle>
        <circle id="Oval-Copy" stroke="#7C623E" fill="#F0BF81" cx="650.5" cy="297.5" r="1"></circle>
    </g>
</svg>