<?xml version="1.0" encoding="UTF-8"?>
<svg width="700px" height="700px" viewBox="0 0 700 700" version="1.1" xmlns="http://www.w3.org/2000/svg" xmlns:xlink="http://www.w3.org/1999/xlink">
    <!-- Generator: Sketch 62 (91390) - https://sketch.com -->
    <title>LOCA_view</title>
    <desc>Created with Sketch.</desc>
    <g id="LOCA_view" stroke="none" stroke-width="1" fill="none" fill-rule="evenodd">
        <g id="Group" transform="translate(57.000000, 83.000000)" stroke="#734266" stroke-width="63">
            <circle id="Oval" cx="270.258621" cy="270.258621" r="238.758621"></circle>
            <line x1="270.258621" y1="4.74137931" x2="270.258621" y2="545.258621" id="Line-4" stroke-linecap="round"></line>
            <path d="M275,0 C357.183908,93.5632028 398.275862,185.229869 398.275862,275 C398.275862,364.770131 357.183908,453.275878 275,540.517241" id="Line-4-Copy" stroke-linecap="round"></path>
            <path d="M275,0 C426.724138,75.862069 502.586207,167.528736 502.586207,275 C502.586207,382.471264 426.724138,470.977011 275,540.517241" id="Line-4-Copy-2" stroke-linecap="round"></path>
            <path d="M37.9310345,0 C189.655172,75.862069 265.517241,167.528736 265.517241,275 C265.517241,382.471264 189.655172,470.977011 37.9310345,540.517241" id="Line-4-Copy-2" stroke-linecap="round" transform="translate(151.724138, 270.258621) scale(-1, 1) translate(-151.724138, -270.258621) "></path>
            <path d="M142.241379,0 C224.425287,93.5632028 265.517241,185.229869 265.517241,275 C265.517241,364.770131 224.425287,453.275878 142.241379,540.517241" id="Line-4-Copy" stroke-linecap="round" transform="translate(203.879310, 270.258621) scale(-1, 1) translate(-203.879310, -270.258621) "></path>
            <line x1="4.74137931" y1="270.258621" x2="545.258621" y2="270.258621" id="Line-5" stroke-linecap="round"></line>
            <line x1="33.1896552" y1="384.051724" x2="507.327586" y2="384.051724" id="Line-5-Copy-2" stroke-linecap="round"></line>
            <line x1="33.1896552" y1="156.465517" x2="507.327586" y2="156.465517" id="Line-5-Copy" stroke-linecap="round"></line>
            <line x1="99.5689655" y1="71.1206897" x2="440.948276" y2="71.1206897" id="Line-5-Copy-3" stroke-linecap="round"></line>
            <line x1="109.051724" y1="478.87931" x2="431.465517" y2="478.87931" id="Line-5-Copy-4" stroke-linecap="round"></line>
        </g>
        <g id="Group" transform="translate(93.000000, 68.000000)" stroke="#FFFFFF" stroke-width="28">
            <circle id="Oval" cx="270.258621" cy="270.258621" r="256.258621"></circle>
            <line x1="270.258621" y1="4.74137931" x2="270.258621" y2="545.258621" id="Line-4" stroke-linecap="round"></line>
            <path d="M275,0 C357.183908,93.5632028 398.275862,185.229869 398.275862,275 C398.275862,364.770131 357.183908,453.275878 275,540.517241" id="Line-4-Copy" stroke-linecap="round"></path>
            <path d="M275,0 C426.724138,75.862069 502.586207,167.528736 502.586207,275 C502.586207,382.471264 426.724138,470.977011 275,540.517241" id="Line-4-Copy-2" stroke-linecap="round"></path>
            <path d="M37.9310345,0 C189.655172,75.862069 265.517241,167.528736 265.517241,275 C265.517241,382.471264 189.655172,470.977011 37.9310345,540.517241" id="Line-4-Copy-2" stroke-linecap="round" transform="translate(151.724138, 270.258621) scale(-1, 1) translate(-151.724138, -270.258621) "></path>
            <path d="M142.241379,0 C224.425287,93.5632028 265.517241,185.229869 265.517241,275 C265.517241,364.770131 224.425287,453.275878 142.241379,540.517241" id="Line-4-Copy" stroke-linecap="round" transform="translate(203.879310, 270.258621) scale(-1, 1) translate(-203.879310, -270.258621) "></path>
            <line x1="4.74137931" y1="270.258621" x2="545.258621" y2="270.258621" id="Line-5" stroke-linecap="round"></line>
            <line x1="33.1896552" y1="384.051724" x2="507.327586" y2="384.051724" id="Line-5-Copy-2" stroke-linecap="round"></line>
            <line x1="33.1896552" y1="156.465517" x2="507.327586" y2="156.465517" id="Line-5-Copy" stroke-linecap="round"></line>
            <line x1="99.5689655" y1="71.1206897" x2="440.948276" y2="71.1206897" id="Line-5-Copy-3" stroke-linecap="round"></line>
            <line x1="109.051724" y1="478.87931" x2="431.465517" y2="478.87931" id="Line-5-Copy-4" stroke-linecap="round"></line>
        </g>
        <g id="Group" transform="translate(79.000000, 78.000000)" stroke-width="26">
            <circle id="Oval" stroke="#FFD9BC" cx="270.258621" cy="270.258621" r="257.258621"></circle>
            <line x1="270.258621" y1="4.74137931" x2="270.258621" y2="545.258621" id="Line-4" stroke="#FFC0BC" stroke-linecap="round"></line>
            <path d="M275,0 C357.183908,93.5632028 398.275862,185.229869 398.275862,275 C398.275862,364.770131 357.183908,453.275878 275,540.517241" id="Line-4-Copy" stroke="#FFC0BC" stroke-linecap="round"></path>
            <path d="M275,0 C426.724138,75.862069 502.586207,167.528736 502.586207,275 C502.586207,382.471264 426.724138,470.977011 275,540.517241" id="Line-4-Copy-2" stroke="#FFC0BC" stroke-linecap="round"></path>
            <path d="M37.9310345,0 C189.655172,75.862069 265.517241,167.528736 265.517241,275 C265.517241,382.471264 189.655172,470.977011 37.9310345,540.517241" id="Line-4-Copy-2" stroke="#FFC0BC" stroke-linecap="round" transform="translate(151.724138, 270.258621) scale(-1, 1) translate(-151.724138, -270.258621) "></path>
            <path d="M142.241379,0 C224.425287,93.5632028 265.517241,185.229869 265.517241,275 C265.517241,364.770131 224.425287,453.275878 142.241379,540.517241" id="Line-4-Copy" stroke="#FFC0BC" stroke-linecap="round" transform="translate(203.879310, 270.258621) scale(-1, 1) translate(-203.879310, -270.258621) "></path>
            <line x1="4.74137931" y1="270.258621" x2="545.258621" y2="270.258621" id="Line-5" stroke="#E6D7B5" stroke-linecap="round"></line>
            <line x1="33.1896552" y1="384.051724" x2="507.327586" y2="384.051724" id="Line-5-Copy-2" stroke="#E6D7B5" stroke-linecap="round"></line>
            <line x1="33.1896552" y1="156.465517" x2="507.327586" y2="156.465517" id="Line-5-Copy" stroke="#E6D7B5" stroke-linecap="round"></line>
            <line x1="99.5689655" y1="71.1206897" x2="440.948276" y2="71.1206897" id="Line-5-Copy-3" stroke="#E6D7B5" stroke-linecap="round"></line>
            <line x1="109.051724" y1="478.87931" x2="431.465517" y2="478.87931" id="Line-5-Copy-4" stroke="#E6D7B5" stroke-linecap="round"></line>
        </g>
    </g>
</svg>