<?xml version="1.0" encoding="UTF-8"?>
<svg width="1318px" height="1318px" viewBox="0 0 1318 1318" version="1.1" xmlns="http://www.w3.org/2000/svg" xmlns:xlink="http://www.w3.org/1999/xlink">
    <!-- Generator: Sketch 62 (91390) - https://sketch.com -->
    <title>shadows</title>
    <desc>Created with Sketch.</desc>
    <defs>
        <filter x="-2.6%" y="-2.0%" width="105.2%" height="103.9%" filterUnits="objectBoundingBox" id="filter-1">
            <feGaussianBlur stdDeviation="2" in="SourceGraphic"></feGaussianBlur>
        </filter>
        <filter x="-3.5%" y="-4.0%" width="106.9%" height="108.0%" filterUnits="objectBoundingBox" id="filter-2">
            <feGaussianBlur stdDeviation="2" in="SourceGraphic"></feGaussianBlur>
        </filter>
        <filter x="-7.1%" y="-5.2%" width="114.1%" height="110.4%" filterUnits="objectBoundingBox" id="filter-3">
            <feGaussianBlur stdDeviation="2" in="SourceGraphic"></feGaussianBlur>
        </filter>
        <filter x="-1.5%" y="-2.9%" width="103.0%" height="105.9%" filterUnits="objectBoundingBox" id="filter-4">
            <feGaussianBlur stdDeviation="2" in="SourceGraphic"></feGaussianBlur>
        </filter>
        <filter x="-2.1%" y="-2.4%" width="104.2%" height="104.8%" filterUnits="objectBoundingBox" id="filter-5">
            <feGaussianBlur stdDeviation="2" in="SourceGraphic"></feGaussianBlur>
        </filter>
    </defs>
    <g id="shadows" stroke="none" stroke-width="1" fill="none" fill-rule="evenodd">
        <g id="image" transform="translate(229.507323, 269.586722)"></g>
        <g transform="translate(204.021791, 336.586722)" fill="#000000">
            <path d="M454.022898,277.999142 C455.797386,280.294672 457.618264,282.628292 459.485532,285 C456.024042,282.614735 452.667968,280.281147 449.41731,277.999235 L434.282142,278 C428.533053,273.569681 424.17687,269.139363 421.213595,264.709044 C409.862361,260.63504 397.624613,256.38997 385.324242,255.405513 C377.734312,254.798054 367.500441,254.798054 354.622629,255.405513 L354.622629,255.405513 L360.308112,252.456129 L353.485532,247.540489 C366.981246,246.822386 377.767973,246.819846 385.845713,247.532868 C396.235968,248.450016 406.902782,251.631471 416.953588,255.019164 C416.890005,254.717476 416.832936,254.415539 416.782336,254.113602 C404.832807,244.891121 395.400552,236.903374 388.485532,230.149606 C374.75027,216.73464 363.75027,201.159837 355.485532,183.425197 L355.485532,183.425197 L406.485532,156 C403.071034,163.34336 401.432266,171.126279 401.569227,179.348757 C403.708251,171.376852 409.013679,163.593817 417.485532,156 L417.485532,156 L441.908529,155.999621 C444.33452,151.940458 447.758492,147.940584 452.180447,144 L452.180447,144 L459.485532,143.999278 L459.486624,140.205685 C446.061547,144.611766 430.139115,148.150821 411.719328,150.822849 L410.485532,151 L419.029216,110.616128 C419.029004,110.615791 419.028791,110.615454 419.028579,110.615116 L410.485532,151 L353.485532,181 L355.485532,177 L406.172931,148.034749 C400.759548,143.403687 398.863748,137.25485 400.485532,129.588235 C401.78481,123.446191 406.756979,109.639928 415.402038,88.169445 C415.397315,87.677979 415.393846,87.1789439 415.391969,86.6719896 C415.033994,83.6260944 414.731841,80.1841045 414.485532,76.3454701 L414.485532,76.3454701 L426.485532,44 L500.978209,0.413277507 L529.485532,84.4318377 C527.704062,83.1057697 526.006018,81.8762618 524.3914,80.743314 C520.064382,79.3752438 517.096246,78.5857203 515.485532,78.3739373 C513.283408,78.0843934 511.550459,79.6118573 510.485532,79.3877868 C508.634498,78.998312 507.489918,76.3543346 506.485532,76.3462382 C504.116697,76.327143 502.661119,77.6361142 501.485532,78.3739373 C500.274824,79.133803 498.173326,78.4669867 496.80123,79.1861814 L521.485532,109.196078 C512.152199,115.313725 506.194243,115.213574 503.611667,108.895623 C500.275762,109.185464 497.233652,109.492255 494.485337,109.815994 L494.485532,143.999278 L527.383837,144 C520.606888,153.125926 517.150644,161.97237 517.015105,170.539333 L517.010956,171.063492 C517.010956,179.793651 524.502481,189.10582 539.485532,199 L539.485532,199 L496.016853,198.999641 C496.809736,200.322511 497.736137,201.655814 498.796057,202.999551 L521.638074,203 C518.085885,207.809619 515.654878,212.524359 514.345053,217.14422 C515.664957,218.091438 517.045328,219.043381 518.485532,220 L518.485532,220 L513.675945,220.000038 C513.356913,221.72781 513.197396,223.442083 513.197396,225.142857 C513.197396,232.285714 519.293441,239.904762 531.485532,248 L531.485532,248 L494.552685,247.999633 C494.524077,248.364882 494.501543,248.729619 494.485084,249.093844 L494.485523,251.582527 C495.039013,259.860865 502.372349,268.666689 516.485532,278 L516.485532,278 L466.485532,277.999278 L466.485532,298.776717 C464.065532,303.544084 449.013132,305.951604 421.328332,305.999278 L420.485532,306 C401.069975,306 374.209765,286.609236 346.485532,284.33015 C338.101944,283.640972 325.76861,288.456495 309.485532,298.776717 L309.485532,298.776717 L317.485532,288.45774 L309.485532,288.45774 C325.229791,280.081549 337.563125,276.297924 346.485532,277.106866 C373.881687,279.590715 403.018535,296.712921 420.485532,296.712921 C438.748946,296.712921 451.749208,295.355163 459.486317,292.639645 L459.485532,277.999278 Z M407.938891,206.858771 L407.950286,206.883913 C411.154119,214.427292 415.950175,223.277971 422.338453,233.435952 C424.55844,230.253642 427.40967,227.108038 430.892312,224 L430.892312,224 L448.515518,224.000039 C448.585989,222.659251 448.780672,221.325883 449.099568,219.999936 L421.485532,220 C415.826077,215.61959 411.31053,211.239181 407.938891,206.858771 Z M488.485052,110.620651 C483.300933,111.41772 479.634426,112.302339 477.485532,113.27451 C473.468076,115.092027 470.121154,136.37588 466.485532,137.745098 L466.485532,137.745098 L466.485532,143.999278 L488.485532,143.999278 Z" id="Combined-Shape" filter="url(#filter-1)"></path>
            <g id="rock_shadow" transform="translate(159.755761, 191.949504) scale(-1, 1) rotate(-56.000000) translate(-159.755761, -191.949504) translate(45.255761, 77.449504)">
                <path d="M32.934848,183.754293 C43.6800391,189.113143 66.0924733,192.695305 87.1214823,186.451972 C98.4441075,183.090381 107.596961,171.604782 118.777294,166.086915 C127.434012,161.814536 156.555923,154.752857 164.544851,150.921417 C184.26981,141.461451 195.983058,149.081426 200.974154,144.422078 C175.611502,117.108569 155.505399,98.2591605 140.655847,87.8738522 C118.381518,72.2958899 131.891684,26.5387746 71.9672596,42.9419259 C12.0428353,59.3450772 29.225979,180.28683 32.934848,183.754293 Z" id="Oval" filter="url(#filter-2)" transform="translate(114.393972, 114.599645) rotate(-45.000000) translate(-114.393972, -114.599645) "></path>
            </g>
            <g id="natives_shadow" transform="translate(236.882501, 112.923882) rotate(-45.000000) translate(-236.882501, -112.923882) translate(193.882501, 54.923882)">
                <path d="M48.1409091,0.138412525 L48.1409986,37.5149909 C49.5696432,44.9109224 52.0422054,58.5835811 52.1316596,57.6075483 C52.5874345,52.6346016 50.7595727,43.8265036 51.1349149,36.4964372 C51.3398625,32.4940129 51.7913755,29.783822 52.1409091,25.9408817 C52.4653841,22.3734462 51.7940061,17.4292169 52.1409091,14.2124866 C53.0934199,5.38013024 55.0195351,0.138412525 55.1218937,0.138412525 C55.29615,0.138412525 58.4583654,24.8408877 59.4862665,38.5919481 C59.5333578,39.2219263 60.0720562,40.0872086 61.1023617,41.1877952 C62.550643,41.3884438 63.2151395,40.9974973 63.0958511,40.0149557 C62.7721419,37.3486633 61.443149,33.8301448 59.1088724,29.4594002 L59.1409091,25.9408817 C59.8075757,27.5046677 60.7815991,29.479663 62.0629792,31.8658678 C63.9352775,35.3524889 66.8950412,37.9261782 70.9422704,39.5869355 C71.8055195,36.770668 73.0207397,36.6244327 73.1211318,36.1290401 C73.2030404,35.7248554 73.3806959,39.1444343 73.6540983,46.3877768 L73.6689091,46.7894125 L73.7513285,46.0646701 C76.442658,22.1138317 77.8688553,10.1384125 78.0299204,10.1384125 C78.2052062,10.1384125 78.9724117,18.78121 79.9090416,28.3031545 C80.1515917,30.7689622 80.4055035,33.293726 80.66344,35.742622 C81.0947932,39.8379685 81.5374019,43.7211382 81.9569512,46.7615696 C82.0887166,47.7164595 84.8125277,31.526188 84.9022244,32.5848636 C85.0134442,33.8975725 85.3786307,44.4486572 84.9022244,49.1243539 C84.8191772,49.9394217 84.1646721,52.6960034 82.938709,57.394099 C80.1997334,61.587414 78.8545451,63.6998762 78.9031443,63.7314858 C79.6133638,64.1934217 79.4917424,65.1704037 79.9934358,65.6638442 C80.7437249,66.4017909 81.9569512,66.8476 81.9569512,69.2080207 C81.9569512,74.1015072 82.43338,78.659158 79.9934358,78.659158 C78.8668333,78.659158 74.9234741,80.3123776 74.1028895,77.4777658 C73.1462895,74.1733048 73.9377991,72.1785662 74.1028895,71.570805 C74.317674,70.7801006 74.6728546,66.3023354 75.0846472,65.6638442 C75.7895338,64.5709057 75.696364,63.9518476 76.4595252,63.5674742 C76.4977894,63.5482021 72.6286998,58.1493024 71.1576164,53.8499225 C70.9322608,53.1912996 70.5254563,50.9974359 70.3007901,48.6279592 C70.2271539,48.8789614 70.1512165,49.135624 70.0730638,49.3976718 C70.2121122,51.3516378 60.9775651,54.5415917 61.1023617,56.4347088 C61.6374685,64.5520746 61.1448855,64.5551858 61.1023617,68.1631039 C61.0499719,72.6081102 57.8089573,79.0084142 57.9277563,79.0747561 C58.8123042,79.5687214 59.5463665,78.5943315 60.1056171,79.8914989 C60.708263,81.289321 61.1023617,85.0096891 61.1023617,86.928536 C61.1023617,87.1040749 61.1038557,87.278327 61.1064098,87.4511289 L61.1409091,87.4280532 L61.1415877,88.8108428 C61.2549231,92.4378371 61.3160114,95.1384125 56.6170107,95.1384125 C53.8505491,95.1384125 52.7339713,94.2023722 52.306596,92.6923255 C50.8820738,92.1817761 49.4828076,91.5116772 48.1410296,90.8224292 L48.1409091,106.924127 C48.8075757,107.445669 49.1409091,107.836825 49.1409091,108.097596 C49.1409091,108.358367 48.6409091,110.705306 47.6409091,115.138413 C46.6409091,110.705306 46.1409091,108.358367 46.1409091,108.097596 C46.1409091,107.836825 46.4742424,107.445669 47.1409091,106.924127 L47.1409091,106.924127 L47.1413277,104.253761 C41.9672566,105.907639 38.0014666,106.472995 35.2439578,105.94983 C27.3267444,104.447746 19.2168603,98.4687029 14.1821286,98.3388726 C6.35014288,98.1369097 1.66973639,99.5866159 0.140909072,102.687991 L0.140909072,102.687991 L0.140909072,99.4261522 C1.95650249,97.0397831 6.97122373,95.9525035 15.1850728,96.1643134 C20.9566901,96.3131457 26.7355883,102.354495 35.2439578,103.775271 C37.5128434,104.154142 41.4784703,103.248116 47.1408385,101.057192 L47.1409083,90.301428 C44.4613819,88.8909807 42.0552313,87.5476132 40.1923685,87.4677839 C35.2763863,87.2571194 31.2592332,87.2571194 28.1409091,87.4677839 L28.1409091,87.4677839 L29.1451974,86.3336582 C31.3543079,85.3566385 35.0366982,84.9785966 40.1923685,85.1995325 C42.3336269,85.2912918 44.5682976,86.6691786 47.1406655,88.0867905 L47.1409091,0.138412525 L48.1409091,0.138412525 Z M48.1417615,48.2059657 L48.1418446,88.6285252 C49.3625829,89.2738471 50.6608613,89.8941037 52.0602249,90.3691603 C52.0584661,89.3228837 52.1316596,88.1572309 52.1316596,86.928536 C52.1316596,83.1743006 54.125149,82.237178 54.125149,79.8914989 C54.125149,77.5458199 48.8499924,66.7557735 49.1414256,62.2989064 C49.1768511,61.7571459 48.6592589,55.0676901 48.1417615,48.2059657 Z" id="Combined-Shape" filter="url(#filter-3)"></path>
            </g>
            <g id="plane_shadow" transform="translate(632.452387, 453.483907) scale(1, -1) rotate(-113.000000) translate(-632.452387, -453.483907) translate(428.452387, 350.483907)">
                <path d="M114.324042,0.802392225 C114.733813,-4.19866478 161.890083,24.8410201 175.659201,35.1432892 C189.264616,45.3230738 214.53131,91.1890039 225.948526,110.025193 C227.601257,109.817568 229.251696,109.611163 230.899919,109.404598 C228.671591,102.999931 227.415333,95.7444587 227.415333,88.0580335 C227.415333,62.1006503 241.742221,41.0580335 259.415333,41.0580335 C277.088445,41.0580335 291.415333,62.1006503 291.415333,88.0580335 C291.415333,92.8396182 290.929179,97.4544302 290.025509,101.801658 C330.449435,96.4645928 369.448669,91.0257634 407.023758,85.4840247 C406.909589,89.2574435 365.80618,104.045482 283.713533,129.848139 C284.379608,140.059214 284.137308,147.513448 282.524044,147.513448 C278.829707,147.513448 272.328271,142.510852 265.767399,135.461006 C259.784692,137.323552 253.610584,139.237559 247.246353,141.202656 C256.785512,153.274803 267.492573,163.893618 275.983275,164.423553 C287.602824,165.148771 313.343604,141.150436 318.351114,148.063413 C319.089318,149.08252 321.632768,150.504157 325.981462,152.328322 C321.899856,157.85249 318.250535,162.833597 315.033499,167.271643 C326.090215,166.672508 333.771851,166.3248 333.771851,168.215392 C333.771851,171.409189 324.816316,187.795926 301.737953,187.795926 C301.447595,187.685587 301.163162,187.56522 300.884652,187.434826 C298.346598,191.303135 297.077781,193.576603 297.077781,194.256112 C297.077781,200.458024 294.384699,210.159511 280.179318,202.268988 C276.022841,199.96023 269.333174,201.931269 262.891433,199.053952 C249.615654,193.124091 214.254221,175.087162 182.268048,148.568932 C166.565121,149.796933 151.334549,150.40978 136.811759,150.546993 C137.131509,154.511412 137.137571,157.491046 136.755742,158.906351 C135.332967,164.180073 126.196261,159.111695 116.549855,150.434002 C48.5492328,149.029516 0.483018522,137.667214 0.624479753,132.89536 C23.967881,130.305227 48.3415585,127.557571 73.7455121,124.652392 C70.7083509,117.46449 68.955086,108.98546 68.955086,99.9049813 C68.955086,73.9475981 83.281974,52.9049813 100.955086,52.9049813 C109.548681,52.9049813 117.35109,57.8803292 123.099862,65.9768015 C114.793864,40.1485453 113.137407,15.2846875 114.324042,0.802392225 Z M131.945635,88.1578338 L132.025081,88.6103371 C132.632731,92.2283486 132.955086,96.0113738 132.955086,99.9049813 C132.955086,105.64621 132.254212,111.147008 130.971277,116.23287 C131.112548,116.817152 131.252342,117.404889 131.390387,117.995244 C137.369032,117.299242 143.397926,116.594871 149.477637,115.88273 C148.730303,114.954105 147.992877,114.019786 147.266624,113.07965 C141.185739,105.207931 136.127156,96.7808504 131.945635,88.1578338 Z" id="Combined-Shape" filter="url(#filter-4)"></path>
            </g>
            <path d="M376.035165,636.320385 C379.500672,636.320385 387.526744,648.898487 403.092324,647.268858 C409.824919,646.563993 432.151564,652.162424 476.807026,659.817798 C483.945801,661.041613 494.940702,657.593705 503.048392,659.192725 C509.778406,660.520036 520.622438,664.111202 535.580489,669.966224 C528.9488,654.609271 522.473408,642.974924 516.154313,635.063182 C509.835217,627.15144 497.980927,615.836346 480.591442,601.117899 C474.681166,585.830872 469.587486,575.701214 465.310403,570.728923 C456.99847,561.065949 437.655822,551.158817 431.375388,544.40629 C427.220596,539.939188 433.811691,519.58448 451.148672,483.342166 C443.88765,474.180433 437.991479,467.690128 433.460159,463.871252 C428.928839,460.052375 421.823302,455.585185 412.143549,450.46968 C387.453068,481.21745 372.779086,494.953885 368.121601,491.678984 C358.340841,484.801662 351.959875,475.442622 333.972735,464.373777 C329.666063,461.723557 319.488545,457.342244 303.440181,451.229838 C293.537128,441.898188 285.50662,435.395211 279.348656,431.720906 C273.190692,428.046602 263.309417,423.862062 249.704829,419.167285 C261.310832,431.925694 267.835732,440.255012 269.27953,444.155242 C274.341025,457.828198 254.053097,468.655253 257.356214,479.536515 C269.945742,521.00946 295.792523,544.480797 298.947981,553.931037 C303.927411,568.843867 321.20652,573.96317 326.430889,584.643263 C332.426299,596.899583 341.686944,634.029596 347.452817,641.553109 C359.747417,657.595535 367.768581,636.320385 376.035165,636.320385 Z" id="Oval" filter="url(#filter-5)" transform="translate(392.642659, 544.566755) scale(1, -1) rotate(-59.000000) translate(-392.642659, -544.566755) "></path>
        </g>
    </g>
</svg>