<?xml version="1.0" encoding="UTF-8"?>
<svg width="765px" height="428px" viewBox="0 0 765 428" version="1.1" xmlns="http://www.w3.org/2000/svg" xmlns:xlink="http://www.w3.org/1999/xlink">
    <!-- Generator: Sketch 62 (91390) - https://sketch.com -->
    <title>Title</title>
    <desc>Created with Sketch.</desc>
    <defs>
        <filter x="-94.1%" y="-31.4%" width="288.3%" height="162.8%" filterUnits="objectBoundingBox" id="filter-1">
            <feGaussianBlur stdDeviation="0" in="SourceGraphic"></feGaussianBlur>
        </filter>
        <filter x="-32.0%" y="-66.7%" width="164.0%" height="233.4%" filterUnits="objectBoundingBox" id="filter-2">
            <feGaussianBlur stdDeviation="0" in="SourceGraphic"></feGaussianBlur>
        </filter>
        <filter x="-114.3%" y="-38.1%" width="328.6%" height="176.2%" filterUnits="objectBoundingBox" id="filter-3">
            <feGaussianBlur stdDeviation="0" in="SourceGraphic"></feGaussianBlur>
        </filter>
        <filter x="-94.1%" y="-42.1%" width="288.3%" height="184.2%" filterUnits="objectBoundingBox" id="filter-4">
            <feGaussianBlur stdDeviation="0" in="SourceGraphic"></feGaussianBlur>
        </filter>
        <filter x="-53.3%" y="-123.1%" width="206.7%" height="346.2%" filterUnits="objectBoundingBox" id="filter-5">
            <feGaussianBlur stdDeviation="0" in="SourceGraphic"></feGaussianBlur>
        </filter>
        <filter x="-35.6%" y="-43.3%" width="171.1%" height="186.6%" filterUnits="objectBoundingBox" id="filter-6">
            <feGaussianBlur stdDeviation="0" in="SourceGraphic"></feGaussianBlur>
        </filter>
        <filter x="-133.3%" y="-1600.1%" width="366.7%" height="3300.2%" filterUnits="objectBoundingBox" id="filter-7">
            <feGaussianBlur stdDeviation="0" in="SourceGraphic"></feGaussianBlur>
        </filter>
        <filter x="-48.5%" y="-114.3%" width="197.0%" height="328.6%" filterUnits="objectBoundingBox" id="filter-8">
            <feGaussianBlur stdDeviation="0" in="SourceGraphic"></feGaussianBlur>
        </filter>
        <filter x="-13.6%" y="-16.8%" width="127.1%" height="133.7%" filterUnits="objectBoundingBox" id="filter-9">
            <feGaussianBlur stdDeviation="0" in="SourceGraphic"></feGaussianBlur>
        </filter>
        <filter x="-133.3%" y="-19.5%" width="366.7%" height="139.0%" filterUnits="objectBoundingBox" id="filter-10">
            <feGaussianBlur stdDeviation="0" in="SourceGraphic"></feGaussianBlur>
        </filter>
        <filter x="-20.0%" y="-16.7%" width="140.0%" height="133.3%" filterUnits="objectBoundingBox" id="filter-11">
            <feGaussianBlur stdDeviation="0" in="SourceGraphic"></feGaussianBlur>
        </filter>
        <filter x="-23.9%" y="-21.0%" width="147.8%" height="142.1%" filterUnits="objectBoundingBox" id="filter-12">
            <feGaussianBlur stdDeviation="0" in="SourceGraphic"></feGaussianBlur>
        </filter>
        <filter x="-23.2%" y="-26.7%" width="146.5%" height="153.3%" filterUnits="objectBoundingBox" id="filter-13">
            <feGaussianBlur stdDeviation="0" in="SourceGraphic"></feGaussianBlur>
        </filter>
        <filter x="-17.2%" y="-59.3%" width="134.4%" height="218.5%" filterUnits="objectBoundingBox" id="filter-14">
            <feGaussianBlur stdDeviation="0" in="SourceGraphic"></feGaussianBlur>
        </filter>
        <filter x="-38.1%" y="-17.6%" width="176.2%" height="135.2%" filterUnits="objectBoundingBox" id="filter-15">
            <feGaussianBlur stdDeviation="0" in="SourceGraphic"></feGaussianBlur>
        </filter>
        <filter x="-43.2%" y="-17.8%" width="186.5%" height="135.6%" filterUnits="objectBoundingBox" id="filter-16">
            <feGaussianBlur stdDeviation="0" in="SourceGraphic"></feGaussianBlur>
        </filter>
        <filter x="-21.4%" y="-66.5%" width="142.8%" height="233.0%" filterUnits="objectBoundingBox" id="filter-17">
            <feGaussianBlur stdDeviation="0" in="SourceGraphic"></feGaussianBlur>
        </filter>
        <filter x="-72.2%" y="-217.9%" width="244.3%" height="535.8%" filterUnits="objectBoundingBox" id="filter-18">
            <feGaussianBlur stdDeviation="0" in="SourceGraphic"></feGaussianBlur>
        </filter>
        <filter x="-24.4%" y="-19.1%" width="148.7%" height="138.2%" filterUnits="objectBoundingBox" id="filter-19">
            <feGaussianBlur stdDeviation="0" in="SourceGraphic"></feGaussianBlur>
        </filter>
        <filter x="-23.3%" y="-54.7%" width="146.6%" height="209.4%" filterUnits="objectBoundingBox" id="filter-20">
            <feGaussianBlur stdDeviation="0" in="SourceGraphic"></feGaussianBlur>
        </filter>
        <filter x="-14.3%" y="-16.3%" width="128.5%" height="132.6%" filterUnits="objectBoundingBox" id="filter-21">
            <feGaussianBlur stdDeviation="0" in="SourceGraphic"></feGaussianBlur>
        </filter>
        <filter x="-43.3%" y="-27.1%" width="186.7%" height="154.2%" filterUnits="objectBoundingBox" id="filter-22">
            <feGaussianBlur stdDeviation="0" in="SourceGraphic"></feGaussianBlur>
        </filter>
        <filter x="-19.8%" y="-21.5%" width="139.6%" height="143.0%" filterUnits="objectBoundingBox" id="filter-23">
            <feGaussianBlur stdDeviation="0" in="SourceGraphic"></feGaussianBlur>
        </filter>
        <filter x="-25.6%" y="-127.8%" width="151.2%" height="355.7%" filterUnits="objectBoundingBox" id="filter-24">
            <feGaussianBlur stdDeviation="0" in="SourceGraphic"></feGaussianBlur>
        </filter>
        <filter x="-594.8%" y="-17.8%" width="1288.6%" height="135.5%" filterUnits="objectBoundingBox" id="filter-25">
            <feGaussianBlur stdDeviation="0" in="SourceGraphic"></feGaussianBlur>
        </filter>
        <filter x="-65.4%" y="-32.2%" width="230.7%" height="164.5%" filterUnits="objectBoundingBox" id="filter-26">
            <feGaussianBlur stdDeviation="0" in="SourceGraphic"></feGaussianBlur>
        </filter>
        <filter x="-26.5%" y="-46.7%" width="153.0%" height="193.4%" filterUnits="objectBoundingBox" id="filter-27">
            <feGaussianBlur stdDeviation="0" in="SourceGraphic"></feGaussianBlur>
        </filter>
        <filter x="-18.2%" y="-15.6%" width="136.3%" height="131.2%" filterUnits="objectBoundingBox" id="filter-28">
            <feGaussianBlur stdDeviation="0" in="SourceGraphic"></feGaussianBlur>
        </filter>
        <filter x="-17.0%" y="-26.2%" width="134.0%" height="152.6%" filterUnits="objectBoundingBox" id="filter-29">
            <feGaussianBlur stdDeviation="0" in="SourceGraphic"></feGaussianBlur>
        </filter>
        <filter x="-37.1%" y="-80.7%" width="174.3%" height="261.4%" filterUnits="objectBoundingBox" id="filter-30">
            <feGaussianBlur stdDeviation="0" in="SourceGraphic"></feGaussianBlur>
        </filter>
        <filter x="-33.2%" y="-58.3%" width="166.4%" height="216.6%" filterUnits="objectBoundingBox" id="filter-31">
            <feGaussianBlur stdDeviation="0" in="SourceGraphic"></feGaussianBlur>
        </filter>
        <filter x="-15.7%" y="-31.4%" width="131.3%" height="162.9%" filterUnits="objectBoundingBox" id="filter-32">
            <feGaussianBlur stdDeviation="0" in="SourceGraphic"></feGaussianBlur>
        </filter>
        <filter x="-47.9%" y="-104.4%" width="195.9%" height="308.7%" filterUnits="objectBoundingBox" id="filter-33">
            <feGaussianBlur stdDeviation="0" in="SourceGraphic"></feGaussianBlur>
        </filter>
        <filter x="-24.0%" y="-42.0%" width="148.0%" height="184.0%" filterUnits="objectBoundingBox" id="filter-34">
            <feGaussianBlur stdDeviation="0" in="SourceGraphic"></feGaussianBlur>
        </filter>
        <filter x="-55.9%" y="-18.6%" width="211.8%" height="137.3%" filterUnits="objectBoundingBox" id="filter-35">
            <feGaussianBlur stdDeviation="0" in="SourceGraphic"></feGaussianBlur>
        </filter>
        <filter x="-19.0%" y="-39.6%" width="138.0%" height="179.2%" filterUnits="objectBoundingBox" id="filter-36">
            <feGaussianBlur stdDeviation="0" in="SourceGraphic"></feGaussianBlur>
        </filter>
        <filter x="-67.9%" y="-22.6%" width="235.7%" height="145.2%" filterUnits="objectBoundingBox" id="filter-37">
            <feGaussianBlur stdDeviation="0" in="SourceGraphic"></feGaussianBlur>
        </filter>
        <filter x="-55.9%" y="-25.0%" width="211.8%" height="150.0%" filterUnits="objectBoundingBox" id="filter-38">
            <feGaussianBlur stdDeviation="0" in="SourceGraphic"></feGaussianBlur>
        </filter>
        <filter x="-31.7%" y="-73.1%" width="163.3%" height="246.2%" filterUnits="objectBoundingBox" id="filter-39">
            <feGaussianBlur stdDeviation="0" in="SourceGraphic"></feGaussianBlur>
        </filter>
        <filter x="-21.1%" y="-25.7%" width="142.2%" height="151.4%" filterUnits="objectBoundingBox" id="filter-40">
            <feGaussianBlur stdDeviation="0" in="SourceGraphic"></feGaussianBlur>
        </filter>
        <filter x="-79.2%" y="-950.1%" width="258.3%" height="2000.1%" filterUnits="objectBoundingBox" id="filter-41">
            <feGaussianBlur stdDeviation="0" in="SourceGraphic"></feGaussianBlur>
        </filter>
        <filter x="-28.8%" y="-67.9%" width="157.6%" height="235.7%" filterUnits="objectBoundingBox" id="filter-42">
            <feGaussianBlur stdDeviation="0" in="SourceGraphic"></feGaussianBlur>
        </filter>
        <filter x="-8.1%" y="-10.0%" width="116.1%" height="120.0%" filterUnits="objectBoundingBox" id="filter-43">
            <feGaussianBlur stdDeviation="0" in="SourceGraphic"></feGaussianBlur>
        </filter>
        <filter x="-79.2%" y="-11.6%" width="258.3%" height="123.2%" filterUnits="objectBoundingBox" id="filter-44">
            <feGaussianBlur stdDeviation="0" in="SourceGraphic"></feGaussianBlur>
        </filter>
        <filter x="-11.9%" y="-9.9%" width="123.8%" height="119.8%" filterUnits="objectBoundingBox" id="filter-45">
            <feGaussianBlur stdDeviation="0" in="SourceGraphic"></feGaussianBlur>
        </filter>
        <filter x="-14.2%" y="-12.5%" width="128.4%" height="125.0%" filterUnits="objectBoundingBox" id="filter-46">
            <feGaussianBlur stdDeviation="0" in="SourceGraphic"></feGaussianBlur>
        </filter>
        <filter x="-13.8%" y="-15.8%" width="127.6%" height="131.7%" filterUnits="objectBoundingBox" id="filter-47">
            <feGaussianBlur stdDeviation="0" in="SourceGraphic"></feGaussianBlur>
        </filter>
        <filter x="-10.2%" y="-35.2%" width="120.4%" height="170.4%" filterUnits="objectBoundingBox" id="filter-48">
            <feGaussianBlur stdDeviation="0" in="SourceGraphic"></feGaussianBlur>
        </filter>
        <filter x="-22.6%" y="-10.4%" width="145.2%" height="120.9%" filterUnits="objectBoundingBox" id="filter-49">
            <feGaussianBlur stdDeviation="0" in="SourceGraphic"></feGaussianBlur>
        </filter>
        <filter x="-25.7%" y="-10.6%" width="151.4%" height="121.1%" filterUnits="objectBoundingBox" id="filter-50">
            <feGaussianBlur stdDeviation="0" in="SourceGraphic"></feGaussianBlur>
        </filter>
        <filter x="-12.7%" y="-39.5%" width="125.4%" height="179.0%" filterUnits="objectBoundingBox" id="filter-51">
            <feGaussianBlur stdDeviation="0" in="SourceGraphic"></feGaussianBlur>
        </filter>
        <filter x="-42.8%" y="-129.4%" width="185.7%" height="358.8%" filterUnits="objectBoundingBox" id="filter-52">
            <feGaussianBlur stdDeviation="0" in="SourceGraphic"></feGaussianBlur>
        </filter>
        <filter x="-14.5%" y="-11.3%" width="128.9%" height="122.6%" filterUnits="objectBoundingBox" id="filter-53">
            <feGaussianBlur stdDeviation="0" in="SourceGraphic"></feGaussianBlur>
        </filter>
        <filter x="-13.8%" y="-32.5%" width="127.6%" height="164.9%" filterUnits="objectBoundingBox" id="filter-54">
            <feGaussianBlur stdDeviation="0" in="SourceGraphic"></feGaussianBlur>
        </filter>
        <filter x="-8.5%" y="-9.7%" width="116.9%" height="119.4%" filterUnits="objectBoundingBox" id="filter-55">
            <feGaussianBlur stdDeviation="0" in="SourceGraphic"></feGaussianBlur>
        </filter>
        <filter x="-25.7%" y="-16.1%" width="151.5%" height="132.2%" filterUnits="objectBoundingBox" id="filter-56">
            <feGaussianBlur stdDeviation="0" in="SourceGraphic"></feGaussianBlur>
        </filter>
        <filter x="-11.8%" y="-12.8%" width="123.5%" height="125.5%" filterUnits="objectBoundingBox" id="filter-57">
            <feGaussianBlur stdDeviation="0" in="SourceGraphic"></feGaussianBlur>
        </filter>
        <filter x="-15.2%" y="-75.9%" width="130.4%" height="251.8%" filterUnits="objectBoundingBox" id="filter-58">
            <feGaussianBlur stdDeviation="0" in="SourceGraphic"></feGaussianBlur>
        </filter>
        <filter x="-353.5%" y="-10.5%" width="806.0%" height="121.1%" filterUnits="objectBoundingBox" id="filter-59">
            <feGaussianBlur stdDeviation="0" in="SourceGraphic"></feGaussianBlur>
        </filter>
        <filter x="-38.8%" y="-19.1%" width="177.6%" height="138.3%" filterUnits="objectBoundingBox" id="filter-60">
            <feGaussianBlur stdDeviation="0" in="SourceGraphic"></feGaussianBlur>
        </filter>
        <filter x="-15.7%" y="-27.7%" width="131.4%" height="155.5%" filterUnits="objectBoundingBox" id="filter-61">
            <feGaussianBlur stdDeviation="0" in="SourceGraphic"></feGaussianBlur>
        </filter>
        <filter x="-10.8%" y="-9.3%" width="121.6%" height="118.6%" filterUnits="objectBoundingBox" id="filter-62">
            <feGaussianBlur stdDeviation="0" in="SourceGraphic"></feGaussianBlur>
        </filter>
        <filter x="-10.1%" y="-15.6%" width="120.2%" height="131.2%" filterUnits="objectBoundingBox" id="filter-63">
            <feGaussianBlur stdDeviation="0" in="SourceGraphic"></feGaussianBlur>
        </filter>
        <filter x="-22.1%" y="-47.9%" width="144.1%" height="195.9%" filterUnits="objectBoundingBox" id="filter-64">
            <feGaussianBlur stdDeviation="0" in="SourceGraphic"></feGaussianBlur>
        </filter>
        <filter x="-19.7%" y="-34.6%" width="139.5%" height="169.3%" filterUnits="objectBoundingBox" id="filter-65">
            <feGaussianBlur stdDeviation="0" in="SourceGraphic"></feGaussianBlur>
        </filter>
        <filter x="-9.3%" y="-18.7%" width="118.6%" height="137.3%" filterUnits="objectBoundingBox" id="filter-66">
            <feGaussianBlur stdDeviation="0" in="SourceGraphic"></feGaussianBlur>
        </filter>
        <filter x="-28.5%" y="-62.0%" width="156.9%" height="223.9%" filterUnits="objectBoundingBox" id="filter-67">
            <feGaussianBlur stdDeviation="0" in="SourceGraphic"></feGaussianBlur>
        </filter>
        <filter x="-14.2%" y="-24.9%" width="128.3%" height="149.9%" filterUnits="objectBoundingBox" id="filter-68">
            <feGaussianBlur stdDeviation="0" in="SourceGraphic"></feGaussianBlur>
        </filter>
    </defs>
    <g id="Title" stroke="none" stroke-width="1" fill="none" fill-rule="evenodd" stroke-linecap="round">
        <g id="Group" transform="translate(34.000000, 37.000000)" stroke="#734266" stroke-width="32">
            <path d="M21,10 C27.1870516,44.8437779 21.7507386,27.7650098 38,61" id="Path" filter="url(#filter-1)"></path>
            <path d="M0,26 C17.7283706,19.7934701 32.5386859,8.74663656 50,2" id="Path-2" filter="url(#filter-2)"></path>
            <path d="M58,16 C61.1597073,30.7552742 69.1108816,43.1828593 72,58" id="Path-3" filter="url(#filter-3)"></path>
            <path d="M79,14 C82.4957961,27.7920609 91.3382685,38.5987019 96,52" id="Path-4" filter="url(#filter-4)"></path>
            <path d="M66,44 C76,39.6666667 86,35.3333333 96,31" id="Path-5" filter="url(#filter-5)"></path>
            <path d="M102,9 C115.657869,34.6744522 114.465607,59.6149754 147,37.4120882" id="Path-6" filter="url(#filter-6)"></path>
            <path d="M109,30 C113,29.6666667 117,29.3333333 121,29" id="Path-7" filter="url(#filter-7)"></path>
            <path d="M100,14 C112.093801,11.8230378 120.919023,2.50712684 133,0" id="Path-8" filter="url(#filter-8)"></path>
            <path d="M24,102.565811 C82.4531125,175.67391 24.3496575,100.902919 72.5922724,168.656569 C72.8843086,169.066715 74.0890843,169.159875 74.1027559,168.656569 L74.1027559,130.707259 C74.1560144,128.746611 73.3379884,125.134192 75.2901462,124.944194 C77.4896241,124.730125 77.3128106,129.303101 79.3332915,130.198186 L84.8071425,132.935052 C98.3136743,138.918525 111.753663,145.067922 125.441411,150.624355 C130.373979,152.626691 135.448003,156.853786 140.619734,155.591728 C143.427794,154.906477 141.172813,149.757426 140.619734,146.920387 C137.559782,131.224255 132.848956,115.879172 129.816791,100.177649 C128.366648,92.6683458 128.580679,84.9050278 127.191409,77.3842248 C126.946663,76.0592922 125.717911,75.1280749 124.981162,74" id="Path-9" filter="url(#filter-9)"></path>
            <path d="M156.028005,65 C156.028005,105.485417 154.83633,77.8727004 168,147" id="Path-10" filter="url(#filter-10)"></path>
            <path d="M189.889628,63 C189.380633,174.889073 162.777499,166.091652 210.224945,148.421054 C221.44092,144.243949 232.845172,140.494437 244.447707,137.556116 C250.165618,136.108066 256.149236,136.058117 262,135.309117" id="Path-11" filter="url(#filter-11)"></path>
            <path d="M282.53059,58.0295333 C269.880499,58.0295333 268.869483,56.9228193 253.991477,68.2590135 C250.504011,70.9162643 243.890228,90.5693286 243.610678,92.6073073 C242.389416,101.510583 241.05801,110.766207 242.93332,119.556214 C244.000231,124.557072 258.733844,130.138672 261.764425,131.090544 C278.653907,136.395348 310.87262,136.87926 308.914672,111.112287" id="Path-12" filter="url(#filter-12)"></path>
            <path d="M351.746944,59 C317.142954,61.6752016 316.707905,116.703229 340.472484,118.889483 C361.403096,120.815022 418.276521,97.2809861 380.160698,71.5887771 C367.992871,63.3869773 331.433173,65.4998618 328.556221,65.3299054" id="Path-13" filter="url(#filter-13)"></path>
            <path d="M388,49 C420.990044,49 451.40249,63.1048057 481,76" id="Path-14" filter="url(#filter-14)"></path>
            <path d="M453,26 C418.052365,96.1967763 431.101603,65.4401748 411,117" id="Path-15" filter="url(#filter-15)"></path>
            <path d="M168.537221,197.205401 C171.028437,210.433539 200.17851,273.199757 205.538748,287.131745" id="Path-16" filter="url(#filter-16)"></path>
            <path d="M164.406377,194.701201 C221.238896,178.382613 196.520617,186.953748 239.114637,170.643054" id="Path-17" filter="url(#filter-17)"></path>
            <path d="M186.718498,246.103673 C194.11211,243.655409 201.505723,241.207144 208.899335,238.75888" id="Path-18" filter="url(#filter-18)"></path>
            <path d="M261.820336,272.331497 C261.820336,244.526332 261.508603,216.719419 261.820336,188.916002 C261.835046,187.604041 261.979204,191.661743 262.71261,192.749664 C264.914899,196.016498 267.679452,198.881828 270.436173,201.696572 C277.701304,209.114618 285.070689,216.442866 292.755653,223.425049 C298.005931,228.195194 304.124922,231.975146 309.208165,236.922908 C315.702064,243.243728 321.328956,250.398085 327.389351,257.135673" id="Path-19" filter="url(#filter-19)"></path>
            <path d="M250.596181,244.373183 C258.280094,240.480255 302.774732,212.992355 319.23705,215.228683 C319.672217,215.287799 318.745168,215.956361 318.499227,216.320199" id="Path-20" filter="url(#filter-20)"></path>
            <path d="M360.456459,246.771085 C359.193008,226.093676 361.448623,245.239603 344.802914,208.030709 C340.124303,197.572402 320.647237,175.076644 332.057686,176.10972 C351.705773,177.888614 363.596972,199.829336 379.724345,211.192417 C383.421666,213.797488 388.769333,221.598481 391.476179,217.975008 C396.06347,211.834309 392.06218,202.644469 391.833325,194.982938 C391.258592,175.742255 390.192448,166.969427 386.312601,148.896134 C385.93318,147.1287 385.994312,152.687611 386.820654,154.295387 C388.663757,157.881422 391.402242,160.95446 394.065873,163.981298 C398.927412,169.505747 403.972912,174.888606 409.357184,179.904951 C442.543029,210.823092 417.534156,183.001718 441.302885,210.909862" id="Path-21" filter="url(#filter-21)"></path>
            <path d="M431.125091,147.196806 C459.68485,196.448715 446.326968,177.457517 468.052209,206.258426" id="Path-22" filter="url(#filter-22)"></path>
            <path d="M465.259185,134.060272 C465.624205,136.79845 465.504516,139.646344 466.354245,142.274808 C493.641921,226.683769 469.246586,215.697333 515.785737,189.604673 C525.520976,184.146509 535.973426,180.079814 546.067271,175.317385" id="Path-23" filter="url(#filter-23)"></path>
            <path d="M515.591946,115.649681 C536.409191,119.822318 557.226436,123.994955 578.04368,128.167592" id="Path-24" filter="url(#filter-24)"></path>
            <path d="M578.966663,76.7116074 C578.966663,161.299904 574.970074,131.526207 580.201819,166.825382" id="Path-25" filter="url(#filter-25)"></path>
            <path d="M412.058355,294.021452 C429.390623,332.641384 420.742134,316.338752 436.538518,343.678989" id="Path-26" filter="url(#filter-26)"></path>
            <path d="M374.187813,313.923225 C394.335102,302.503704 414.482392,291.084183 434.629682,279.664662" id="Path-27" filter="url(#filter-27)"></path>
            <path d="M458.442524,269.171606 C486.464543,335.700225 467.634446,288.11695 488.126059,346.240245 C488.966256,348.623417 487.265626,341.15387 486.010803,338.960503 C479.908092,328.29327 472.192531,318.597719 466.179896,307.879456 C462.04746,300.512878 458.585276,292.751758 455.646774,284.832874 C454.46933,281.659815 454.099901,278.207599 453.915375,274.828157 C453.520924,267.604087 452.673149,260.251052 453.915375,253.123665 C454.31843,250.8111 456.571869,249.036801 458.612693,247.876865 C461.926244,245.993553 465.70442,244.887674 469.46771,244.284237 C485.013963,241.791423 493.448482,254.971808 489.569451,270.711395 C488.532133,274.920427 484.557458,277.838502 481.492286,280.903906 C473.738697,288.658083 465.012325,295.391946 457.198192,303.085107 C455.542991,304.714684 460.860123,300.163273 462.953137,299.156049 C465.81448,297.779079 468.779965,296.318936 471.938476,295.991615 C480.976246,295.055016 490.126831,294.76283 499.190584,295.400702 C503.264435,295.687404 507.21657,297.150288 510.978759,298.739121 C520.388382,302.712955 529.481752,307.40609 538.585561,312.037829 C539.503181,312.504686 540.435939,313.119689 540.971924,313.998725 C541.425085,314.741928 541.22807,315.720705 541.356144,316.581695" id="Path-28" filter="url(#filter-28)"></path>
            <path d="M513.338593,240.40324 C573.057288,324.323398 533.613844,303.922516 576.256225,282.534003 C584.803177,278.247033 593.497543,274.249949 602.266636,270.437925 C603.857693,269.746274 605.579007,268.715324 607.281941,269.046773 C608.138192,269.213429 606.198299,270.414061 605.656478,271.097704" id="Path-29" filter="url(#filter-29)"></path>
            <path d="M530.366845,268.174124 C559.580693,251.921433 545.099908,258.264973 573.45248,248.349122" id="Path-30" filter="url(#filter-30)"></path>
            <path d="M510.971218,246.141469 C527.026458,236.995076 543.081698,227.848684 559.136937,218.702292" id="Path-31" filter="url(#filter-31)"></path>
            <path d="M595.399188,205.689319 C598.528098,208.194912 601.960742,210.362429 604.785918,213.206098 C660.369949,269.15397 624.815115,261.114968 663.830003,243.596202 C674.70268,238.714069 686.319925,235.696535 697.564885,231.746701" id="Path-32" filter="url(#filter-32)"></path>
            <path d="M619.037863,232.235676 C644.773292,218.72219 633.353753,223.140078 652.417417,216.902117" id="Path-33" filter="url(#filter-33)"></path>
            <path d="M592.363948,211.749169 C728.57346,136.066823 604.781669,200.351522 658.534505,178.437846 C659.532299,178.03107 656.379455,178.437846 655.301931,178.437846" id="Path-34" filter="url(#filter-34)"></path>
        </g>
        <g id="Group" transform="translate(37.000000, 34.000000)" stroke="#FFFFFF" stroke-width="19">
            <path d="M21,10 C27.1870516,44.8437779 21.7507386,27.7650098 38,61" id="Path" filter="url(#filter-35)"></path>
            <path d="M0,26 C17.7283706,19.7934701 32.5386859,8.74663656 50,2" id="Path-2" filter="url(#filter-36)"></path>
            <path d="M58,16 C61.1597073,30.7552742 69.1108816,43.1828593 72,58" id="Path-3" filter="url(#filter-37)"></path>
            <path d="M79,14 C82.4957961,27.7920609 91.3382685,38.5987019 96,52" id="Path-4" filter="url(#filter-38)"></path>
            <path d="M66,44 C76,39.6666667 86,35.3333333 96,31" id="Path-5" filter="url(#filter-39)"></path>
            <path d="M102,9 C115.657869,34.6744522 114.465607,59.6149754 147,37.4120882" id="Path-6" filter="url(#filter-40)"></path>
            <path d="M109,30 C113,29.6666667 117,29.3333333 121,29" id="Path-7" filter="url(#filter-41)"></path>
            <path d="M100,14 C112.093801,11.8230378 120.919023,2.50712684 133,0" id="Path-8" filter="url(#filter-42)"></path>
            <path d="M24,102.565811 C82.4531125,175.67391 24.3496575,100.902919 72.5922724,168.656569 C72.8843086,169.066715 74.0890843,169.159875 74.1027559,168.656569 L74.1027559,130.707259 C74.1560144,128.746611 73.3379884,125.134192 75.2901462,124.944194 C77.4896241,124.730125 77.3128106,129.303101 79.3332915,130.198186 L84.8071425,132.935052 C98.3136743,138.918525 111.753663,145.067922 125.441411,150.624355 C130.373979,152.626691 135.448003,156.853786 140.619734,155.591728 C143.427794,154.906477 141.172813,149.757426 140.619734,146.920387 C137.559782,131.224255 132.848956,115.879172 129.816791,100.177649 C128.366648,92.6683458 128.580679,84.9050278 127.191409,77.3842248 C126.946663,76.0592922 125.717911,75.1280749 124.981162,74" id="Path-9" filter="url(#filter-43)"></path>
            <path d="M156.028005,65 C156.028005,105.485417 154.83633,77.8727004 168,147" id="Path-10" filter="url(#filter-44)"></path>
            <path d="M189.889628,63 C189.380633,174.889073 162.777499,166.091652 210.224945,148.421054 C221.44092,144.243949 232.845172,140.494437 244.447707,137.556116 C250.165618,136.108066 256.149236,136.058117 262,135.309117" id="Path-11" filter="url(#filter-45)"></path>
            <path d="M282.53059,58.0295333 C269.880499,58.0295333 268.869483,56.9228193 253.991477,68.2590135 C250.504011,70.9162643 243.890228,90.5693286 243.610678,92.6073073 C242.389416,101.510583 241.05801,110.766207 242.93332,119.556214 C244.000231,124.557072 258.733844,130.138672 261.764425,131.090544 C278.653907,136.395348 310.87262,136.87926 308.914672,111.112287" id="Path-12" filter="url(#filter-46)"></path>
            <path d="M351.746944,59 C317.142954,61.6752016 316.707905,116.703229 340.472484,118.889483 C361.403096,120.815022 418.276521,97.2809861 380.160698,71.5887771 C367.992871,63.3869773 331.433173,65.4998618 328.556221,65.3299054" id="Path-13" filter="url(#filter-47)"></path>
            <path d="M388,49 C420.990044,49 451.40249,63.1048057 481,76" id="Path-14" filter="url(#filter-48)"></path>
            <path d="M453,26 C418.052365,96.1967763 431.101603,65.4401748 411,117" id="Path-15" filter="url(#filter-49)"></path>
            <path d="M168.537221,197.205401 C171.028437,210.433539 200.17851,273.199757 205.538748,287.131745" id="Path-16" filter="url(#filter-50)"></path>
            <path d="M164.406377,194.701201 C221.238896,178.382613 196.520617,186.953748 239.114637,170.643054" id="Path-17" filter="url(#filter-51)"></path>
            <path d="M186.718498,246.103673 C194.11211,243.655409 201.505723,241.207144 208.899335,238.75888" id="Path-18" filter="url(#filter-52)"></path>
            <path d="M261.820336,272.331497 C261.820336,244.526332 261.508603,216.719419 261.820336,188.916002 C261.835046,187.604041 261.979204,191.661743 262.71261,192.749664 C264.914899,196.016498 267.679452,198.881828 270.436173,201.696572 C277.701304,209.114618 285.070689,216.442866 292.755653,223.425049 C298.005931,228.195194 304.124922,231.975146 309.208165,236.922908 C315.702064,243.243728 321.328956,250.398085 327.389351,257.135673" id="Path-19" filter="url(#filter-53)"></path>
            <path d="M250.596181,244.373183 C258.280094,240.480255 302.774732,212.992355 319.23705,215.228683 C319.672217,215.287799 318.745168,215.956361 318.499227,216.320199" id="Path-20" filter="url(#filter-54)"></path>
            <path d="M360.456459,246.771085 C359.193008,226.093676 361.448623,245.239603 344.802914,208.030709 C340.124303,197.572402 320.647237,175.076644 332.057686,176.10972 C351.705773,177.888614 363.596972,199.829336 379.724345,211.192417 C383.421666,213.797488 388.769333,221.598481 391.476179,217.975008 C396.06347,211.834309 392.06218,202.644469 391.833325,194.982938 C391.258592,175.742255 390.192448,166.969427 386.312601,148.896134 C385.93318,147.1287 385.994312,152.687611 386.820654,154.295387 C388.663757,157.881422 391.402242,160.95446 394.065873,163.981298 C398.927412,169.505747 403.972912,174.888606 409.357184,179.904951 C442.543029,210.823092 417.534156,183.001718 441.302885,210.909862" id="Path-21" filter="url(#filter-55)"></path>
            <path d="M431.125091,147.196806 C459.68485,196.448715 446.326968,177.457517 468.052209,206.258426" id="Path-22" filter="url(#filter-56)"></path>
            <path d="M465.259185,134.060272 C465.624205,136.79845 465.504516,139.646344 466.354245,142.274808 C493.641921,226.683769 469.246586,215.697333 515.785737,189.604673 C525.520976,184.146509 535.973426,180.079814 546.067271,175.317385" id="Path-23" filter="url(#filter-57)"></path>
            <path d="M515.591946,115.649681 C536.409191,119.822318 557.226436,123.994955 578.04368,128.167592" id="Path-24" filter="url(#filter-58)"></path>
            <path d="M578.966663,76.7116074 C578.966663,161.299904 574.970074,131.526207 580.201819,166.825382" id="Path-25" filter="url(#filter-59)"></path>
            <path d="M412.058355,294.021452 C429.390623,332.641384 420.742134,316.338752 436.538518,343.678989" id="Path-26" filter="url(#filter-60)"></path>
            <path d="M374.187813,313.923225 C394.335102,302.503704 414.482392,291.084183 434.629682,279.664662" id="Path-27" filter="url(#filter-61)"></path>
            <path d="M458.442524,269.171606 C486.464543,335.700225 467.634446,288.11695 488.126059,346.240245 C488.966256,348.623417 487.265626,341.15387 486.010803,338.960503 C479.908092,328.29327 472.192531,318.597719 466.179896,307.879456 C462.04746,300.512878 458.585276,292.751758 455.646774,284.832874 C454.46933,281.659815 454.099901,278.207599 453.915375,274.828157 C453.520924,267.604087 452.673149,260.251052 453.915375,253.123665 C454.31843,250.8111 456.571869,249.036801 458.612693,247.876865 C461.926244,245.993553 465.70442,244.887674 469.46771,244.284237 C485.013963,241.791423 493.448482,254.971808 489.569451,270.711395 C488.532133,274.920427 484.557458,277.838502 481.492286,280.903906 C473.738697,288.658083 465.012325,295.391946 457.198192,303.085107 C455.542991,304.714684 460.860123,300.163273 462.953137,299.156049 C465.81448,297.779079 468.779965,296.318936 471.938476,295.991615 C480.976246,295.055016 490.126831,294.76283 499.190584,295.400702 C503.264435,295.687404 507.21657,297.150288 510.978759,298.739121 C520.388382,302.712955 529.481752,307.40609 538.585561,312.037829 C539.503181,312.504686 540.435939,313.119689 540.971924,313.998725 C541.425085,314.741928 541.22807,315.720705 541.356144,316.581695" id="Path-28" filter="url(#filter-62)"></path>
            <path d="M513.338593,240.40324 C573.057288,324.323398 533.613844,303.922516 576.256225,282.534003 C584.803177,278.247033 593.497543,274.249949 602.266636,270.437925 C603.857693,269.746274 605.579007,268.715324 607.281941,269.046773 C608.138192,269.213429 606.198299,270.414061 605.656478,271.097704" id="Path-29" filter="url(#filter-63)"></path>
            <path d="M530.366845,268.174124 C559.580693,251.921433 545.099908,258.264973 573.45248,248.349122" id="Path-30" filter="url(#filter-64)"></path>
            <path d="M510.971218,246.141469 C527.026458,236.995076 543.081698,227.848684 559.136937,218.702292" id="Path-31" filter="url(#filter-65)"></path>
            <path d="M595.399188,205.689319 C598.528098,208.194912 601.960742,210.362429 604.785918,213.206098 C660.369949,269.15397 624.815115,261.114968 663.830003,243.596202 C674.70268,238.714069 686.319925,235.696535 697.564885,231.746701" id="Path-32" filter="url(#filter-66)"></path>
            <path d="M619.037863,232.235676 C644.773292,218.72219 633.353753,223.140078 652.417417,216.902117" id="Path-33" filter="url(#filter-67)"></path>
            <path d="M592.363948,211.749169 C728.57346,136.066823 604.781669,200.351522 658.534505,178.437846 C659.532299,178.03107 656.379455,178.437846 655.301931,178.437846" id="Path-34" filter="url(#filter-68)"></path>
        </g>
        <g id="Group" transform="translate(33.000000, 35.000000)" stroke-width="15">
            <path d="M21,10 C27.1870516,44.8437779 21.7507386,27.7650098 38,61" id="Path" stroke="#DBC9A2"></path>
            <path d="M0,26 C17.7283706,19.7934701 32.5386859,8.74663656 50,2" id="Path-2" stroke="#DBC9A2"></path>
            <path d="M58,16 C61.1597073,30.7552742 69.1108816,43.1828593 72,58" id="Path-3" stroke="#EDC9AE"></path>
            <path d="M79,14 C82.4957961,27.7920609 91.3382685,38.5987019 96,52" id="Path-4" stroke="#EDC9AE"></path>
            <path d="M66,44 C76,39.6666667 86,35.3333333 96,31" id="Path-5" stroke="#EDC9AE"></path>
            <path d="M102,9 C115.657869,34.6744522 114.465607,59.6149754 147,37.4120882" id="Path-6" stroke="#FFBFBC"></path>
            <path d="M109,30 C113,29.6666667 117,29.3333333 121,29" id="Path-7" stroke="#FFBFBC"></path>
            <path d="M100,14 C112.093801,11.8230378 120.919023,2.50712684 133,0" id="Path-8" stroke="#FFBFBC"></path>
            <path d="M24,102.565811 C82.4531125,175.67391 24.3496575,100.902919 72.5922724,168.656569 C72.8843086,169.066715 74.0890843,169.159875 74.1027559,168.656569 L74.1027559,130.707259 C74.1560144,128.746611 73.3379884,125.134192 75.2901462,124.944194 C77.4896241,124.730125 77.3128106,129.303101 79.3332915,130.198186 L84.8071425,132.935052 C98.3136743,138.918525 111.753663,145.067922 125.441411,150.624355 C130.373979,152.626691 135.448003,156.853786 140.619734,155.591728 C143.427794,154.906477 141.172813,149.757426 140.619734,146.920387 C137.559782,131.224255 132.848956,115.879172 129.816791,100.177649 C128.366648,92.6683458 128.580679,84.9050278 127.191409,77.3842248 C126.946663,76.0592922 125.717911,75.1280749 124.981162,74" id="Path-9" stroke="#DDB99E"></path>
            <path d="M156.028005,65 C156.028005,105.485417 154.83633,77.8727004 168,147" id="Path-10" stroke="#FFD9BC"></path>
            <path d="M189.889628,63 C189.380633,174.889073 162.777499,166.091652 210.224945,148.421054 C221.44092,144.243949 232.845172,140.494437 244.447707,137.556116 C250.165618,136.108066 256.149236,136.058117 262,135.309117" id="Path-11" stroke="#FFC8AB"></path>
            <path d="M282.53059,58.0295333 C269.880499,58.0295333 268.869483,56.9228193 253.991477,68.2590135 C250.504011,70.9162643 243.890228,90.5693286 243.610678,92.6073073 C242.389416,101.510583 241.05801,110.766207 242.93332,119.556214 C244.000231,124.557072 258.733844,130.138672 261.764425,131.090544 C278.653907,136.395348 310.87262,136.87926 308.914672,111.112287" id="Path-12" stroke="#F0BE99"></path>
            <path d="M351.746944,59 C317.142954,61.6752016 316.707905,116.703229 340.472484,118.889483 C361.403096,120.815022 418.276521,97.2809861 380.160698,71.5887771 C367.992871,63.3869773 331.433173,65.4998618 328.556221,65.3299054" id="Path-13" stroke="#FFD9BC"></path>
            <path d="M388,49 C420.990044,49 451.40249,63.1048057 481,76" id="Path-14" stroke="#E6D7B5"></path>
            <path d="M453,26 C418.052365,96.1967763 431.101603,65.4401748 411,117" id="Path-15" stroke="#E6D7B5"></path>
            <path d="M168.537221,197.205401 C171.028437,210.433539 200.17851,273.199757 205.538748,287.131745" id="Path-16" stroke="#FFC0BC"></path>
            <path d="M164.406377,194.701201 C221.238896,178.382613 196.520617,186.953748 239.114637,170.643054" id="Path-17" stroke="#FFC0BC"></path>
            <path d="M186.718498,246.103673 C194.11211,243.655409 201.505723,241.207144 208.899335,238.75888" id="Path-18" stroke="#FFC0BC"></path>
            <path d="M261.820336,272.331497 C261.820336,244.526332 261.508603,216.719419 261.820336,188.916002 C261.835046,187.604041 261.979204,191.661743 262.71261,192.749664 C264.914899,196.016498 267.679452,198.881828 270.436173,201.696572 C277.701304,209.114618 285.070689,216.442866 292.755653,223.425049 C298.005931,228.195194 304.124922,231.975146 309.208165,236.922908 C315.702064,243.243728 321.328956,250.398085 327.389351,257.135673" id="Path-19" stroke="#DDC38B"></path>
            <path d="M250.596181,244.373183 C258.280094,240.480255 302.774732,212.992355 319.23705,215.228683 C319.672217,215.287799 318.745168,215.956361 318.499227,216.320199" id="Path-20" stroke="#DDC38B"></path>
            <path d="M360.456459,246.771085 C359.193008,226.093676 361.448623,245.239603 344.802914,208.030709 C340.124303,197.572402 320.647237,175.076644 332.057686,176.10972 C351.705773,177.888614 363.596972,199.829336 379.724345,211.192417 C383.421666,213.797488 388.769333,221.598481 391.476179,217.975008 C396.06347,211.834309 392.06218,202.644469 391.833325,194.982938 C391.258592,175.742255 390.192448,166.969427 386.312601,148.896134 C385.93318,147.1287 385.994312,152.687611 386.820654,154.295387 C388.663757,157.881422 391.402242,160.95446 394.065873,163.981298 C398.927412,169.505747 403.972912,174.888606 409.357184,179.904951 C442.543029,210.823092 417.534156,183.001718 441.302885,210.909862" id="Path-21" stroke="#FACDBD"></path>
            <path d="M431.125091,147.196806 C459.68485,196.448715 446.326968,177.457517 468.052209,206.258426" id="Path-22" stroke="#FFD9BC"></path>
            <path d="M465.259185,134.060272 C465.624205,136.79845 465.504516,139.646344 466.354245,142.274808 C493.641921,226.683769 469.246586,215.697333 515.785737,189.604673 C525.520976,184.146509 535.973426,180.079814 546.067271,175.317385" id="Path-23" stroke="#EBB993"></path>
            <path d="M515.591946,115.649681 C536.409191,119.822318 557.226436,123.994955 578.04368,128.167592" id="Path-24" stroke="#FFD9BC"></path>
            <path d="M578.966663,76.7116074 C578.966663,161.299904 574.970074,131.526207 580.201819,166.825382" id="Path-25" stroke="#FFD9BC"></path>
            <path d="M412.058355,294.021452 C429.390623,332.641384 420.742134,316.338752 436.538518,343.678989" id="Path-26" stroke="#FFD9BC"></path>
            <path d="M374.187813,313.923225 C394.335102,302.503704 414.482392,291.084183 434.629682,279.664662" id="Path-27" stroke="#FFD9BC"></path>
            <path d="M458.442524,269.171606 C486.464543,335.700225 467.634446,288.11695 488.126059,346.240245 C488.966256,348.623417 487.265626,341.15387 486.010803,338.960503 C479.908092,328.29327 472.192531,318.597719 466.179896,307.879456 C462.04746,300.512878 458.585276,292.751758 455.646774,284.832874 C454.46933,281.659815 454.099901,278.207599 453.915375,274.828157 C453.520924,267.604087 452.673149,260.251052 453.915375,253.123665 C454.31843,250.8111 456.571869,249.036801 458.612693,247.876865 C461.926244,245.993553 465.70442,244.887674 469.46771,244.284237 C485.013963,241.791423 493.448482,254.971808 489.569451,270.711395 C488.532133,274.920427 484.557458,277.838502 481.492286,280.903906 C473.738697,288.658083 465.012325,295.391946 457.198192,303.085107 C455.542991,304.714684 460.860123,300.163273 462.953137,299.156049 C465.81448,297.779079 468.779965,296.318936 471.938476,295.991615 C480.976246,295.055016 490.126831,294.76283 499.190584,295.400702 C503.264435,295.687404 507.21657,297.150288 510.978759,298.739121 C520.388382,302.712955 529.481752,307.40609 538.585561,312.037829 C539.503181,312.504686 540.435939,313.119689 540.971924,313.998725 C541.425085,314.741928 541.22807,315.720705 541.356144,316.581695" id="Path-28" stroke="#F0C998"></path>
            <path d="M513.338593,240.40324 C573.057288,324.323398 533.613844,303.922516 576.256225,282.534003 C584.803177,278.247033 593.497543,274.249949 602.266636,270.437925 C603.857693,269.746274 605.579007,268.715324 607.281941,269.046773 C608.138192,269.213429 606.198299,270.414061 605.656478,271.097704" id="Path-29" stroke="#FFD9BC"></path>
            <path d="M530.366845,268.174124 C559.580693,251.921433 545.099908,258.264973 573.45248,248.349122" id="Path-30" stroke="#FFD9BC"></path>
            <path d="M510.971218,246.141469 C527.026458,236.995076 543.081698,227.848684 559.136937,218.702292" id="Path-31" stroke="#FFD9BC"></path>
            <path d="M595.399188,205.689319 C598.528098,208.194912 601.960742,210.362429 604.785918,213.206098 C660.369949,269.15397 624.815115,261.114968 663.830003,243.596202 C674.70268,238.714069 686.319925,235.696535 697.564885,231.746701" id="Path-32" stroke="#FFCCBC"></path>
            <path d="M619.037863,232.235676 C644.773292,218.72219 633.353753,223.140078 652.417417,216.902117" id="Path-33" stroke="#FFCCBC"></path>
            <path d="M592.363948,211.749169 C728.57346,136.066823 604.781669,200.351522 658.534505,178.437846 C659.532299,178.03107 656.379455,178.437846 655.301931,178.437846" id="Path-34" stroke="#FFCCBC"></path>
        </g>
    </g>
</svg>